<?xml version="1.0" encoding="UTF-8"?>
<!DOCTYPE svg PUBLIC "-//W3C//DTD SVG 1.1//EN" "http://www.w3.org/Graphics/SVG/1.1/DTD/svg11.dtd">
<!-- Creator: CorelDRAW 2018 (64-Bit) -->
<svg xmlns="http://www.w3.org/2000/svg" xml:space="preserve" width="20mm" height="20mm" version="1.1" style="shape-rendering:geometricPrecision; text-rendering:geometricPrecision; image-rendering:optimizeQuality; fill-rule:evenodd; clip-rule:evenodd"
viewBox="0 0 2000 2000"
 xmlns:xlink="http://www.w3.org/1999/xlink">
 <defs>
  <style type="text/css">
   <![CDATA[
    .fil0 {fill:#2F68AF;fill-rule:nonzero}
    .fil1 {fill:#D2D3D3;fill-rule:nonzero}
   ]]>
  </style>
 </defs>
 <g id="Слой_x0020_1">
  <metadata id="CorelCorpID_0Corel-Layer"/>
  <g id="_3080122509808">
   <polygon class="fil0" points="1591.57,1560.24 410.4,1560.24 410.4,376.14 1591.57,376.14 "/>
   <polygon class="fil0" points="971.14,302.81 971.14,168.22 1024.75,168.22 1024.75,178.63 981.39,178.63 981.39,227.1 1020.81,227.1 1020.81,237.51 981.39,237.51 981.39,292.4 1025.53,292.4 1025.53,302.81 "/>
   <path class="fil0" d="M1037.12 168.23l10.25 0 0 97.61c0,4.8 0.29,9.03 0.85,12.74 0.6,3.7 1.67,6.81 3.25,9.35 1.58,2.5 3.77,4.41 6.64,5.71 2.81,1.34 6.44,1.98 10.85,1.98 4.64,0 8.4,-0.74 11.36,-2.23 2.94,-1.51 5.22,-3.63 6.85,-6.38 1.67,-2.75 2.78,-6 3.43,-9.77 0.6,-3.78 0.91,-7.94 0.91,-12.49l0 -96.52 10.27 0 0 93.66c0,6.6 -0.49,12.56 -1.49,17.96 -1.01,5.36 -2.74,10.02 -5.22,13.9 -2.47,3.88 -5.79,6.91 -9.94,9.06 -4.16,2.16 -9.42,3.21 -15.84,3.21 -11.36,0 -19.54,-3.38 -24.6,-10.12 -5.03,-6.77 -7.57,-16.3 -7.57,-28.61l0 -99.06z"/>
   <path class="fil0" d="M1137.78 239.46l0 63.33 -10.27 0 0 -134.55 22.9 0c5.37,0 10.28,0.49 14.71,1.52 4.48,1.02 8.33,2.85 11.54,5.46 3.21,2.65 5.72,6.18 7.49,10.59 1.78,4.44 2.67,10.05 2.67,16.86 0,3.25 -0.31,6.56 -0.91,9.98 -0.67,3.39 -1.7,6.6 -3.11,9.6 -1.42,3 -3.22,5.54 -5.36,7.69 -2.16,2.15 -4.8,3.6 -7.98,4.3l0 0.39c3.5,0.95 6.24,2.4 8.29,4.38 2.05,1.97 3.63,4.37 4.73,7.19 1.13,2.79 1.84,6 2.22,9.6 0.36,3.6 0.54,7.48 0.54,11.64 0.1,1.69 0.18,4.2 0.18,7.55 0,3.35 0.17,6.81 0.49,10.41 0.28,3.59 0.78,6.91 1.47,9.94 0.68,3.07 1.77,5.01 3.22,5.86l0 1.59 -11.18 0c-1.18,-2.86 -2.02,-6.28 -2.52,-10.3 -0.53,-4.02 -0.95,-8.12 -1.27,-12.28 -0.31,-4.2 -0.53,-8.22 -0.62,-12.03 -0.11,-3.84 -0.22,-7.02 -0.33,-9.52 -0.32,-4.41 -1.23,-7.91 -2.74,-10.48 -1.52,-2.58 -3.5,-4.52 -5.87,-5.86 -2.36,-1.3 -5.03,-2.11 -8.1,-2.4 -3.03,-0.31 -6.25,-0.46 -9.63,-0.46l-10.56 0zm0 -10.4l18 0c0.8,0 2.39,-0.21 4.73,-0.64 2.29,-0.42 4.61,-1.44 7.01,-3.14 2.36,-1.65 4.44,-4.19 6.29,-7.62 1.87,-3.42 2.78,-8.11 2.78,-14.07 0,-4.91 -0.49,-9 -1.51,-12.21 -0.99,-3.24 -2.52,-5.78 -4.48,-7.62 -2.01,-1.87 -4.53,-3.17 -7.53,-3.95 -2.99,-0.78 -6.49,-1.16 -10.47,-1.16l-14.82 0 0 50.41z"/>
   <path class="fil0" d="M1238.92 306.03c-5.68,0 -10.49,-1.16 -14.43,-3.49 -3.95,-2.33 -7.16,-5.47 -9.7,-9.42 -2.51,-3.95 -4.49,-8.46 -5.94,-13.54 -1.41,-5.08 -2.43,-10.38 -3.05,-15.88 -0.65,-5.5 -0.99,-11.01 -1.1,-16.51 -0.11,-5.5 -0.15,-10.65 -0.15,-15.45 0,-6.92 0.33,-14.29 1.02,-22.05 0.67,-7.8 2.19,-14.99 4.55,-21.62 2.38,-6.64 5.86,-12.14 10.42,-16.51 4.59,-4.38 10.83,-6.57 18.7,-6.57 5.77,0 10.65,1.13 14.66,3.43 3.99,2.25 7.28,5.32 9.85,9.13 2.58,3.85 4.56,8.22 5.92,13.2 1.34,4.97 2.37,10.16 3.08,15.62 0.66,5.44 1.05,10.91 1.16,16.41 0.11,5.5 0.17,10.69 0.17,15.63 0,7.26 -0.28,14.92 -0.77,22.86 -0.52,7.97 -1.97,15.24 -4.26,21.9 -2.34,6.64 -5.82,12.1 -10.59,16.41 -4.72,4.3 -11.25,6.45 -19.54,6.45zm0.94 -10.4c4.21,0 7.69,-1.06 10.49,-3.14 2.79,-2.08 5.08,-4.84 6.87,-8.15 1.76,-3.35 3.11,-7.2 4.03,-11.5 0.87,-4.31 1.52,-8.68 1.87,-13.09 0.38,-4.45 0.56,-8.75 0.63,-12.91 0.07,-4.2 0.07,-7.9 0.07,-11.15 0,-3.21 0,-6.98 -0.07,-11.29 -0.07,-4.3 -0.31,-8.68 -0.78,-13.12 -0.49,-4.41 -1.19,-8.79 -2.21,-13.09 -1,-4.3 -2.4,-8.15 -4.24,-11.57 -1.87,-3.42 -4.23,-6.14 -7.12,-8.15 -2.9,-2.05 -6.42,-3.07 -10.63,-3.07 -4.01,0 -7.37,1.02 -10.09,3.07 -2.74,2.01 -4.97,4.69 -6.69,7.97 -1.78,3.28 -3.12,7.02 -4.14,11.22 -0.98,4.2 -1.69,8.47 -2.12,12.84 -0.42,4.34 -0.67,8.64 -0.76,12.81 -0.15,4.2 -0.18,7.9 -0.18,11.15 0,3.45 0.03,7.37 0.07,11.74 0.07,4.38 0.27,8.79 0.63,13.27 0.39,4.48 1.06,8.92 2.04,13.3 1.03,4.34 2.44,8.22 4.28,11.57 1.83,3.31 4.23,6.07 7.15,8.15 2.97,2.08 6.6,3.14 10.9,3.14z"/>
   <path class="fil0" d="M1295.2 302.81l0 -134.59 20.99 0c6.61,0 12.43,0.57 17.44,1.62 4.97,1.06 9.13,2.97 12.44,5.65 3.32,2.72 5.79,6.28 7.48,10.76 1.69,4.51 2.54,10.23 2.54,17.14 0,6.46 -0.73,12.14 -2.22,17.04 -1.47,4.94 -3.95,9 -7.4,12.21 -1.92,1.8 -4.06,3.28 -6.47,4.48 -2.42,1.2 -4.86,2.15 -7.26,2.89 -2.43,0.71 -4.7,1.24 -6.77,1.52 -2.12,0.32 -3.75,0.46 -4.9,0.46l-15.6 0 0 60.82 -10.27 0zm10.27 -71.23l8.83 0c4.51,0 8.71,-0.28 12.63,-0.81 3.88,-0.53 7.19,-1.76 9.98,-3.67 2.79,-1.94 4.96,-4.69 6.55,-8.25 1.6,-3.6 2.36,-8.4 2.36,-14.36 0,-5.15 -0.56,-9.39 -1.65,-12.67 -1.09,-3.28 -2.72,-5.89 -4.86,-7.79 -2.2,-1.91 -4.85,-3.25 -7.98,-4.06 -3.18,-0.78 -6.77,-1.2 -10.91,-1.34l-14.95 0 0 52.95z"/>
   <polygon class="fil0" points="1367.28,302.81 1367.28,168.22 1420.91,168.22 1420.91,178.63 1377.55,178.63 1377.55,227.1 1416.95,227.1 1416.95,237.51 1377.55,237.51 1377.55,292.4 1421.68,292.4 1421.68,302.81 "/>
   <path class="fil0" d="M1468.64 168.23l31.68 134.58 -10.4 0 -9.29 -41.45 -35.95 0 -9.62 41.45 -9.96 0 31.73 -134.58 11.81 0zm9.78 82.72l-15.59 -68.01 -0.32 0 -15.64 68.01 31.55 0z"/>
   <polygon class="fil0" points="1570.4,283.78 1570.72,283.78 1570.72,168.21 1580.98,168.21 1580.98,302.8 1568.53,302.8 1524.68,187.62 1524.35,187.62 1524.35,302.8 1514.1,302.8 1514.1,168.21 1526.87,168.21 "/>
   <path class="fil0" d="M1961.35 424.14l-134.58 31.68 0 -10.41 41.45 -9.28 0 -35.95 -41.45 -9.63 0 -9.95 134.58 31.72 0 11.82zm-82.73 9.77l68.02 -15.59 0 -0.32 -68.02 -15.63 0 31.54z"/>
   <polygon class="fil0" points="1845.8,596.28 1845.8,596.6 1961.37,596.6 1961.37,606.86 1826.78,606.86 1826.78,594.41 1941.97,550.56 1941.97,550.24 1826.78,550.24 1826.78,539.98 1961.37,539.98 1961.37,552.75 "/>
   <path class="fil0" d="M1823.56 722.56c0,-5.68 1.16,-10.48 3.49,-14.43 2.32,-3.95 5.47,-7.16 9.41,-9.7 3.96,-2.51 8.47,-4.48 13.55,-5.93 5.08,-1.41 10.38,-2.43 15.89,-3.07 5.5,-0.63 11,-0.98 16.51,-1.09 5.5,-0.11 10.64,-0.14 15.44,-0.14 6.92,0 14.29,0.32 22.06,1.02 7.79,0.67 14.99,2.19 21.61,4.55 6.63,2.37 12.14,5.86 16.51,10.41 4.39,4.59 6.57,10.83 6.57,18.7 0,5.78 -1.16,10.65 -3.43,14.67 -2.26,3.99 -5.33,7.27 -9.14,9.84 -3.83,2.58 -8.24,4.56 -13.19,5.93 -4.96,1.34 -10.19,2.36 -15.62,3.07 -5.43,0.67 -10.91,1.06 -16.4,1.16 -5.52,0.11 -10.69,0.18 -15.64,0.18 -7.26,0 -14.92,-0.28 -22.86,-0.78 -7.97,-0.52 -15.28,-1.97 -21.9,-4.26 -6.64,-2.33 -12.1,-5.82 -16.4,-10.59 -4.32,-4.72 -6.46,-11.25 -6.46,-19.54zm10.41 0.95c0,4.2 1.05,7.69 3.14,10.48 2.07,2.79 4.79,5.08 8.15,6.84 3.34,1.8 7.19,3.14 11.5,4.06 4.3,0.88 8.67,1.52 13.08,1.87 4.41,0.39 8.76,0.6 12.92,0.63 4.19,0.07 7.89,0.07 11.14,0.07 3.21,0 6.98,0 11.29,-0.07 4.31,-0.03 8.67,-0.31 13.13,-0.77 4.41,-0.5 8.74,-1.2 13.08,-2.22 4.3,-0.99 8.16,-2.4 11.57,-4.27 3.42,-1.84 6.15,-4.2 8.15,-7.09 2.05,-2.9 3.08,-6.42 3.08,-10.62 0,-4.02 -1.03,-7.38 -3.08,-10.09 -2,-2.75 -4.69,-4.98 -7.98,-6.7 -3.28,-1.77 -7.02,-3.11 -11.2,-4.13 -4.21,-0.99 -8.47,-1.7 -12.86,-2.12 -4.32,-0.42 -8.63,-0.67 -12.84,-0.77 -4.16,-0.11 -7.86,-0.18 -11.11,-0.18 -3.46,0 -7.36,0.03 -11.75,0.07 -4.36,0.07 -8.77,0.28 -13.25,0.63 -4.48,0.36 -8.94,1.06 -13.3,2.05 -4.38,1.02 -8.23,2.43 -11.57,4.27 -3.36,1.83 -6.08,4.23 -8.15,7.16 -2.09,2.96 -3.14,6.6 -3.14,10.9z"/>
   <path class="fil0" d="M1961.35 840.21l0 21.13c0,3.35 -0.1,6.63 -0.34,9.77 -0.26,3.18 -0.78,6.21 -1.62,9.14 -0.85,2.96 -2.1,5.79 -3.79,8.47 -1.65,2.68 -3.99,5.22 -6.97,7.62 -2.77,2.01 -5.98,3.7 -9.61,5.15 -3.67,1.41 -7.5,2.61 -11.56,3.53 -4.1,0.95 -8.12,1.62 -12.1,2.04 -4.03,0.42 -7.73,0.64 -11.05,0.64l-12.21 0c-4.3,0 -8.67,-0.11 -13.12,-0.39 -4.41,-0.25 -8.74,-0.71 -12.98,-1.34 -4.27,-0.64 -8.19,-1.59 -11.75,-2.82 -5.75,-1.8 -10.43,-3.96 -14,-6.5 -3.61,-2.5 -6.39,-5.43 -8.36,-8.74 -1.97,-3.32 -3.31,-6.99 -4.03,-11.05 -0.73,-4.02 -1.09,-8.53 -1.09,-13.47l0 -23.18 134.58 0zm-124.18 10.27l0 12.27c0,2.97 0.14,6.04 0.37,9.25 0.24,3.21 1.09,6.17 2.54,8.89 2,3.88 5.21,6.98 9.59,9.24 4.38,2.26 9.16,3.91 14.42,4.97 5.26,1.03 10.58,1.7 15.98,1.94 5.36,0.28 10.14,0.43 14.19,0.43 4.3,0 9.07,-0.07 14.24,-0.18 5.24,-0.11 10.34,-0.64 15.35,-1.55 5.01,-0.96 9.71,-2.47 14.02,-4.59 4.29,-2.12 7.64,-5.11 10,-8.99 1,-1.59 1.71,-3.32 2.2,-5.19 0.45,-1.91 0.78,-3.88 0.98,-5.93 0.18,-2.04 0.22,-4.09 0.18,-6.06 -0.06,-2.02 -0.18,-3.92 -0.29,-5.68l0 -8.82 -113.77 0z"/>
   <polygon class="fil0" points="1826.79,1000.49 1961.34,1000.49 1961.34,990.22 1826.79,990.22 "/>
   <path class="fil0" d="M1900.17 1114.72c-2.04,4.31 -4.05,8.33 -6.1,12.07 -2.04,3.74 -4.45,6.95 -7.27,9.63 -2.82,2.68 -6.2,4.76 -10.24,6.31 -4.01,1.52 -9.05,2.26 -15.16,2.26 -5.76,0 -10.93,-0.77 -15.59,-2.36 -4.65,-1.55 -8.64,-3.85 -11.92,-6.77 -3.32,-2.93 -5.86,-6.53 -7.66,-10.73 -1.76,-4.2 -2.68,-8.89 -2.68,-14.04 0,-5.36 1.02,-10.09 3.06,-14.18 2.02,-4.09 4.9,-7.55 8.62,-10.34 3.7,-2.78 8.07,-4.83 13.08,-6.14 5.05,-1.34 10.51,-1.94 16.51,-1.83l0 10.09c-4.19,0 -8.15,0.42 -11.92,1.2 -3.77,0.77 -7.06,2.04 -9.88,3.77 -2.82,1.73 -5,4.03 -6.63,6.88 -1.63,2.82 -2.43,6.28 -2.43,10.41 0,7.23 2.43,13.02 7.27,17.36 4.85,4.3 11.45,6.45 19.82,6.45 5.04,0 9.14,-0.74 12.3,-2.22 3.14,-1.48 5.75,-3.46 7.8,-5.93 2.01,-2.47 3.74,-5.29 5.13,-8.5 1.37,-3.21 2.82,-6.49 4.36,-9.84 1.81,-4.02 3.74,-7.66 5.75,-10.97 2.05,-3.32 4.48,-6.18 7.27,-8.61 2.82,-2.4 6.15,-4.3 9.98,-5.65 3.81,-1.37 8.44,-2.08 13.8,-2.08 5.51,0 10.51,0.71 15.09,2.16 4.53,1.41 8.44,3.42 11.73,6.06 3.31,2.61 5.85,5.82 7.64,9.63 1.8,3.78 2.69,8.08 2.69,12.92 0,4.62 -0.89,8.82 -2.61,12.52 -1.74,3.74 -4.21,6.95 -7.35,9.63 -3.16,2.68 -6.95,4.69 -11.32,6.07 -4.34,1.37 -9.17,2.01 -14.43,1.9l0 -9.95c7.53,0.32 13.65,-1.34 18.31,-4.97 4.66,-3.6 7,-8.75 7,-15.35 0,-3.38 -0.68,-6.31 -1.99,-8.85 -1.31,-2.5 -3.14,-4.66 -5.46,-6.39 -2.34,-1.72 -5.08,-2.99 -8.26,-3.84 -3.17,-0.85 -6.64,-1.27 -10.29,-1.27 -3.39,0 -6.25,0.25 -8.65,0.78 -2.41,0.52 -4.48,1.34 -6.29,2.46 -1.8,1.1 -3.38,2.58 -4.71,4.41 -1.39,1.84 -2.77,4.06 -4.06,6.71l-4.31 9.13z"/>
   <polygon class="fil0" points="1826.77,1226.37 1961.35,1226.37 1961.35,1279.99 1950.95,1279.99 1950.95,1236.64 1902.51,1236.64 1902.51,1276.04 1892.1,1276.04 1892.1,1236.64 1837.18,1236.64 1837.18,1280.77 1826.77,1280.77 "/>
   <path class="fil0" d="M1890.11 1370.67l-63.32 0 0 -10.26 134.55 0 0 22.89c0,5.36 -0.49,10.27 -1.52,14.75 -1.02,4.44 -2.85,8.29 -5.46,11.5 -2.64,3.21 -6.17,5.68 -10.58,7.48 -4.46,1.8 -10.07,2.68 -16.86,2.68 -3.26,0 -6.58,-0.32 -9.96,-0.92 -3.41,-0.63 -6.63,-1.69 -9.63,-3.1 -2.97,-1.42 -5.53,-3.21 -7.68,-5.37 -2.17,-2.15 -3.61,-4.79 -4.31,-7.97l-0.35 0c-0.99,3.49 -2.44,6.25 -4.42,8.29 -1.98,2.05 -4.37,3.63 -7.19,4.73 -2.78,1.13 -5.99,1.83 -9.6,2.22 -3.57,0.35 -7.47,0.57 -11.63,0.57 -1.7,0.07 -4.21,0.14 -7.56,0.14 -3.35,0 -6.81,0.17 -10.4,0.49 -3.61,0.28 -6.92,0.78 -9.96,1.48 -3.06,0.67 -5,1.77 -5.85,3.21l-1.59 0 0 -11.18c2.86,-1.16 6.32,-2.01 10.31,-2.51 4.01,-0.52 8.11,-0.95 12.3,-1.27 4.16,-0.31 8.19,-0.52 12,-0.63 3.84,-0.11 7.02,-0.21 9.52,-0.32 4.41,-0.32 7.91,-1.23 10.52,-2.75 2.54,-1.52 4.48,-3.49 5.81,-5.86 1.32,-2.36 2.12,-5.04 2.41,-8.11 0.31,-3.03 0.45,-6.24 0.45,-9.63l0 -10.55zm10.42 0l0 17.99c0,0.81 0.2,2.4 0.63,4.73 0.42,2.29 1.45,4.66 3.14,7.02 1.65,2.36 4.24,4.45 7.62,6.28 3.41,1.87 8.11,2.79 14.1,2.79 4.91,0 8.96,-0.5 12.17,-1.52 3.25,-0.99 5.79,-2.5 7.62,-4.48 1.87,-2.01 3.18,-4.52 3.97,-7.51 0.77,-2.97 1.15,-6.5 1.15,-10.48l0 -14.82 -50.4 0z"/>
   <path class="fil0" d="M1900.17 1536.41c-2.04,4.31 -4.05,8.33 -6.1,12.07 -2.04,3.74 -4.45,6.95 -7.27,9.63 -2.82,2.68 -6.2,4.76 -10.24,6.31 -4.01,1.52 -9.05,2.26 -15.16,2.26 -5.76,0 -10.93,-0.77 -15.59,-2.36 -4.65,-1.55 -8.64,-3.81 -11.92,-6.77 -3.32,-2.93 -5.86,-6.53 -7.66,-10.73 -1.76,-4.2 -2.68,-8.89 -2.68,-14.04 0,-5.36 1.02,-10.09 3.06,-14.18 2.02,-4.09 4.9,-7.55 8.62,-10.34 3.7,-2.78 8.07,-4.83 13.08,-6.14 5.05,-1.3 10.51,-1.94 16.51,-1.83l0 10.09c-4.19,0 -8.15,0.42 -11.92,1.2 -3.77,0.77 -7.06,2.04 -9.88,3.77 -2.82,1.73 -5,4.02 -6.63,6.88 -1.63,2.82 -2.43,6.28 -2.43,10.41 0,7.23 2.43,13.02 7.27,17.36 4.85,4.3 11.45,6.45 19.82,6.45 5.04,0 9.14,-0.74 12.3,-2.22 3.14,-1.48 5.75,-3.42 7.8,-5.89 2.01,-2.51 3.74,-5.33 5.13,-8.54 1.37,-3.21 2.82,-6.49 4.36,-9.84 1.81,-3.99 3.74,-7.66 5.75,-10.97 2.05,-3.32 4.48,-6.18 7.27,-8.61 2.82,-2.4 6.15,-4.31 9.98,-5.65 3.81,-1.37 8.44,-2.04 13.8,-2.04 5.51,0 10.51,0.7 15.09,2.11 4.53,1.42 8.44,3.43 11.73,6.07 3.31,2.61 5.85,5.82 7.64,9.63 1.8,3.78 2.69,8.08 2.69,12.92 0,4.62 -0.89,8.81 -2.61,12.52 -1.74,3.74 -4.21,6.95 -7.35,9.63 -3.16,2.68 -6.95,4.69 -11.32,6.07 -4.34,1.37 -9.17,2.01 -14.43,1.9l0 -9.95c7.53,0.32 13.65,-1.34 18.31,-4.93 4.66,-3.64 7,-8.79 7,-15.39 0,-3.38 -0.68,-6.31 -1.99,-8.85 -1.31,-2.51 -3.14,-4.66 -5.46,-6.39 -2.34,-1.72 -5.08,-2.99 -8.26,-3.84 -3.17,-0.85 -6.64,-1.27 -10.29,-1.27 -3.39,0 -6.25,0.25 -8.65,0.77 -2.41,0.53 -4.48,1.35 -6.29,2.47 -1.8,1.1 -3.38,2.58 -4.71,4.41 -1.39,1.84 -2.77,4.06 -4.06,6.71l-4.31 9.13z"/>
   <path class="fil0" d="M1783.49 417.53l-134.58 31.68 0 -10.41 41.45 -9.28 0 -35.95 -41.45 -9.63 0 -9.95 134.58 31.72 0 11.82zm-82.73 9.77l68.02 -15.59 0 -0.32 -68.02 -15.63 0 31.54z"/>
   <path class="fil0" d="M1722.31 534.38c-2.04,4.3 -4.07,8.33 -6.1,12.07 -2.02,3.73 -4.46,6.94 -7.27,9.63 -2.8,2.68 -6.21,4.76 -10.24,6.31 -3.99,1.52 -9.07,2.26 -15.16,2.26 -5.72,0 -10.94,-0.78 -15.59,-2.37 -4.66,-1.55 -8.64,-3.84 -11.94,-6.77 -3.3,-2.93 -5.84,-6.52 -7.64,-10.72 -1.76,-4.2 -2.68,-8.89 -2.68,-14.04 0,-5.37 1.02,-10.09 3.06,-14.19 2.02,-4.09 4.9,-7.54 8.61,-10.33 3.71,-2.79 8.07,-4.83 13.08,-6.14 5.06,-1.31 10.56,-1.94 16.51,-1.83l0 10.09c-4.16,0 -8.15,0.42 -11.91,1.19 -3.79,0.78 -7.07,2.05 -9.88,3.78 -2.82,1.73 -5.01,4.02 -6.63,6.88 -1.63,2.82 -2.44,6.28 -2.44,10.41 0,7.23 2.44,13.01 7.27,17.35 4.86,4.31 11.46,6.46 19.83,6.46 5.03,0 9.14,-0.74 12.3,-2.22 3.14,-1.49 5.75,-3.43 7.8,-5.93 2.05,-2.47 3.74,-5.29 5.12,-8.5 1.38,-3.21 2.81,-6.49 4.41,-9.85 1.77,-3.98 3.7,-7.65 5.71,-10.97 2.05,-3.31 4.48,-6.17 7.26,-8.6 2.83,-2.4 6.15,-4.31 9.99,-5.65 3.81,-1.38 8.44,-2.08 13.8,-2.08 5.49,0 10.55,0.7 15.09,2.15 4.53,1.41 8.44,3.42 11.75,6.07 3.29,2.61 5.83,5.82 7.62,9.63 1.8,3.77 2.69,8.08 2.69,12.91 0,4.62 -0.85,8.82 -2.59,12.53 -1.76,3.73 -4.18,6.94 -7.37,9.63 -3.16,2.68 -6.95,4.69 -11.32,6.06 -4.34,1.38 -9.18,2.01 -14.43,1.91l0 -9.95c7.55,0.32 13.65,-1.34 18.31,-4.97 4.65,-3.6 6.99,-8.75 6.99,-15.35 0,-3.39 -0.67,-6.31 -1.98,-8.85 -1.31,-2.51 -3.14,-4.66 -5.46,-6.39 -2.34,-1.73 -5.08,-3 -8.27,-3.84 -3.16,-0.85 -6.59,-1.27 -10.29,-1.27 -3.36,0 -6.24,0.24 -8.62,0.77 -2.38,0.53 -4.5,1.34 -6.31,2.47 -1.75,1.09 -3.34,2.58 -4.72,4.41 -1.38,1.83 -2.72,4.06 -4.05,6.7l-4.31 9.14z"/>
   <path class="fil0" d="M1722.31 654.23c-2.04,4.31 -4.07,8.33 -6.1,12.07 -2.02,3.74 -4.46,6.95 -7.27,9.63 -2.8,2.68 -6.21,4.76 -10.24,6.31 -3.99,1.52 -9.07,2.26 -15.16,2.26 -5.72,0 -10.94,-0.77 -15.59,-2.36 -4.66,-1.55 -8.64,-3.85 -11.94,-6.78 -3.3,-2.92 -5.84,-6.52 -7.64,-10.72 -1.76,-4.2 -2.68,-8.89 -2.68,-14.04 0,-5.36 1.02,-10.09 3.06,-14.18 2.02,-4.09 4.9,-7.55 8.61,-10.34 3.71,-2.79 8.07,-4.83 13.08,-6.14 5.06,-1.34 10.56,-1.94 16.51,-1.83l0 10.09c-4.16,0 -8.15,0.42 -11.91,1.2 -3.79,0.77 -7.07,2.04 -9.88,3.77 -2.82,1.73 -5.01,4.02 -6.63,6.88 -1.63,2.82 -2.44,6.28 -2.44,10.41 0,7.23 2.44,13.02 7.27,17.35 4.86,4.31 11.46,6.46 19.83,6.46 5.03,0 9.14,-0.74 12.3,-2.22 3.14,-1.48 5.75,-3.46 7.8,-5.93 2.05,-2.47 3.74,-5.29 5.12,-8.5 1.38,-3.21 2.81,-6.49 4.41,-9.84 1.77,-4.02 3.7,-7.66 5.71,-10.97 2.05,-3.32 4.48,-6.18 7.26,-8.61 2.83,-2.4 6.15,-4.31 9.99,-5.65 3.81,-1.37 8.44,-2.08 13.8,-2.08 5.49,0 10.55,0.71 15.09,2.15 4.53,1.42 8.44,3.43 11.75,6.07 3.29,2.61 5.83,5.82 7.62,9.63 1.8,3.78 2.69,8.08 2.69,12.91 0,4.63 -0.85,8.82 -2.59,12.53 -1.76,3.74 -4.18,6.95 -7.37,9.63 -3.16,2.68 -6.95,4.69 -11.32,6.07 -4.34,1.37 -9.18,2.01 -14.43,1.9l0 -9.95c7.55,0.32 13.65,-1.34 18.31,-4.97 4.65,-3.6 6.99,-8.75 6.99,-15.35 0,-3.38 -0.67,-6.31 -1.98,-8.85 -1.31,-2.51 -3.14,-4.66 -5.46,-6.39 -2.34,-1.73 -5.08,-3 -8.27,-3.84 -3.16,-0.85 -6.59,-1.27 -10.29,-1.27 -3.36,0 -6.24,0.24 -8.62,0.77 -2.38,0.53 -4.5,1.34 -6.31,2.47 -1.75,1.1 -3.34,2.58 -4.72,4.41 -1.38,1.84 -2.72,4.06 -4.05,6.71l-4.31 9.13z"/>
   <path class="fil0" d="M1645.7 775.19c0,-5.68 1.16,-10.47 3.49,-14.43 2.32,-3.95 5.47,-7.16 9.41,-9.7 3.96,-2.5 8.47,-4.48 13.55,-5.92 5.08,-1.41 10.38,-2.44 15.88,-3.07 5.51,-0.64 11.01,-0.99 16.51,-1.1 5.51,-0.1 10.65,-0.14 15.44,-0.14 6.93,0 14.3,0.32 22.06,1.03 7.8,0.67 15,2.18 21.62,4.55 6.63,2.36 12.13,5.85 16.51,10.4 4.38,4.59 6.57,10.83 6.57,18.7 0,5.79 -1.14,10.65 -3.43,14.68 -2.26,3.98 -5.33,7.26 -9.14,9.84 -3.84,2.57 -8.22,4.55 -13.19,5.93 -4.97,1.34 -10.16,2.36 -15.62,3.06 -5.43,0.67 -10.91,1.06 -16.42,1.17 -5.5,0.1 -10.68,0.18 -15.62,0.18 -7.26,0 -14.93,-0.29 -22.86,-0.78 -7.98,-0.53 -15.28,-1.98 -21.88,-4.27 -6.66,-2.33 -12.12,-5.82 -16.44,-10.58 -4.3,-4.73 -6.44,-11.26 -6.44,-19.55zm10.41 0.96c0,4.19 1.04,7.69 3.14,10.47 2.07,2.79 4.78,5.08 8.13,6.85 3.36,1.8 7.21,3.14 11.51,4.05 4.31,0.89 8.67,1.52 13.08,1.87 4.46,0.39 8.76,0.6 12.92,0.64 4.2,0.07 7.9,0.07 11.15,0.07 3.21,0 6.98,0 11.29,-0.07 4.31,-0.04 8.67,-0.32 13.12,-0.78 4.4,-0.49 8.79,-1.2 13.09,-2.22 4.3,-0.99 8.15,-2.4 11.56,-4.27 3.43,-1.83 6.15,-4.2 8.15,-7.09 2.06,-2.89 3.08,-6.42 3.08,-10.62 0,-4.02 -1.02,-7.37 -3.08,-10.09 -2,-2.75 -4.68,-4.97 -7.97,-6.7 -3.28,-1.76 -7.02,-3.1 -11.21,-4.13 -4.16,-0.99 -8.46,-1.69 -12.81,-2.11 -4.37,-0.43 -8.65,-0.67 -12.84,-0.78 -4.2,-0.11 -7.9,-0.18 -11.15,-0.18 -3.46,0 -7.38,0.04 -11.75,0.07 -4.36,0.07 -8.77,0.29 -13.25,0.64 -4.49,0.35 -8.94,1.06 -13.3,2.04 -4.35,1.03 -8.23,2.44 -11.59,4.27 -3.35,1.84 -6.06,4.24 -8.13,7.16 -2.1,2.97 -3.14,6.6 -3.14,10.91z"/>
   <path class="fil0" d="M1694.51 932.6c-5.75,0.11 -11.55,-0.46 -17.32,-1.73 -5.79,-1.27 -11.04,-3.28 -15.7,-5.99 -4.66,-2.75 -8.47,-6.25 -11.41,-10.48 -2.92,-4.27 -4.41,-9.35 -4.41,-15.24 0,-5.68 1.2,-10.48 3.5,-14.43 2.36,-3.92 5.5,-7.16 9.42,-9.67 3.95,-2.54 8.51,-4.48 13.59,-5.85 5.08,-1.38 10.36,-2.37 15.86,-3 5.51,-0.64 11.01,-0.99 16.51,-1.09 5.51,-0.11 10.66,-0.18 15.42,-0.18 4.7,0 9.56,0.14 14.64,0.42 5.08,0.25 10.05,0.78 14.97,1.56 4.9,0.81 9.58,1.94 14.11,3.49 4.48,1.51 8.42,3.56 11.81,6.14 3.43,2.57 6.14,5.71 8.19,9.45 2.04,3.74 3.03,8.22 3.03,13.48 0,5.36 -1.09,10.05 -3.31,14.04 -2.23,4.02 -5.22,7.34 -9.07,10.02 -3.81,2.68 -8.29,4.69 -13.37,6.06 -5.08,1.38 -10.48,2.05 -16.24,2.05l0 -10.23c3.97,-0.21 7.84,-0.74 11.69,-1.59 3.81,-0.84 7.2,-2.11 10.12,-3.84 2.92,-1.77 5.3,-3.99 7.09,-6.71 1.8,-2.75 2.69,-6.1 2.69,-10.12 0,-4.2 -1.03,-7.69 -3.14,-10.48 -2.09,-2.79 -4.81,-5.08 -8.15,-6.84 -3.35,-1.8 -7.16,-3.14 -11.41,-4.02 -4.26,-0.92 -8.56,-1.56 -12.91,-1.91 -4.36,-0.39 -8.64,-0.56 -12.76,-0.63 -4.1,-0.04 -7.66,-0.07 -10.65,-0.07 -3.46,0 -7.42,0.03 -11.76,0.07 -4.37,0.07 -8.81,0.24 -13.29,0.63 -4.49,0.35 -8.89,1.06 -13.27,2.05 -4.37,0.99 -8.22,2.43 -11.56,4.27 -3.37,1.83 -6.07,4.23 -8.16,7.16 -2.12,2.96 -3.17,6.56 -3.17,10.9 0,4.41 1.23,8.01 3.71,10.79 2.42,2.79 5.52,4.98 9.31,6.64 3.76,1.62 7.9,2.78 12.38,3.45 4.48,0.67 8.81,1.06 13.02,1.2l0 10.23z"/>
   <polygon class="fil0" points="1648.92,1000.49 1783.47,1000.49 1783.47,990.22 1648.92,990.22 "/>
   <path class="fil0" d="M1783.49 1099.51l-134.58 31.67 0 -10.4 41.45 -9.28 0 -35.95 -41.45 -9.63 0 -9.95 134.58 31.72 0 11.82zm-82.73 9.77l68.02 -15.6 0 -0.31 -68.02 -15.63 0 31.54z"/>
   <polygon class="fil0" points="1773.09,1179.38 1783.51,1179.38 1783.51,1243.27 1773.09,1243.27 1773.09,1216.46 1648.91,1216.46 1648.91,1206.19 1773.09,1206.19 "/>
   <polygon class="fil0" points="1648.92,1299.68 1783.47,1299.68 1783.47,1289.41 1648.92,1289.41 "/>
   <path class="fil0" d="M1645.7 1398.7c0,-5.68 1.16,-10.48 3.49,-14.43 2.32,-3.95 5.47,-7.16 9.41,-9.7 3.96,-2.5 8.47,-4.48 13.55,-5.93 5.08,-1.41 10.38,-2.43 15.88,-3.07 5.51,-0.63 11.01,-0.98 16.51,-1.09 5.51,-0.11 10.65,-0.14 15.44,-0.14 6.93,0 14.3,0.32 22.06,1.02 7.8,0.67 15,2.19 21.62,4.55 6.63,2.37 12.13,5.86 16.51,10.41 4.38,4.59 6.57,10.8 6.57,18.7 0,5.78 -1.14,10.65 -3.43,14.67 -2.26,3.99 -5.33,7.27 -9.14,9.85 -3.84,2.57 -8.22,4.55 -13.19,5.92 -4.97,1.34 -10.16,2.37 -15.62,3.07 -5.43,0.67 -10.91,1.06 -16.42,1.17 -5.5,0.1 -10.68,0.17 -15.62,0.17 -7.26,0 -14.93,-0.28 -22.86,-0.77 -7.98,-0.53 -15.28,-1.98 -21.88,-4.27 -6.66,-2.33 -12.12,-5.82 -16.44,-10.59 -4.3,-4.72 -6.44,-11.25 -6.44,-19.54zm10.41 0.95c0,4.2 1.04,7.69 3.14,10.48 2.07,2.79 4.78,5.08 8.13,6.84 3.36,1.8 7.21,3.14 11.51,4.06 4.31,0.88 8.67,1.52 13.08,1.87 4.46,0.39 8.76,0.56 12.92,0.64 4.2,0.07 7.9,0.07 11.15,0.07 3.21,0 6.98,0 11.29,-0.07 4.31,-0.08 8.67,-0.32 13.12,-0.78 4.4,-0.49 8.79,-1.2 13.09,-2.22 4.3,-0.99 8.15,-2.4 11.56,-4.27 3.43,-1.84 6.15,-4.2 8.15,-7.09 2.06,-2.9 3.08,-6.42 3.08,-10.62 0,-4.02 -1.02,-7.37 -3.08,-10.09 -2,-2.75 -4.68,-4.97 -7.97,-6.7 -3.28,-1.77 -7.02,-3.11 -11.21,-4.13 -4.16,-0.99 -8.46,-1.69 -12.81,-2.12 -4.37,-0.42 -8.65,-0.67 -12.84,-0.77 -4.2,-0.14 -7.9,-0.18 -11.15,-0.18 -3.46,0 -7.38,0.04 -11.75,0.07 -4.36,0.07 -8.77,0.28 -13.25,0.64 -4.49,0.35 -8.94,1.05 -13.3,2.04 -4.35,1.02 -8.23,2.44 -11.59,4.27 -3.35,1.83 -6.06,4.23 -8.13,7.16 -2.1,2.96 -3.14,6.6 -3.14,10.9z"/>
   <polygon class="fil0" points="1667.94,1548.59 1667.94,1548.91 1783.51,1548.91 1783.51,1559.17 1648.92,1559.17 1648.92,1546.72 1764.13,1502.87 1764.13,1502.55 1648.92,1502.55 1648.92,1492.29 1783.51,1492.29 1783.51,1505.06 "/>
   <path class="fil0" d="M209.41 1523.17l134.59 -31.68 0 10.41 -41.46 9.28 0 35.95 41.46 9.63 0 9.95 -134.59 -31.72 0 -11.82zm82.73 -9.77l-68.01 15.59 0 0.32 68.01 15.63 0 -31.54z"/>
   <path class="fil0" d="M270.6 1406.32c2.05,-4.3 4.05,-8.33 6.11,-12.07 2,-3.73 4.43,-6.94 7.26,-9.63 2.78,-2.68 6.22,-4.76 10.23,-6.31 3.98,-1.52 9.06,-2.26 15.17,-2.26 5.72,0 10.94,0.78 15.6,2.37 4.65,1.55 8.64,3.84 11.91,6.77 3.33,2.93 5.87,6.52 7.67,10.72 1.76,4.2 2.67,8.89 2.67,14.04 0,5.37 -1.02,10.09 -3.07,14.19 -2.01,4.09 -4.9,7.54 -8.6,10.33 -3.7,2.79 -8.09,4.83 -13.1,6.14 -5.04,1.31 -10.54,1.94 -16.51,1.83l0 -10.09c4.17,0 8.15,-0.42 11.94,-1.19 3.76,-0.78 7.04,-2.05 9.87,-3.78 2.83,-1.73 5.02,-4.02 6.64,-6.88 1.62,-2.82 2.43,-6.28 2.43,-10.41 0,-7.23 -2.43,-13.01 -7.26,-17.35 -4.88,-4.31 -11.48,-6.46 -19.83,-6.46 -5.06,0 -9.14,0.74 -12.32,2.22 -3.14,1.49 -5.75,3.43 -7.8,5.93 -2.04,2.47 -3.73,5.29 -5.1,8.5 -1.39,3.21 -2.84,6.49 -4.42,9.85 -1.76,3.98 -3.7,7.65 -5.72,10.97 -2.04,3.31 -4.48,6.17 -7.27,8.6 -2.81,2.4 -6.12,4.31 -9.98,5.65 -3.81,1.38 -8.42,2.05 -13.79,2.05 -5.51,0 -10.54,-0.67 -15.1,-2.12 -4.51,-1.41 -8.43,-3.42 -11.75,-6.07 -3.27,-2.61 -5.81,-5.82 -7.62,-9.63 -1.8,-3.77 -2.67,-8.08 -2.67,-12.91 0,-4.62 0.85,-8.82 2.56,-12.53 1.78,-3.73 4.21,-6.94 7.38,-9.63 3.18,-2.68 6.95,-4.69 11.33,-6.06 4.33,-1.38 9.16,-2.01 14.42,-1.91l0 9.95c-7.55,-0.32 -13.65,1.34 -18.31,4.97 -4.66,3.6 -6.98,8.75 -6.98,15.35 0,3.39 0.67,6.31 1.98,8.85 1.3,2.51 3.14,4.66 5.46,6.39 2.34,1.73 5.08,3 8.25,3.84 3.18,0.85 6.61,1.27 10.32,1.27 3.34,0 6.23,-0.24 8.59,-0.77 2.41,-0.53 4.53,-1.34 6.33,-2.47 1.76,-1.09 3.34,-2.58 4.73,-4.41 1.37,-1.83 2.71,-4.06 4.05,-6.7l4.3 -9.14z"/>
   <path class="fil0" d="M270.6 1286.47c2.05,-4.31 4.05,-8.33 6.11,-12.07 2,-3.74 4.43,-6.95 7.26,-9.63 2.78,-2.68 6.22,-4.76 10.23,-6.31 3.98,-1.52 9.06,-2.26 15.17,-2.26 5.72,0 10.94,0.77 15.6,2.36 4.65,1.55 8.64,3.85 11.91,6.78 3.33,2.92 5.87,6.52 7.67,10.72 1.76,4.2 2.67,8.89 2.67,14.04 0,5.36 -1.02,10.09 -3.07,14.18 -2.01,4.09 -4.9,7.55 -8.6,10.34 -3.7,2.79 -8.09,4.83 -13.1,6.14 -5.04,1.34 -10.54,1.94 -16.51,1.83l0 -10.09c4.17,0 8.15,-0.42 11.94,-1.2 3.76,-0.77 7.04,-2.04 9.87,-3.77 2.83,-1.73 5.02,-4.02 6.64,-6.88 1.62,-2.82 2.43,-6.28 2.43,-10.41 0,-7.23 -2.43,-13.02 -7.26,-17.35 -4.88,-4.31 -11.48,-6.46 -19.83,-6.46 -5.06,0 -9.14,0.74 -12.32,2.22 -3.14,1.48 -5.75,3.46 -7.8,5.93 -2.04,2.47 -3.73,5.29 -5.1,8.5 -1.39,3.21 -2.84,6.49 -4.42,9.84 -1.76,4.02 -3.7,7.66 -5.72,10.97 -2.04,3.32 -4.48,6.18 -7.27,8.61 -2.81,2.4 -6.12,4.31 -9.98,5.65 -3.81,1.37 -8.42,2.08 -13.79,2.08 -5.51,0 -10.54,-0.71 -15.1,-2.15 -4.51,-1.42 -8.43,-3.43 -11.75,-6.07 -3.27,-2.61 -5.81,-5.82 -7.62,-9.63 -1.8,-3.78 -2.67,-8.08 -2.67,-12.91 0,-4.63 0.85,-8.82 2.56,-12.53 1.78,-3.74 4.21,-6.95 7.38,-9.63 3.18,-2.68 6.95,-4.69 11.33,-6.07 4.33,-1.37 9.16,-2.01 14.42,-1.9l0 9.95c-7.55,-0.32 -13.65,1.34 -18.31,4.97 -4.66,3.6 -6.98,8.75 -6.98,15.35 0,3.38 0.67,6.31 1.98,8.85 1.3,2.51 3.14,4.66 5.46,6.39 2.34,1.73 5.08,3 8.25,3.84 3.18,0.85 6.61,1.27 10.32,1.27 3.34,0 6.23,-0.24 8.59,-0.77 2.41,-0.53 4.53,-1.34 6.33,-2.47 1.76,-1.1 3.34,-2.58 4.73,-4.41 1.37,-1.84 2.71,-4.06 4.05,-6.71l4.3 -9.13z"/>
   <path class="fil0" d="M347.22 1168.81c0,5.68 -1.17,10.48 -3.5,14.43 -2.32,3.95 -5.46,7.16 -9.42,9.7 -3.95,2.5 -8.47,4.48 -13.55,5.93 -5.08,1.41 -10.36,2.43 -15.86,3.06 -5.51,0.64 -11.01,0.99 -16.51,1.1 -5.51,0.1 -10.66,0.14 -15.47,0.14 -6.91,0 -14.28,-0.32 -22.03,-1.02 -7.8,-0.67 -15,-2.19 -21.64,-4.55 -6.62,-2.37 -12.14,-5.86 -16.51,-10.41 -4.36,-4.59 -6.55,-10.8 -6.55,-18.7 0,-5.78 1.12,-10.65 3.41,-14.67 2.27,-3.99 5.33,-7.27 9.14,-9.85 3.85,-2.57 8.22,-4.55 13.2,-5.92 4.98,-1.34 10.16,-2.37 15.63,-3.07 5.43,-0.67 10.89,-1.06 16.39,-1.17 5.51,-0.1 10.7,-0.17 15.64,-0.17 7.27,0 14.91,0.28 22.86,0.77 7.96,0.53 15.27,1.98 21.86,4.27 6.68,2.33 12.15,5.82 16.44,10.58 4.31,4.73 6.47,11.26 6.47,19.55zm-10.41 -0.95c0,-4.2 -1.07,-7.69 -3.14,-10.48 -2.09,-2.79 -4.81,-5.08 -8.16,-6.85 -3.34,-1.79 -7.19,-3.13 -11.49,-4.05 -4.3,-0.88 -8.69,-1.52 -13.1,-1.87 -4.44,-0.39 -8.73,-0.57 -12.9,-0.64 -4.2,-0.07 -7.91,-0.07 -11.15,-0.07 -3.21,0 -6.99,0 -11.29,0.07 -4.3,0.07 -8.67,0.32 -13.12,0.78 -4.42,0.49 -8.78,1.2 -13.09,2.22 -4.31,0.99 -8.14,2.4 -11.58,4.27 -3.41,1.83 -6.12,4.2 -8.15,7.09 -2.03,2.89 -3.05,6.42 -3.05,10.62 0,4.02 1.02,7.37 3.05,10.09 2.03,2.75 4.7,4.97 7.98,6.7 3.29,1.77 7.02,3.11 11.23,4.13 4.16,0.99 8.46,1.69 12.8,2.12 4.37,0.42 8.63,0.67 12.84,0.77 4.19,0.14 7.9,0.18 11.14,0.18 3.46,0 7.37,-0.04 11.76,-0.07 4.37,-0.07 8.78,-0.28 13.26,-0.64 4.48,-0.35 8.92,-1.06 13.3,-2.04 4.34,-1.03 8.22,-2.44 11.56,-4.27 3.35,-1.84 6.07,-4.23 8.16,-7.16 2.07,-2.97 3.14,-6.6 3.14,-10.9z"/>
   <path class="fil0" d="M298.41 1012.51c5.75,-0.1 11.54,0.46 17.31,1.73 5.8,1.27 11.06,3.28 15.71,6 4.66,2.72 8.47,6.24 11.39,10.48 2.93,4.27 4.41,9.35 4.41,15.2 0,5.68 -1.2,10.51 -3.52,14.47 -2.34,3.91 -5.48,7.16 -9.39,9.66 -3.96,2.54 -8.51,4.48 -13.59,5.86 -5.08,1.34 -10.36,2.36 -15.86,3 -5.52,0.63 -11.01,0.98 -16.51,1.09 -5.52,0.11 -10.67,0.14 -15.42,0.14 -4.7,0 -9.56,-0.1 -14.64,-0.39 -5.08,-0.24 -10.06,-0.77 -14.97,-1.55 -4.9,-0.81 -9.58,-1.97 -14.1,-3.49 -4.48,-1.52 -8.44,-3.56 -11.83,-6.14 -3.41,-2.57 -6.13,-5.71 -8.18,-9.45 -2.05,-3.74 -3.03,-8.22 -3.03,-13.48 0,-5.36 1.09,-10.05 3.32,-14.04 2.21,-4.02 5.21,-7.34 9.07,-10.02 3.81,-2.68 8.29,-4.69 13.37,-6.07 5.08,-1.37 10.47,-2.04 16.22,-2.04l0 10.23c-3.94,0.21 -7.83,0.74 -11.68,1.58 -3.81,0.85 -7.2,2.12 -10.12,3.85 -2.93,1.76 -5.3,3.99 -7.1,6.7 -1.79,2.75 -2.68,6.11 -2.68,10.09 0,4.24 1.03,7.73 3.15,10.51 2.07,2.79 4.79,5.05 8.15,6.85 3.34,1.8 7.15,3.14 11.39,4.02 4.28,0.88 8.58,1.52 12.92,1.91 4.37,0.35 8.64,0.56 12.77,0.63 4.08,0.04 7.64,0.07 10.65,0.07 3.45,0 7.4,-0.03 11.74,-0.07 4.37,-0.07 8.82,-0.28 13.3,-0.63 4.48,-0.39 8.89,-1.06 13.26,-2.05 4.39,-1.02 8.22,-2.43 11.59,-4.27 3.34,-1.83 6.05,-4.23 8.13,-7.16 2.13,-2.96 3.18,-6.6 3.18,-10.9 0,-4.41 -1.23,-8.01 -3.69,-10.8 -2.44,-2.78 -5.55,-5.01 -9.32,-6.63 -3.78,-1.62 -7.91,-2.79 -12.39,-3.46 -4.48,-0.67 -8.82,-1.05 -13.01,-1.2l0 -10.23z"/>
   <polygon class="fil0" points="209.41,950.46 344,950.46 344,940.2 209.41,940.2 "/>
   <path class="fil0" d="M209.41 841.19l134.59 -31.68 0 10.41 -41.46 9.28 0 35.94 41.46 9.64 0 9.94 -134.59 -31.71 0 -11.82zm82.73 -9.77l-68.01 15.59 0 0.32 68.01 15.63 0 -31.54z"/>
   <polygon class="fil0" points="219.81,771.55 209.4,771.55 209.4,707.66 219.81,707.66 219.81,734.48 343.98,734.48 343.98,744.74 219.81,744.74 "/>
   <polygon class="fil0" points="209.41,651.24 344,651.24 344,640.97 209.41,640.97 "/>
   <path class="fil0" d="M347.22 546.96c0,5.68 -1.17,10.47 -3.5,14.43 -2.32,3.95 -5.46,7.16 -9.42,9.7 -3.95,2.5 -8.47,4.48 -13.55,5.92 -5.08,1.41 -10.36,2.44 -15.86,3.07 -5.51,0.64 -11.01,0.99 -16.51,1.1 -5.51,0.1 -10.66,0.14 -15.47,0.14 -6.91,0 -14.28,-0.32 -22.03,-1.03 -7.8,-0.67 -15,-2.18 -21.64,-4.55 -6.62,-2.36 -12.14,-5.85 -16.51,-10.4 -4.36,-4.59 -6.55,-10.83 -6.55,-18.7 0,-5.79 1.12,-10.65 3.41,-14.68 2.27,-3.98 5.33,-7.26 9.14,-9.84 3.85,-2.57 8.22,-4.55 13.2,-5.93 4.98,-1.34 10.16,-2.36 15.63,-3.06 5.43,-0.67 10.89,-1.06 16.39,-1.17 5.51,-0.1 10.7,-0.18 15.64,-0.18 7.27,0 14.91,0.29 22.86,0.78 7.96,0.53 15.27,1.98 21.86,4.27 6.68,2.33 12.15,5.82 16.44,10.58 4.31,4.73 6.47,11.26 6.47,19.55zm-10.41 -0.96c0,-4.19 -1.07,-7.69 -3.14,-10.47 -2.09,-2.79 -4.81,-5.08 -8.16,-6.85 -3.34,-1.8 -7.19,-3.14 -11.49,-4.05 -4.3,-0.89 -8.69,-1.52 -13.1,-1.87 -4.44,-0.39 -8.73,-0.6 -12.9,-0.64 -4.2,-0.07 -7.91,-0.07 -11.15,-0.07 -3.21,0 -6.99,0 -11.29,0.07 -4.3,0.04 -8.67,0.32 -13.12,0.78 -4.42,0.49 -8.78,1.2 -13.09,2.22 -4.31,0.99 -8.14,2.4 -11.58,4.27 -3.41,1.83 -6.12,4.2 -8.15,7.09 -2.03,2.89 -3.05,6.42 -3.05,10.62 0,4.02 1.02,7.37 3.05,10.09 2.03,2.75 4.7,4.97 7.98,6.7 3.29,1.76 7.02,3.1 11.23,4.13 4.16,0.99 8.46,1.69 12.8,2.11 4.37,0.43 8.63,0.67 12.84,0.78 4.19,0.11 7.9,0.18 11.14,0.18 3.46,0 7.37,-0.04 11.76,-0.07 4.37,-0.07 8.78,-0.29 13.26,-0.64 4.48,-0.39 8.92,-1.06 13.3,-2.04 4.34,-1.03 8.22,-2.44 11.56,-4.27 3.35,-1.84 6.07,-4.24 8.16,-7.16 2.07,-2.97 3.14,-6.6 3.14,-10.91z"/>
   <polygon class="fil0" points="324.97,392.1 324.97,391.79 209.4,391.79 209.4,381.52 343.98,381.52 343.98,393.97 228.76,437.82 228.76,438.14 343.98,438.14 343.98,448.41 209.4,448.41 209.4,435.64 "/>
   <path class="fil0" d="M620.27 1798.23l0 34.96 -71.05 0 -15.55 -0.14c-15.84,0 -26.72,-0.21 -32.64,-0.71 -5.93,-0.49 -12.95,-1.65 -21.1,-3.59 -21.26,-5.08 -36.85,-17.64 -46.77,-37.72 -7.58,-15.34 -11.37,-33.72 -11.37,-55.13 0,-37.33 8.96,-64 26.92,-80.01 15.35,-13.66 37.57,-20.47 66.6,-20.47 19.21,0 35.85,3.36 49.99,10.09 8.96,4.24 16.27,9.49 21.89,15.84 5.57,6.32 10.11,14.47 13.65,24.45 5.57,15.56 8.31,31.5 8.31,47.8 0,25.16 -7.04,46.67 -21.23,64.63l32.35 0zm-104.67 -129.72c-16.64,0 -28.99,5.26 -37.12,15.74 -8.07,10.44 -12.12,26.42 -12.12,47.91 0,18.73 2.6,33.79 7.9,45.19 7.12,15.27 20.95,22.89 41.49,22.89 19.37,0 32.74,-6.95 40.11,-20.88 5.75,-10.73 8.6,-26.21 8.6,-46.46 0,-18.35 -3.45,-33.31 -10.41,-44.95 -7.75,-12.84 -20.56,-19.33 -38.45,-19.44z"/>
   <path class="fil0" d="M666.28 1778.91c0,8.33 1.79,14.47 5.35,18.49 3.61,3.99 9.07,5.96 16.49,5.96 9.31,0 16.46,-2.82 21.48,-8.47 4.97,-5.64 7.48,-13.82 7.48,-24.48l0 -76.52 17.85 0 17.96 0 0 135.82 -16.98 0 -17.06 0 0 -20.35c-1.27,2.5 -2.77,4.83 -4.53,6.98 -8.82,11.26 -21.59,16.87 -38.3,16.87 -14.32,0 -25.47,-4.24 -33.53,-12.67 -8.03,-8.43 -12.02,-20.14 -12.02,-35.14l0 -91.51 17.86 0 17.95 0 0 85.02z"/>
   <path class="fil0" d="M820.58 1835.01c-12.55,0 -22.69,-3.6 -30.33,-10.79 -7.66,-7.2 -11.47,-16.65 -11.47,-28.4 0,-12.38 3.45,-22.33 10.34,-29.78 6.9,-7.44 17,-12.13 30.23,-14.04l23.56 -3.24c6.18,-0.81 11.29,-2.22 15.39,-4.24 1.72,-0.84 3.07,-2.32 4.06,-4.48 0.95,-2.18 1.29,-4.37 1.04,-6.63 -0.52,-3.81 -2.47,-6.81 -5.88,-8.99 -4.05,-2.58 -9.96,-3.85 -17.6,-3.85 -6.82,0 -12.15,1.66 -15.96,4.97 -3.83,3.32 -5.88,8.05 -6.13,14.12l-34.33 0c0.74,-15.91 6.17,-27.8 16.23,-35.71 10.06,-7.9 24.83,-11.85 44.31,-11.85 16.89,0 30.23,3.56 40.01,10.69 9.76,7.13 14.67,16.83 14.67,29.18l0 75.95c0,6.07 0.49,10.33 1.49,12.8 1.02,2.44 2.99,4.38 5.99,5.79l0 0.14 0 4.87 -19.34 0 -19.36 0 0 -0.11c-1.56,-5.5 -2.6,-10.86 -3.1,-16.12l-0.15 -0.25c-11.21,13.3 -25.78,19.97 -43.67,19.97zm43.07 -53.66l0 -15.62c-4.15,2.36 -9.66,4.23 -16.47,5.64l-13.23 2.51c-6.24,1.12 -11.01,3.28 -14.25,6.42 -3.24,3.1 -4.87,7.05 -4.87,11.78 0,5.4 1.45,9.66 4.37,12.73 2.94,3.07 6.99,4.63 12.25,4.63 11.46,0 20.63,-4.06 27.45,-12.1 1.34,-1.59 2.47,-3.92 3.38,-6.99 0.92,-3.1 1.37,-6.1 1.37,-9z"/>
   <polygon class="fil0" points="927.86,1637.39 945.71,1637.39 963.71,1637.39 963.71,1831.52 945.86,1831.52 927.86,1831.52 "/>
   <path class="fil0" d="M1026.06 1835.01c-12.57,0 -22.69,-3.6 -30.35,-10.79 -7.66,-7.2 -11.47,-16.65 -11.47,-28.4 0,-12.38 3.47,-22.33 10.34,-29.78 6.93,-7.44 17.01,-12.13 30.23,-14.04l23.57 -3.24c6.17,-0.81 11.3,-2.22 15.38,-4.24 1.74,-0.84 3.07,-2.32 4.03,-4.48 0.98,-2.18 1.34,-4.37 1.05,-6.63 -0.49,-3.81 -2.43,-6.81 -5.86,-8.99 -4.05,-2.58 -9.94,-3.85 -17.6,-3.85 -6.8,0 -12.12,1.66 -15.98,4.97 -3.81,3.32 -5.86,8.05 -6.1,14.12l-34.32 0c0.78,-15.91 6.18,-27.8 16.22,-35.71 10.1,-7.9 24.84,-11.85 44.32,-11.85 16.89,0 30.23,3.56 39.99,10.69 9.79,7.13 14.69,16.83 14.69,29.18l0 75.95c0,6.07 0.49,10.33 1.47,12.8 1.02,2.44 3.01,4.38 6.01,5.79l0 0.14 0 4.87 -19.33 0 -19.37 0 0 -0.11c-1.6,-5.5 -2.62,-10.86 -3.12,-16.12l-0.13 -0.25c-11.23,13.3 -25.8,19.97 -43.67,19.97zm43.07 -53.66l0 -15.62c-4.17,2.36 -9.67,4.23 -16.47,5.64l-13.28 2.51c-6.2,1.12 -10.96,3.28 -14.21,6.42 -3.24,3.1 -4.86,7.05 -4.86,11.78 0,5.4 1.44,9.66 4.37,12.73 2.92,3.07 6.99,4.63 12.23,4.63 11.47,0 20.65,-4.06 27.45,-12.1 1.34,-1.59 2.47,-3.92 3.39,-6.99 0.91,-3.1 1.38,-6.1 1.38,-9z"/>
   <path class="fil0" d="M1135.65 1695.71l16.97 0 17.1 0 0 20.11c1.42,-2.43 2.96,-4.69 4.63,-6.88 8.82,-11.22 21.61,-16.82 38.45,-16.82 14.29,0 25.5,4.23 33.62,12.7 8.12,8.5 12.17,20.28 12.17,35.34l0 91.34 -17.85 0 -17.95 0 0 -84.84c0,-8.44 -1.85,-14.65 -5.44,-18.67 -3.63,-4.05 -9.18,-6.06 -16.69,-6.06 -9.38,0 -16.62,2.82 -21.63,8.5 -5.04,5.64 -7.54,13.79 -7.54,24.44l0 76.63 -17.88 0 -17.96 0 0 -135.79z"/>
   <path class="fil0" d="M1300.51 1815.92c-12.52,-12.74 -18.76,-29.92 -18.76,-51.54 0,-22.16 6.24,-39.72 18.76,-52.74 12.52,-13.02 29.39,-19.55 50.62,-19.55 21.39,0 38.32,6.53 50.8,19.55 12.5,13.02 18.74,30.58 18.74,52.74 0,21.62 -6.24,38.8 -18.74,51.54 -12.48,12.73 -29.41,19.08 -50.8,19.08 -21.23,0 -38.1,-6.35 -50.62,-19.08zm74.97 -21.34c5.58,-6.99 8.36,-17.18 8.36,-30.59 0,-13.72 -2.78,-24.16 -8.36,-31.26 -5.57,-7.12 -13.69,-10.68 -24.35,-10.68 -10.65,0 -18.73,3.56 -24.26,10.68 -5.55,7.1 -8.33,17.54 -8.33,31.26 0,13.41 2.78,23.6 8.33,30.59 5.53,6.98 13.61,10.47 24.26,10.47 10.66,0 18.78,-3.49 24.35,-10.47z"/>
   <path class="fil0" d="M1499.53 1835.01c-17.33,0 -31.26,-6.74 -41.88,-20.21 -10.61,-13.48 -15.91,-31.26 -15.91,-53.31 0,-20.78 5.3,-37.57 15.84,-50.3 10.58,-12.74 24.48,-19.09 41.71,-19.09 15.37,0 27.78,6.49 37.18,19.47l1.51 1.98 0 -76.16 17.86 0 17.95 0 0 194.13 -17.35 0 -17.36 0 0 -17.36 -0.6 0.88c-9.92,13.3 -22.91,19.97 -38.95,19.97zm9.6 -111.97c-9.57,0 -17.04,3.7 -22.48,11.08 -5.39,7.34 -8.08,17.57 -8.08,30.62 0,12.8 2.64,22.82 8.04,30.02 5.37,7.2 12.85,10.79 22.41,10.79 9.63,0 17.18,-3.77 22.57,-11.35 5.4,-7.55 8.11,-18.1 8.11,-31.58 0,-12.42 -2.71,-22.08 -8.11,-29.07 -5.39,-7.02 -12.88,-10.51 -22.46,-10.51z"/>
   <path class="fil0" d="M35.41 1520.05l134.57 -31.68 0 10.41 -41.44 9.27 0 35.95 41.44 9.63 0 9.95 -134.57 -31.71 0 -11.82zm82.72 -9.77l-68.02 15.59 0 0.32 68.02 15.62 0 -31.53z"/>
   <polygon class="fil0" points="169.97,1411.21 35.39,1411.21 35.39,1400.98 159.56,1400.98 159.56,1357.12 169.97,1357.12 "/>
   <path class="fil0" d="M35.41 1292.28l0 -10.27 97.61 0c4.76,0 9.02,-0.28 12.72,-0.85 3.72,-0.59 6.81,-1.65 9.33,-3.24 2.54,-1.59 4.43,-3.78 5.75,-6.63 1.34,-2.83 1.96,-6.46 1.96,-10.87 0,-4.62 -0.74,-8.39 -2.21,-11.36 -1.53,-2.93 -3.63,-5.22 -6.39,-6.84 -2.76,-1.66 -5.99,-2.79 -9.78,-3.42 -3.76,-0.6 -7.93,-0.92 -12.45,-0.92l-96.54 0 0 -10.27 93.66 0c6.6,0 12.55,0.5 17.94,1.48 5.37,1.03 10.02,2.76 13.9,5.23 3.88,2.47 6.93,5.78 9.07,9.94 2.16,4.17 3.21,9.42 3.21,15.84 0,11.36 -3.39,19.55 -10.12,24.59 -6.77,5.05 -16.29,7.59 -28.6,7.59l-99.06 0z"/>
   <polygon class="fil0" points="169.97,1132.05 169.97,1142.32 35.39,1142.32 35.39,1125.1 152.75,1097.06 152.75,1096.74 35.39,1068.02 35.39,1051.3 169.97,1051.3 169.97,1061.57 47.07,1061.57 47.07,1061.89 169.97,1091.2 169.97,1102.1 47.07,1131.74 47.07,1132.05 "/>
   <polygon class="fil0" points="35.39,965.21 169.97,965.21 169.97,954.94 35.39,954.94 "/>
   <polygon class="fil0" points="150.96,813.66 150.96,813.35 35.39,813.35 35.39,803.08 169.97,803.08 169.97,815.53 54.78,859.38 54.78,859.7 169.97,859.7 169.97,869.97 35.39,869.97 35.39,857.2 "/>
   <polygon class="fil0" points="35.39,717.95 169.97,717.95 169.97,707.68 35.39,707.68 "/>
   <path class="fil0" d="M35.41 621.58l0 -10.26 97.61 0c4.76,0 9.02,-0.28 12.72,-0.85 3.72,-0.6 6.81,-1.66 9.33,-3.24 2.54,-1.59 4.43,-3.78 5.75,-6.64 1.34,-2.82 1.96,-6.45 1.96,-10.86 0,-4.62 -0.74,-8.4 -2.21,-11.36 -1.53,-2.93 -3.63,-5.22 -6.39,-6.85 -2.76,-1.65 -5.99,-2.78 -9.78,-3.42 -3.76,-0.6 -7.93,-0.92 -12.45,-0.92l-96.54 0 0 -10.26 93.66 0c6.6,0 12.55,0.49 17.94,1.48 5.37,1.02 10.02,2.75 13.9,5.22 3.88,2.47 6.93,5.79 9.07,9.95 2.16,4.16 3.21,9.42 3.21,15.84 0,11.36 -3.39,19.54 -10.12,24.59 -6.77,5.04 -16.29,7.58 -28.6,7.58l-99.06 0z"/>
   <polygon class="fil0" points="169.97,464.11 169.97,474.38 35.39,474.38 35.39,457.16 152.75,429.12 152.75,428.8 35.39,400.08 35.39,383.36 169.97,383.36 169.97,393.63 47.07,393.63 47.07,393.95 169.97,423.26 169.97,434.16 47.07,463.8 47.07,464.11 "/>
   <polygon class="fil0" points="532.09,257.76 580.7,222.45 520.61,222.45 502.03,165.27 483.47,222.45 423.36,222.45 471.98,257.76 453.42,314.91 502.03,279.6 550.64,314.91 "/>
   <polygon class="fil0" points="712.79,257.76 761.4,222.45 701.32,222.45 682.74,165.27 664.18,222.45 604.06,222.45 652.68,257.76 634.12,314.91 682.74,279.6 731.35,314.91 "/>
   <polygon class="fil0" points="893.49,257.76 942.09,222.45 882.02,222.45 863.43,165.27 844.88,222.45 784.77,222.45 833.38,257.76 814.82,314.91 863.43,279.6 912.05,314.91 "/>
   <polygon class="fil1" points="426.45,722.96 542.62,399.32 644.18,399.32 635.13,424.37 553.03,424.37 511.16,540.86 585.62,540.86 576.6,565.9 502.16,565.9 454.71,697.95 537.86,697.95 528.79,722.96 "/>
   <path class="fil1" d="M670.59 399.33l19.41 0 -84.99 234.74c-4.16,11.5 -7.35,21.73 -9.49,30.62 -2.12,8.93 -2.8,16.41 -2.02,22.44 0.78,6.07 3.25,10.65 7.44,13.83 4.21,3.17 10.45,4.73 18.78,4.73 8.72,0 16.47,-1.77 23.31,-5.37 6.84,-3.6 13.03,-8.71 18.49,-15.34 5.46,-6.6 10.47,-14.43 14.95,-23.5 4.48,-9.06 8.73,-19.05 12.7,-29.98l84.47 -232.17 19.43 0 -82.08 225.25c-5.75,15.81 -11.93,30.2 -18.53,43.15 -6.59,12.94 -13.94,24.09 -21.98,33.44 -8.05,9.35 -16.94,16.62 -26.63,21.8 -9.71,5.15 -20.56,7.76 -32.64,7.76 -21.34,0 -33.82,-8.11 -37.43,-24.37 -3.63,-16.27 -0.07,-39.2 10.65,-68.83l86.16 -238.2z"/>
   <path class="fil1" d="M791.04 570.64l-55.68 152.33 -19.29 0 118.18 -323.64 43.33 0c10.16,0 18.97,1.23 26.56,3.67 7.58,2.43 13.23,6.84 16.96,13.16 3.79,6.35 5.36,14.81 4.83,25.47 -0.52,10.65 -3.81,24.16 -9.83,40.57 -2.82,7.76 -6.35,15.73 -10.58,23.92 -4.21,8.22 -8.97,15.91 -14.3,23.1 -5.33,7.2 -10.96,13.37 -16.93,18.56 -5.95,5.18 -12.23,8.61 -18.83,10.34l-0.32 0.88c5.71,2.29 9.63,5.82 11.75,10.58 2.12,4.73 2.99,10.48 2.56,17.25 -0.38,6.74 -1.83,14.43 -4.3,23.07 -2.47,8.65 -5.57,17.99 -9.27,28.05 -1.27,4.06 -3.38,10.09 -6.35,18.13 -2.96,8.04 -5.72,16.41 -8.29,25.01 -2.58,8.65 -4.58,16.62 -6,23.96 -1.42,7.33 -1.1,12.03 0.92,14.04l-1.42 3.88 -21.06 0c0.36,-6.92 1.81,-15.17 4.35,-24.84 2.56,-9.63 5.39,-19.47 8.49,-29.52 3.12,-10.09 6.21,-19.73 9.42,-28.93 3.19,-9.21 5.75,-16.83 7.8,-22.86 3.32,-10.66 4.65,-19.05 4.05,-25.26 -0.6,-6.18 -2.56,-10.83 -5.85,-14.01 -3.31,-3.17 -7.72,-5.11 -13.2,-5.82 -5.5,-0.74 -11.43,-1.09 -17.78,-1.09l-19.92 0zm9.14 -25.01l33.96 0c1.6,0 4.74,-0.53 9.49,-1.52 4.74,-1.02 10.06,-3.53 16.02,-7.55 5.92,-4.02 12.14,-10.16 18.62,-18.34 6.5,-8.22 12.39,-19.48 17.69,-33.87 4.3,-11.78 6.94,-21.59 7.94,-29.35 0.95,-7.76 0.35,-13.87 -1.81,-18.35 -2.16,-4.44 -5.72,-7.62 -10.69,-9.49 -4.97,-1.87 -11.26,-2.78 -18.83,-2.78l-28.05 0 -44.34 121.25z"/>
   <path class="fil1" d="M1051.54 399.33l-60 323.64 -19.59 0 19.4 -99.69 -67.79 0 -54.86 99.69 -18.67 0 179.12 -323.64 22.39 0zm-55.11 198.93l30.98 -163.54 -0.6 0 -89.86 163.54 59.48 0z"/>
   <path class="fil1" d="M1145.52 546.47c6.32,4.91 12.1,9.78 17.33,14.68 5.18,4.9 9.07,10.72 11.61,17.46 2.54,6.77 3.46,14.96 2.7,24.59 -0.74,9.67 -3.83,21.8 -9.3,36.48 -5.16,13.79 -11.33,26.31 -18.48,37.53 -7.18,11.22 -15,20.78 -23.51,28.72 -8.49,7.9 -17.49,14 -27.01,18.31 -9.53,4.34 -19.13,6.49 -28.83,6.49 -10.09,0 -18.07,-2.43 -23.95,-7.34 -5.9,-4.9 -9.81,-11.78 -11.75,-20.71 -1.95,-8.92 -1.91,-19.43 0.14,-31.5 1.98,-12.1 5.75,-25.29 11.29,-39.69l19.05 0c-3.78,10.06 -6.57,19.62 -8.44,28.68 -1.89,9.07 -2.47,16.97 -1.72,23.75 0.77,6.73 3.11,12.06 6.98,15.94 3.93,3.88 9.71,5.82 17.43,5.82 13.65,0 26.71,-5.82 39.17,-17.46 12.47,-11.64 22.46,-27.55 29.98,-47.7 4.51,-12.06 6.8,-21.9 6.87,-29.52 0.08,-7.62 -1.29,-13.9 -4.15,-18.77 -2.82,-4.9 -6.63,-9 -11.47,-12.31 -4.8,-3.32 -9.7,-6.85 -14.64,-10.59 -5.97,-4.3 -11.16,-8.89 -15.56,-13.79 -4.45,-4.9 -7.7,-10.72 -9.73,-17.46 -2.09,-6.78 -2.69,-14.75 -1.85,-23.96 0.85,-9.2 3.68,-20.28 8.47,-33.23 4.9,-13.23 10.73,-25.33 17.51,-36.26 6.73,-10.9 14.06,-20.36 21.97,-28.26 7.91,-7.9 16.27,-14.01 25.04,-18.35 8.79,-4.3 17.76,-6.45 26.92,-6.45 8.76,0 15.89,2.08 21.41,6.24 5.51,4.2 9.4,10.09 11.61,17.71 2.23,7.62 2.69,16.69 1.34,27.17 -1.34,10.51 -4.48,22.08 -9.41,34.74l-18.78 0c7.38,-18.13 9.72,-32.8 7.02,-44.02 -2.68,-11.22 -10.3,-16.83 -22.82,-16.83 -6.39,0 -12.52,1.59 -18.49,4.76 -5.95,3.18 -11.63,7.55 -17,13.16 -5.35,5.61 -10.27,12.24 -14.68,19.86 -4.44,7.62 -8.29,15.88 -11.59,24.8 -3.01,8.05 -5.08,14.96 -6.21,20.71 -1.17,5.75 -1.49,10.8 -1.03,15.1 0.49,4.3 1.83,8.15 4.1,11.43 2.25,3.32 5.25,6.56 9.06,9.7l13.4 10.37z"/>
   <path class="fil1" d="M1343.63 376.11l-139.6 402.38 60.29 0 -96.02 257.03 -0.22 0 9.2 -304.09 -37.84 0 -37.6 0 0.51 417.79 37.59 0 37.67 0 124.99 -329.99 0.07 0 -0.89 329.99 38.92 0 38.91 0 158.99 -417.79 -35.94 0 -33.59 0 7.59 -24.38 -179.32 0 34.92 -103.75 155.76 0 11.25 -35.84 11.15 -35.6 -154.09 0 28.4 -84.31 166.44 0 11.14 -35.84 11.07 -35.6 -229.75 0zm16.15 660.65l-2.25 -258.27 92.71 0 -90.46 258.27z"/>
   <path class="fil1" d="M1303.06 1156.79l-35.77 0 -35.53 0 -137.94 364.7 -0.83 -364.7 -35.78 0 -35.52 0 -155.04 409.89 26.09 0 25.93 0 29.56 -83.08 94.27 0 -2.02 83.08 26.75 0 9.52 0 17.18 0 8.94 0 25.89 0 29.56 -83.08 94.29 0 -2.05 83.08 26.74 0 26.74 0 -0.98 -409.89zm-327.77 254.03l64.81 -161.64 3.52 161.64 -68.33 0zm210.13 0l64.77 -161.64 3.56 161.64 -68.33 0z"/>
  </g>
 </g>
</svg>
