<?xml version="1.0" encoding="UTF-8"?>
<!DOCTYPE svg PUBLIC "-//W3C//DTD SVG 1.1//EN" "http://www.w3.org/Graphics/SVG/1.1/DTD/svg11.dtd">
<!-- Creator: CorelDRAW 2018 (64-Bit) -->
<svg xmlns="http://www.w3.org/2000/svg" xml:space="preserve" width="26.118mm" height="16mm" version="1.1" style="shape-rendering:geometricPrecision; text-rendering:geometricPrecision; image-rendering:optimizeQuality; fill-rule:evenodd; clip-rule:evenodd"
viewBox="0 0 2611.8 1600"
 xmlns:xlink="http://www.w3.org/1999/xlink">
 <defs>
  <style type="text/css">
   <![CDATA[
    .fil0 {fill:#00793F;fill-rule:nonzero}
    .fil1 {fill:#009D44;fill-rule:nonzero}
   ]]>
  </style>
 </defs>
 <g id="Слой_x0020_1">
  <metadata id="CorelCorpID_0Corel-Layer"/>
  <g id="_3080130486448">
   <polygon class="fil0" points="1189.13,1276.8 1140.76,1276.8 1140.76,1162.96 1305.26,1162.96 1305.26,1534.54 1189.13,1534.54 "/>
   <path class="fil0" d="M1514.95 1534.56l0 -74.62 -138.57 0 0 -98.24 121.57 -202.15 127.82 0 0 202.15 35.03 0 0 98.24 -35.03 0 0 74.62 -110.82 0zm-37.6 -172.86l46.22 0 0 -50.66c0,-9.88 0.18,-18.07 0.55,-24.59 0.4,-6.46 0.9,-12.28 1.67,-17.39 -2.22,6.66 -4.9,13.37 -8.08,20.1 -3.17,6.74 -7.86,15.56 -14.04,26.46l-26.32 46.08z"/>
   <path class="fil0" d="M1705.59 1349.83c0,-60.26 12.42,-107.67 37.25,-142.24 24.83,-34.57 58.85,-51.86 102.03,-51.86 43.45,0 77.49,17.14 102.09,51.47 24.66,34.33 36.94,81.84 36.94,142.63 0,60.78 -12.28,108.41 -36.94,142.91 -24.6,34.46 -58.64,51.72 -102.09,51.72 -43.04,0 -77.02,-17.43 -101.93,-52.25 -24.91,-34.82 -37.35,-82.27 -37.35,-142.38zm113.06 0.07c0,26.95 2.11,46.71 6.35,59.27 4.2,12.52 10.83,18.76 19.87,18.76 9.03,0 15.62,-6.17 19.74,-18.52 4.14,-12.38 6.22,-32.21 6.22,-59.51 0,-27.13 -2.08,-46.89 -6.22,-59.37 -4.12,-12.46 -10.71,-18.67 -19.74,-18.67 -9.18,0 -15.84,6.14 -20,18.42 -4.13,12.28 -6.22,32.17 -6.22,59.62z"/>
   <path class="fil0" d="M2033.63 1349.83c0,-60.26 12.41,-107.67 37.25,-142.24 24.84,-34.57 58.85,-51.86 102.03,-51.86 43.46,0 77.51,17.14 102.09,51.47 24.67,34.33 36.94,81.84 36.94,142.63 0,60.78 -12.27,108.41 -36.94,142.91 -24.58,34.46 -58.63,51.72 -102.09,51.72 -43.05,0 -77.01,-17.43 -101.91,-52.25 -24.91,-34.82 -37.37,-82.27 -37.37,-142.38zm113.07 0.07c0,26.95 2.12,46.71 6.35,59.27 4.19,12.52 10.83,18.76 19.86,18.76 9.02,0 15.62,-6.17 19.76,-18.52 4.13,-12.38 6.2,-32.21 6.2,-59.51 0,-27.13 -2.07,-46.89 -6.2,-59.37 -4.14,-12.46 -10.74,-18.67 -19.76,-18.67 -9.18,0 -15.85,6.14 -20.01,18.42 -4.12,12.28 -6.2,32.17 -6.2,59.62z"/>
   <polygon class="fil0" points="2410.87,1276.8 2362.5,1276.8 2362.5,1162.96 2527,1162.96 2527,1534.54 2410.87,1534.54 "/>
   <path class="fil1" d="M41.79 694.12c-13.83,-23.49 -26.03,-44.73 -36.76,-63.5l0 82.91c8.33,-3.92 16.16,-7.8 23.15,-11.57 4.17,-2.3 8.78,-4.94 13.61,-7.84zm312.96 -198.12c54.36,6.14 104.56,13.9 149.96,22.58 -26.59,-24.02 -57.37,-50.52 -92.88,-79.48 -17.83,19.05 -37.18,38.07 -57.08,56.9zm-238.45 -239.04c-41.8,-15.66 -79.37,-25.61 -111.27,-31.96l0 85.55c7,7.12 14.3,14.57 22.08,22.72 32.08,-21.52 63.76,-47.06 89.19,-76.31zm-63.5 103.33c33.73,35.98 71.76,78.42 108.69,123.4 50.73,0.81 99.21,3.42 145.06,7.48 -0.13,0 -0.24,-0.03 -0.35,-0.03 27.24,-24.81 53.38,-50.13 77.02,-75.15 -12.85,-10.23 -26.11,-20.6 -40.08,-31.36 -67.95,-52.17 -132.75,-88.05 -191.24,-113.28 -27.87,34.58 -63.23,64.32 -99.1,88.94zm-47.77 655.21l0 32.04c5.33,-1.8 10.91,-3.67 17.08,-5.82 -6,-8.58 -11.33,-17.47 -17.08,-26.22zm209.88 -50.58c0.07,0.1 0.14,0.21 0.2,0.31 -55.52,-77.96 -110.37,-165.52 -154.65,-239.67 -5.33,3.17 -10.27,5.99 -14.79,8.46 -11.74,6.39 -25.75,12.95 -40.64,19.51l0 192.12c16.56,28.26 33.91,56.27 53.14,83.26 42.82,-15.66 97.43,-37.22 156.74,-63.99zm-93.35 196.74c-27.45,-27.41 -52.85,-57.47 -76.63,-88.83 -15.59,5.4 -28.99,9.84 -39.9,13.37l0 196.82c45.52,-4.03 119.49,-14.47 203.02,-41.81 -26.84,-22.61 -55.52,-48.58 -86.49,-79.55zm41.3 166.19c48.87,0 96.5,-4.97 142.46,-14.25 -19.2,-12.24 -40.39,-27.2 -63.29,-44.91 -79.65,28.58 -152.36,41.91 -204.43,48.05 40.64,7.2 82.48,11.11 125.26,11.11zm330 -1086.76c-10.87,-7.02 -21.56,-14.08 -32.84,-20.96 -80.61,-49.14 -170.16,-71.26 -253.58,-79.02 -0.28,11.68 -1.97,24.16 -5.54,37.64 -5.79,21.87 -15.13,42.47 -27.07,61.81 58.86,26.24 123.63,62.9 191.57,115.11 14.81,11.39 28.92,22.44 42.51,33.23 41.97,-47.84 72.57,-93.24 81.1,-129.72 1.45,-6.21 2.65,-12.13 3.85,-18.09zm-345.44 894.75c36.65,36.65 70.23,66.57 100.71,91.15 45.37,-17.35 92.43,-40.11 138.55,-69.28 -18.95,-14.64 -36.28,-29.74 -51.58,-45.05 -30.87,-30.87 -64.17,-71.58 -97.73,-116.84l0.12 0.14c-58.58,26.6 -112.75,48.01 -156.53,64.03 20.81,26.81 42.93,52.32 66.46,75.85zm32.69 -1063.42c9.29,8.82 16.07,19.12 20.47,30.77 90.38,7.47 188.74,31.04 278.49,85.76 6.94,4.23 13.44,8.6 20.24,12.91 4.45,-35.28 4.7,-65.2 3,-89.18 -79.9,-43.5 -169.89,-71.9 -265.67,-81.74l-149.62 0c-20.56,2.15 -40.93,5.08 -60.89,8.92 65.68,-5.04 122.16,2.44 153.98,32.56zm-23.84 28.26c-0.53,-0.53 -0.78,-1.2 -1.31,-1.73 -23.73,-22.47 -76.22,-28.96 -149.93,-20.07l0 29.95c42.87,-5.72 94.69,-9.81 151.24,-8.15zm9.27 68.72c3.07,-11.6 4.07,-21.59 4.07,-30.83 -61.96,-2.86 -118.93,1.62 -164.58,7.8l0 40.71c37.79,7.02 83.4,18.87 134.67,39.01 11.56,-17.78 20.6,-36.69 25.84,-56.69zm-52.09 314.04c-31.69,-37.35 -63.55,-72.56 -92.02,-102.83 -5.53,3.39 -10.92,6.42 -16.4,9.56l0 96.98c37.08,-2.26 73.28,-3.46 108.52,-3.71l-0.1 0zm426.47 -348.82c0.35,25.4 -1.42,55.14 -6.77,88.9 85.29,57.15 156.59,118.28 213.85,183.23 3.27,-20.6 5.54,-39.72 6.95,-57.5 -53.21,-86.12 -126.57,-159.63 -214.03,-214.63zm-15.31 132.89c-9.89,42.19 -43.11,92.53 -88.23,144.43 57.35,46.74 102.47,87.2 137.79,121.18 53.16,12.2 97.05,24.69 130.68,35.34 6.37,-14.57 12.05,-29.35 16.21,-44.52 6.93,-24.97 12.5,-48.26 17.16,-70.27 -55.26,-67.7 -126.16,-131.41 -212.62,-190.78 -0.36,1.55 -0.61,3.03 -0.99,4.62zm-10.51 967.67c0.02,0.03 0.07,0.03 0.09,0.03 -34.38,-16.15 -66.67,-34.64 -95.92,-54.54 -45.25,29.99 -91.33,53.91 -136.09,72.5 28.07,20.64 52.8,36.34 74.04,48.15 55.96,-15.69 108.8,-38.2 157.88,-66.14zm242.21 -701.54c-4.34,15.84 -9.91,31.3 -16.3,46.43 -1.7,-0.56 -3.73,-1.23 -5.51,-1.83 9.36,3.21 17.82,6.17 24.42,8.64 13.9,5.15 28.9,12.28 44.32,20.5 0.67,-12.25 1.33,-24.49 1.33,-37.33l0 -20.71c-11.22,-19.61 -23.84,-38.87 -37.43,-57.89 -3.27,13.69 -6.81,27.63 -10.83,42.19zm48.26 -83.57c-6.14,-15.56 -12.94,-30.8 -20.25,-45.79 -1.9,12.63 -4.12,25.75 -6.78,39.41 9.54,12.17 18.45,24.51 27.03,36.93l0 -30.55z"/>
   <path class="fil1" d="M2248.64 408.9l-16.89 0 0 22.86 17.89 0c6.28,0 10.59,-0.85 12.97,-2.54 2.4,-1.7 3.57,-4.63 3.57,-8.82 0,-4.31 -1.17,-7.31 -3.57,-9 -2.38,-1.66 -7.04,-2.5 -13.97,-2.5zm243.04 1.23l-11.05 0 0 60.43 10.56 0c9.8,0 16.61,-2.19 20.42,-6.56 3.77,-4.38 5.67,-12.21 5.67,-23.53 0,-11.01 -1.94,-18.84 -5.82,-23.43 -3.88,-4.62 -10.47,-6.91 -19.78,-6.91zm-1047.29 -1.23l-16.93 0 0 22.86 17.92 0c6.23,0 10.58,-0.85 12.98,-2.54 2.36,-1.7 3.55,-4.63 3.55,-8.82 0,-4.31 -1.19,-7.31 -3.55,-9 -2.4,-1.66 -7.05,-2.5 -13.97,-2.5zm950.83 294.74c-16.29,-23 -41.91,-34.5 -76.87,-34.5 -35.19,0 -61.02,11.54 -77.57,34.68 -16.54,23.14 -24.8,59.48 -24.8,109.01 0,49.31 8.26,85.54 24.8,108.69 16.55,23.1 42.38,34.67 77.57,34.67 34.96,0 60.58,-11.5 76.87,-34.5 16.27,-23 24.45,-59.3 24.45,-108.86 0,-49.78 -8.18,-86.19 -24.45,-109.19zm-1441.69 -671.69c153.11,170.68 246.56,397.83 246.56,647.24 0,140.44 -29.84,273.69 -83.04,393.88l278.8 0 0 -521.58 170.56 0 0 521.58 150.21 0c-23.71,-7.62 -44.7,-18.13 -62.68,-31.89 -40.46,-30.94 -63.18,-74.47 -68.13,-130.67l162.96 0c4.48,18.94 12.59,32.56 24.33,40.89 11.79,8.29 29.33,12.41 52.61,12.41 19.5,0 34.84,-3.38 46.03,-10.12 11.18,-6.74 16.75,-16.02 16.75,-27.83 0,-18.91 -23.39,-34.26 -70.13,-46.08 -9.41,-2.4 -16.58,-4.16 -21.51,-5.36 -38.5,-9.88 -69.15,-18.91 -91.91,-27.06 -22.79,-8.15 -39.39,-15.77 -49.77,-22.82 -20.08,-14.4 -35.14,-31.61 -45.16,-51.68 -10.01,-20.08 -15.06,-42.97 -15.06,-68.69 0,-51.68 19.47,-92.29 58.39,-121.78 38.95,-29.49 92.49,-44.24 160.72,-44.24 66.99,0 119.73,14.11 158.19,42.37 38.46,28.22 60.18,68.65 65.13,121.36l-158.8 0c-2.57,-15.35 -9.34,-26.81 -20.32,-34.36 -10.96,-7.55 -26.6,-11.33 -46.88,-11.33 -17.96,0 -31.26,2.93 -40.01,8.86 -8.71,5.89 -13.09,14.85 -13.09,26.88 0,17.21 22.86,31.61 68.65,43.18 3.99,1.2 7.07,2.01 9.21,2.47 6.61,1.66 16.62,4.13 30.07,7.44 60.56,15.35 100.15,29.25 118.78,41.74 23.1,15.34 39.93,32.8 50.54,52.38 10.62,19.58 15.92,42.69 15.92,69.36 0,57.54 -20.12,101.81 -60.33,132.68 -17.89,13.76 -39.41,24.27 -64.17,31.89l291.39 0c-38.37,-12.1 -71.39,-31.68 -98.64,-59.34 -48.53,-49.21 -72.76,-116.17 -72.76,-200.87 0,-84.95 24.23,-151.98 72.76,-201.08 48.51,-49.07 114.66,-73.63 198.48,-73.63 83.57,0 149.55,24.56 197.94,73.63 48.41,49.1 72.61,116.13 72.61,201.08 0,84.7 -24.2,151.66 -72.61,200.87 -27.2,27.66 -60.14,47.24 -98.39,59.34l194.06 0 0 -1041.12 -1658.26 0zm549.2 469.55l-39.64 0c-0.72,-2.93 -1.25,-5.5 -1.6,-7.66 -0.34,-2.18 -0.52,-3.91 -0.52,-5.11l0 -12.21c0,-6.31 -1.27,-10.76 -3.78,-13.33 -2.46,-2.58 -6.8,-3.85 -12.98,-3.85l-16.75 0 0 42.16 -38.75 0 0 -122.31 58.6 0c18.32,0 31.37,2.75 39.19,8.22 7.84,5.5 11.8,14.5 11.8,26.99 0,7.48 -1.64,13.69 -4.84,18.59 -3.21,4.94 -8.16,8.85 -14.86,11.71 6.81,1.45 11.78,4.31 14.86,8.54 3.14,4.23 4.79,10.44 5.01,18.63l0.67 17.04c0,0.1 0.04,0.24 0.11,0.38 0.13,4.87 1.29,7.45 3.48,7.66l0 4.55zm115.92 0l-100.1 0 0 -122.31 97.71 0 0 29.32 -58.42 0 0 16.3 49.38 0 0 28.08 -49.38 0 0 18.91 60.81 0 0 29.7zm134.69 0l-25.29 0 -1.94 -10.55c-4.41,4.73 -9.74,8.22 -16.02,10.55 -6.24,2.29 -13.54,3.42 -21.83,3.42 -17.49,0 -31.26,-5.75 -41.35,-17.21 -10.05,-11.5 -15.09,-27.24 -15.09,-47.21 0,-20.42 5.61,-36.3 16.86,-47.55 11.21,-11.25 26.95,-16.9 47.24,-16.9 15.91,0 28.79,3.95 38.53,11.86 9.76,7.93 15.55,19.08 17.38,33.44l-37.28 0c-1.52,-4.83 -3.92,-8.57 -7.27,-11.11 -3.36,-2.54 -7.48,-3.81 -12.43,-3.81 -7.82,0 -13.72,3.03 -17.6,9.03 -3.88,6.03 -5.86,15.03 -5.86,27.02 0,11.04 1.98,19.33 5.93,24.84 3.88,5.46 9.89,8.22 17.89,8.22 5.75,0 10.62,-1.35 14.64,-4.03 4.03,-2.71 6.5,-6.31 7.44,-10.83l-17.71 0 0 -26.17 53.76 0 0 66.99zm63.06 0l-40.09 0 0 -122.31 40.09 0 0 122.31zm113.33 -7.44c-9.42,7.26 -22.96,10.86 -40.59,10.86 -16.24,0 -29.08,-3.6 -38.61,-10.86 -9.48,-7.24 -14.8,-17.47 -15.98,-30.63l38.17 0c1.07,4.45 2.97,7.62 5.75,9.57 2.8,1.94 6.93,2.89 12.43,2.89 4.61,0 8.25,-0.78 10.89,-2.37 2.61,-1.55 3.95,-3.74 3.95,-6.49 0,-4.44 -5.5,-8.04 -16.58,-10.83 -2.22,-0.56 -3.9,-0.95 -5.08,-1.23 -9.02,-2.33 -16.21,-4.45 -21.54,-6.35 -5.37,-1.91 -9.25,-3.71 -11.68,-5.36 -4.73,-3.39 -8.22,-7.41 -10.58,-12.14 -2.37,-4.69 -3.54,-10.09 -3.54,-16.12 0,-12.1 4.56,-21.63 13.72,-28.54 9.14,-6.95 21.7,-10.41 37.73,-10.41 15.72,0 28.07,3.32 37.13,9.91 9.01,6.64 14.11,16.13 15.29,28.47l-37.33 0c-0.6,-3.59 -2.22,-6.28 -4.8,-8.04 -2.54,-1.76 -6.24,-2.65 -11.01,-2.65 -4.19,0 -7.33,0.71 -9.38,2.09 -2.05,1.37 -3.07,3.45 -3.07,6.28 0,4.05 5.36,7.4 16.13,10.12 0.91,0.28 1.65,0.46 2.14,0.56 1.55,0.39 3.92,0.99 7.1,1.77 14.22,3.6 23.53,6.84 27.9,9.77 5.43,3.63 9.38,7.73 11.9,12.31 2.49,4.59 3.73,10.02 3.73,16.27 0,13.51 -4.69,23.88 -14.19,31.15zm132.13 -82.59l-35.22 0 0 90.03 -39.33 0 0 -90.03 -35.2 0 0 -32.28 109.75 0 0 32.28zm112.74 90.03l-100.11 0 0 -122.31 97.71 0 0 29.32 -58.42 0 0 16.3 49.39 0 0 28.08 -49.39 0 0 18.91 60.82 0 0 29.7zm132.44 0l-39.69 0c-0.7,-2.93 -1.24,-5.5 -1.6,-7.66 -0.35,-2.18 -0.52,-3.91 -0.52,-5.11l0 -12.21c0,-6.31 -1.27,-10.76 -3.73,-13.33 -2.52,-2.58 -6.85,-3.85 -13.02,-3.85l-16.73 0 0 42.16 -38.76 0 0 -122.31 58.59 0c18.31,0 31.39,2.75 39.22,8.22 7.84,5.5 11.76,14.5 11.76,26.99 0,7.48 -1.6,13.69 -4.81,18.59 -3.21,4.94 -8.18,8.85 -14.89,11.71 6.85,1.45 11.79,4.31 14.89,8.54 3.12,4.23 4.76,10.44 4.98,18.63l0.68 17.04c0,0.1 0.02,0.24 0.09,0.38 0.18,4.87 1.35,7.45 3.54,7.66l0 4.55zm115.88 0l-100.11 0 0 -122.31 97.71 0 0 29.32 -58.42 0 0 16.3 49.39 0 0 28.08 -49.39 0 0 18.91 60.82 0 0 29.7zm125.84 -26.11c-5.3,9.42 -13.1,16.44 -23.35,21.06 -4.03,1.84 -9,3.11 -14.99,3.89 -6,0.81 -15.64,1.16 -28.86,1.16l-40.22 0 0 -122.31 47.51 0c12.08,0 21.07,0.53 26.96,1.62 5.88,1.1 11,2.86 15.37,5.37 8.52,4.97 14.87,11.99 19.1,20.99 4.27,9.03 6.41,20.14 6.41,33.3 0,13.86 -2.65,25.47 -7.93,34.92z"/>
   <path class="fil0" d="M815.75 30.93l-441.44 0c288.04,92.28 492.02,317.5 501.58,622.54 -41.42,-30.3 -82.06,-53.65 -116.98,-66.6 -80.47,-29.81 -371.8,-124.43 -758.9,-99.45l0 35.1c308.41,-20.21 584.73,37.22 746.69,97.23 91.84,34.04 239.68,171.38 313.2,300.03 4.3,-9.63 10.12,-51.36 11.79,-63.21 11.11,-56.69 17.11,-115.11 17.11,-174.87 0,-252.21 -103.97,-481.16 -273.05,-650.77zm-455.86 1056.92c-135.71,-135.75 -325.12,-474.81 -359.88,-537.99l0 71.93c68.38,120.55 218.93,374.72 335.08,490.86 50.75,50.8 123.12,99.69 205.94,134.62 -135.92,82.09 -304.23,123.82 -488.24,102.62 -16.08,-1.87 -31.97,-4.09 -47.73,-6.49l0 225.67 434.79 0c161.65,-57.01 303.4,-152.96 412.9,-275.69 0.5,-0.07 1.03,-0.22 1.52,-0.29 8.12,-12.31 16.51,-26.17 24.63,-41.24 -189.46,41.53 -402.99,-47.97 -519.01,-164z"/>
   <path class="fil0" d="M294.22 686.25l188.63 146.72 -118.29 56.86 149.73 -35.94 152.68 89.85 -182.63 77.82 217.06 -44.91 155.67 74.86 -232.01 89.82 285.15 -57.64 142.98 92.07c0,0 64.37,-7.48 32.17,-32.21 -32.17,-24.69 -171.38,-110.03 -171.38,-110.03l-62.9 -248.46 10.47 223.03 -124.23 -71.87 -73.35 -226.02 26.95 203.59 -158.67 -89.82 -37.44 -160.16 0 142.2 -200.59 -119.76z"/>
  </g>
 </g>
</svg>
