<?xml version="1.0" encoding="UTF-8"?>
<!DOCTYPE svg PUBLIC "-//W3C//DTD SVG 1.1//EN" "http://www.w3.org/Graphics/SVG/1.1/DTD/svg11.dtd">
<!-- Creator: CorelDRAW 2018 (64-Bit) -->
<svg xmlns="http://www.w3.org/2000/svg" xml:space="preserve" width="36.508mm" height="9mm" version="1.1" style="shape-rendering:geometricPrecision; text-rendering:geometricPrecision; image-rendering:optimizeQuality; fill-rule:evenodd; clip-rule:evenodd"
viewBox="0 0 3650.8 900"
 xmlns:xlink="http://www.w3.org/1999/xlink">
 <defs>
  <style type="text/css">
   <![CDATA[
    .fil0 {fill:#262626;fill-rule:nonzero}
    .fil1 {fill:#363435;fill-rule:nonzero}
   ]]>
  </style>
 </defs>
 <g id="Слой_x0020_1">
  <metadata id="CorelCorpID_0Corel-Layer"/>
  <g id="_3080122559408">
   <path class="fil0" d="M474.13 152.42l2.74 0 3.43 0 2.72 0 2.74 0 0.67 0 2.05 0 2.76 0 1.36 0 1.35 0 2.75 0 2.05 0 0.71 0 2.7 0 2.76 0.67 2.72 0 2.74 0 2.72 0 2.76 0 0.67 0 2.07 0 2.72 0.7 1.38 0 1.38 0 2.72 0 2.07 0 0.67 0 2.76 0.67 2.05 0 0.67 0 2.74 0 2.72 0.67 2.76 0 2.7 0 2.1 0.71 2.71 0 1.38 0 1.36 0 2.72 0.67 2.76 0 2.74 0.67 2.05 0 0.67 0 2.76 0.67 4.75 0.7 2.77 0 0.66 0 2.08 0.67c12.98,1.38 26,3.43 38.99,6.14l2.05 0c6.84,1.34 13.67,2.72 19.85,4.09l2.71 0.67c4.13,0.67 8.23,2.05 13.02,2.72l2.05 0.67 2.05 0.71 0.71 0 2.71 0.67c6.18,2.04 13.02,3.42 19.82,5.43l2.09 0.71 2.72 0.67 2.04 0.67 2.75 0.7 2.05 0.67 7.55 2.72 2.05 0.7c33.51,10.87 64.3,23.82 91.68,38.81l10.24 5.43 3.41 2.72c86.93,51.08 140.97,121.92 140.97,200.91 0,79.65 -54.04,150.49 -140.97,201.54l-3.41 2.04 0 0.71 -10.24 5.43c-27.38,14.99 -58.17,27.94 -91.68,38.81l-2.05 0.7 -7.55 2.72 -2.05 0.67 -2.75 0.67 -2.04 0.71 -2.72 0.67 -2.09 0.67 -1.34 0c0.67,2.04 0.67,4.09 1.34,5.46 2.76,5.44 6.17,9.53 10.98,12.25 4.79,2.71 12.97,4.09 25.29,4.09l0 10.23 -126.58 0 0 -10.23c12.35,0 21.24,-1.38 25.34,-4.09 2.05,-0.67 3.42,-2.05 4.79,-3.39l-2.74 0.67 -2.05 0c-12.99,2.72 -26.01,4.76 -38.99,6.14l-2.08 0.67 -0.66 0 -2.77 0 -4.75 0.67 -2.76 0.7 -0.67 0 -2.05 0 -2.74 0.67 -2.76 0 -2.72 0 -1.36 0.67 -1.38 0 -2.71 0 -2.1 0 0 0.71 -2.7 0 -2.76 0 -2.72 0.67 -2.74 0 -0.67 0 -2.05 0 -2.76 0 -0.67 0.67 -2.07 0 -2.72 0 -1.38 0 -1.38 0 -2.72 0 -2.07 0.71 -0.67 0 -2.76 0 -2.72 0 -2.74 0 -2.72 0 -2.76 0 -2.7 0.67 -0.71 0 -2.05 0 -2.75 0 -1.35 0 -1.36 0 -2.76 0 -2.05 0 -0.67 0 -2.74 0 -2.72 0 -3.43 0 -2.74 0 -2.76 0 -2.72 0 -2.74 0 -2.72 0 -0.71 0 -2.05 0 -2.72 0 -1.36 0 -1.38 0 -2.75 0 -2.05 0 -0.67 0 -2.76 -0.67 -2.71 0 -2.75 0 -2.76 0 -0.67 0 -2.04 0 -2.74 0 -0.68 0 -2.04 -0.71 -2.76 0 -1.37 0 -1.35 0 -2.74 0 -2.06 0 -0.7 -0.67 -2.71 0 -2.05 0 -0.71 0 -2.72 0 -2.74 -0.67 -2.72 0 -2.76 0 -0.67 -0.71 -2.07 0 -2.04 0 -1.39 0 -1.33 -0.67 -2.76 0 -2.71 0 -2.76 -0.67 -2.05 0 -0.69 0 -2.72 -0.7 -4.81 -0.67 -2.74 0 -0.67 0 -2.04 -0.67c-13.02,-1.38 -26.01,-3.42 -39.02,-6.14l-2.05 0c-6.84,-1.38 -13.7,-2.72 -20.54,-4.09l-2.05 -0.67c-4.08,-1.38 -8.89,-2.05 -12.97,-2.72l-2.05 -0.71c-8.93,-2.01 -17.11,-4.76 -25.33,-6.8l-2.05 -0.67 -0.7 0 -2.04 -0.67 -2.72 -0.71c-3.43,-1.34 -7.56,-2.72 -11.65,-4.06l-2.74 -0.7c-32.84,-10.87 -63.62,-23.82 -90.98,-38.81l-10.27 -5.43 0 -0.71 -3.43 -2.04c-86.89,-51.05 -140.92,-121.89 -140.92,-201.54 0,-78.99 54.03,-149.83 140.92,-200.91l3.43 -2.72 10.27 -5.43c27.36,-14.99 58.14,-27.94 90.98,-38.81l2.74 -0.7c4.09,-1.34 8.22,-2.72 11.65,-4.09l2.72 -0.67 2.04 -0.67 0.7 0 2.05 -0.71c6.84,-2.01 12.99,-3.39 19.83,-5.43l2.74 -0.67 0.68 0 2.08 -0.71 2.05 -0.67c4.08,-0.67 8.89,-2.05 12.97,-2.72l2.05 -0.67c6.84,-1.37 13.7,-2.75 20.54,-4.09l2.05 0c13.01,-2.71 26,-4.76 39.02,-6.14l2.04 -0.67 0.67 0 2.74 0 4.81 -0.7 2.72 -0.67 0.69 0 2.05 0 2.76 -0.67 2.71 0 2.76 -0.67 1.33 0 1.39 0 2.04 0 2.07 -0.71 0.67 0 2.76 0 2.72 0 2.74 -0.67 2.72 0 0.71 0 2.05 0 2.71 -0.67 0.7 0 2.06 0 2.74 0 1.35 0 1.37 0 2.76 -0.7 2.04 0 0.68 0 2.74 0 2.04 0 0.67 0 2.76 0 2.75 0 2.71 -0.67 2.76 0 0.67 0 2.05 0 2.75 0 1.38 0 1.36 0 2.72 0 2.05 0 0.71 0 2.72 0 2.74 0 2.72 0 2.76 0zm123.14 75.6l4.11 55.84c13,-2.75 26,-4.8 38.3,-7.51 4.8,-1.34 9.6,-2.72 14.39,-3.39 -6.17,-9.56 -13.02,-18.38 -19.85,-26.56 -38.99,-45.62 -92.36,-74.23 -151.2,-76.95l0 59.91c21.19,2.04 42.44,8.85 62.92,19.08 8.22,4.09 13.7,6.14 17.11,6.14 5.48,0 9.6,-2.05 13.7,-5.47 4.79,-4.76 8.22,-12.24 10.26,-21.09l10.26 0zm5.48 72.84l3.41 57.89 -8.89 0c-6.17,-21.13 -13.67,-39.51 -23.23,-53.79 -29.44,3.38 -60.23,5.43 -91.02,6.13l0 115.75 217.59 0c-1.38,-51.08 -15.06,-98.74 -37.65,-138.92 -6.17,1.37 -13.02,3.42 -19.15,4.79 -13.69,2.72 -27.37,5.44 -41.06,8.15zm-40.37 -11.57c-4.79,-6.14 -9.58,-10.9 -15.06,-14.99 -18.45,-14.96 -39.68,-23.14 -64.3,-25.19l0 44.95c27.36,0 54.03,-2.05 79.36,-4.77zm-96.47 -40.85c-24.63,0.67 -46.54,6.81 -66.36,19.05 -8.89,5.47 -16.41,12.28 -23.26,20.43 28.72,3.42 58.85,5.47 89.62,6.14l0 -45.62zm-101.25 55.14c-5.48,7.51 -9.6,16.37 -13.7,26.56 -10.92,25.9 -17.11,58.57 -17.78,96.7l132.73 0 0 -115.75c-34.89,-0.7 -69.12,-3.42 -101.25,-7.51zm-31.48 140.3c0.67,31.33 6.15,59.23 16.42,82.37 6.84,15.67 15.73,28.61 26,39.51 29.41,-3.42 59.54,-5.46 90.31,-6.13l0 -115.75 -132.73 0zm60.2 136.88c2.08,1.34 4.8,3.38 6.84,4.76 19.85,11.57 41.74,18.38 65.69,19.76l0 -28.61c-24.63,0 -49.25,1.34 -72.53,4.09zm89.64 24.52c22.57,-0.71 42.44,-5.47 60.22,-15.67 4.08,-2.04 8.89,-5.47 12.97,-8.85 -23.91,-2.75 -48.57,-4.09 -73.19,-4.09l0 28.61zm90.3 -39.52c10.28,-10.23 21.21,-23.84 32.84,-39.51l8.89 5.47c-7.5,13.62 -15.73,25.86 -24.62,36.76 13.69,2.05 27.38,4.09 40.36,6.81l0 -12.24c0,-27.94 -0.67,-46.32 -2.72,-54.51 -1.37,-6.1 -3.41,-10.19 -6.17,-12.24 -2.72,-2.71 -6.85,-3.42 -11.63,-3.42 -5.48,0 -11.61,1.38 -19.17,4.09l-4.09 -10.86 78.67 -31.33 12.34 0 0 97.37c13.66,-32.7 21.88,-69.46 22.59,-108.27l-217.59 0 0 115.75c30.79,0.67 60.89,2.71 90.3,6.13zm3.43 17.71c-8.89,9.53 -19.16,17.01 -29.43,23.15 -19.16,11.57 -40.35,19.08 -64.3,22.47l0 72.18c57.46,-2.72 108.8,-29.95 147.77,-73.52l0 -35.42c-17.78,-3.42 -35.56,-6.81 -54.04,-8.86zm-110.84 46.99l-10.28 0c-49.23,0 -89.6,-13.61 -121.07,-40.85 -8.93,1.34 -17.11,3.39 -25.33,4.77 -4.79,1.34 -9.59,2.71 -14.35,3.38 6.13,9.53 12.97,18.38 19.83,26.57 39.02,45.61 92.36,74.22 151.2,76.94l0 -70.81zm-146.41 -55.17c-4.12,-4.76 -8.22,-10.2 -12.32,-15.66 -24.62,-33.38 -37.63,-71.51 -39.68,-115.75l-19.85 0c1.37,51.05 15.75,98.74 38.34,138.92 6.13,-1.37 12.97,-3.42 19.16,-4.79 4.75,-0.67 9.56,-2.01 14.35,-2.72zm-52 -148.45c1.38,-35.42 10.27,-67.41 26,-97.37 6.84,-12.94 14.35,-23.84 23.24,-34.74 -4.08,-0.67 -7.51,-1.34 -11.59,-2.02 -6.19,-1.37 -13.03,-3.42 -19.16,-4.79 -22.59,40.18 -36.97,87.84 -38.34,138.92l19.85 0zm62.94 -146.4c10.27,-9.53 21.9,-18.38 34.22,-25.86 30.08,-17.71 62.93,-26.56 99.2,-26.56l2.05 0 0 -58.57c-58.84,2.72 -112.18,31.33 -151.2,76.95 -6.86,8.18 -13.7,17 -19.83,26.56 4.76,0.67 9.56,2.05 14.35,3.39 6.84,1.37 13.7,2.71 21.21,4.09zm324.3 64.7c7.52,0 14.37,2.71 20.54,8.15 5.46,5.46 8.22,12.27 8.22,19.75 0,8.19 -2.76,15 -8.22,20.43 -6.17,6.14 -13.02,8.85 -20.54,8.85 -8.21,0 -15.06,-2.71 -20.52,-8.85 -6.15,-5.43 -8.89,-12.24 -8.89,-20.43 0,-7.48 2.74,-14.29 8.89,-19.75 5.46,-5.44 12.31,-8.15 20.52,-8.15zm23.28 259.43l0 59.27 0 9.52 0.67 0 4.1 -1.37 1.38 0 2.74 -1.34 2.05 0 2.05 -0.71 2.05 -0.67 0.71 -0.67 3.41 -0.71 1.34 -0.67 0.71 0 2.05 -0.67 2.05 -0.7 8.22 -2.72 1.36 -0.67 0.67 0 4.1 -2.04 4.79 -1.38 0.71 -0.67 2.05 -0.67 2.05 -0.67 4.08 -1.38 1.38 -0.67 3.43 -1.37 0.67 -0.67 2.07 -0.71 2.05 -0.67 1.39 -0.67 2.04 -0.67 0.67 -0.71 1.38 -0.67 2.03 -0.67 1.38 -0.7 2.05 -0.67 2.05 -0.67c2.74,-1.38 6.18,-2.72 8.89,-4.09l0 -0.67 3.41 -1.38 0.71 0 1.39 -0.67c-27.39,-13.62 -57.51,-25.22 -90.33,-34.75zm-48.57 81.03c0.67,-5.43 1.34,-12.91 1.34,-21.76l0 -11.61c-17.78,17.71 -38.3,32.7 -60.19,43.6l2.05 -0.67 5.47 -0.7 5.48 -0.67 2.04 0 2.05 -0.67 1.36 0 1.38 0 4.1 -0.71 0.7 0 0.67 -0.67 2.04 0 2.77 -0.67 4.78 -0.7 2.72 -0.67 2.06 0 0.7 0 2.04 -0.67 2.76 -0.71 0.67 0 4.09 -0.67 1.37 -0.67 0.71 0 2.72 0 2.05 -0.67 0.69 0 1.38 -0.71zm-448.84 -454.2c29.43,15 62.27,27.24 97.16,36.8 7.51,-11.61 15.06,-22.48 23.95,-32.71 21.88,-25.18 47.88,-46.32 76.62,-60.6 -21.9,2.71 -43.78,6.81 -64.3,10.9l-7.55 2.04c-15.74,3.39 -30.1,7.48 -44.45,11.58l-0.72 0.67c-4.09,0.7 -7.5,2.04 -10.93,3.42l-0.67 0 -2.07 0.67 -1.35 0.67 -0.7 0c-4.77,1.37 -8.89,3.42 -12.99,4.76l-1.37 0 -5.48 2.75 -2.04 0.67 -1.37 0.67 -0.68 0 -2.74 1.38 -1.39 0 -2.04 0.67 0 0.7 -3.41 1.34 -2.05 0.68 -1.39 0.7 -0.67 0 -2.07 0.67 -0.67 0.67 -0.67 0 -7.55 3.42 -1.34 0.67 -0.7 0 -2.06 0.67 -0.66 0.71 -0.72 0.67 -2.04 0.67 -0.67 0 -2.74 1.38 -0.67 0.67 -1.39 0.7 -1.38 0.67 -0.67 0 -1.37 0.67zm490.57 36.8c34.89,-9.56 67.73,-21.8 97.17,-36.8l-2.1 -0.67 -1.34 -0.67 -2.07 -0.7 0 -0.67 -2.05 -0.67 -0.66 -0.71 -0.72 0 -2.05 -0.67 -0.67 -0.67 -1.36 -0.71 -1.38 -0.67 -0.67 0 -1.38 -0.67 -3.43 -1.37 -1.36 -0.67 -2.72 -1.38 -0.71 0 -1.33 -0.67 -1.39 -0.67 -0.71 0 -1.34 -0.7 -2.07 -0.68 -3.43 -1.34 -0.67 -0.7 -1.38 -0.67 -1.34 0 -2.74 -1.38 -0.67 0 -1.38 -0.67 -2.05 -0.67 -3.41 -1.37 -2.09 -1.38 -1.34 0 -3.43 -1.34 -1.36 -0.67 -2.05 -0.71 -2.05 -0.67 -1.38 -0.67 -0.71 0 -2.03 -0.7 -1.38 0 -0.67 -0.67 -2.05 -0.67 -0.71 0c-3.41,-1.38 -6.84,-2.72 -10.94,-3.42l-0.67 -0.67 -2.74 -0.68 -1.38 0 -6.13 -2.04 -2.05 -0.71 -1.38 -0.67 -0.71 0 -3.41 -0.67 -1.34 -0.7 -6.18 -1.34 -2.04 -0.67 -1.38 -0.71 -7.51 -1.34 -0.72 0 -7.5 -2.05 -0.67 0 -6.85 -2.04c-4.13,-0.67 -8.22,-1.38 -11.65,-2.05l-0.66 0 -6.84 -1.37 -0.72 -0.67c-5.45,-0.67 -10.93,-1.38 -15.73,-2.72l-1.38 0c-8.89,-1.38 -18.45,-2.72 -27.34,-4.09 28.72,14.28 54.73,35.42 76.63,60.6 8.19,10.23 16.4,21.1 23.95,32.71zm115.62 -27.27c-32.15,17.04 -67.74,31.32 -106.73,42.22 22.59,41.56 36.27,91.27 37.61,143.69l214.18 0c-4.14,-69.46 -54.05,-132.11 -132.06,-178.4 -4.11,-2.72 -8.89,-4.76 -13,-7.51zm-517.92 42.22c-39.01,-10.9 -74.57,-25.18 -106.75,-42.22 -4.1,2.75 -8.89,4.79 -12.99,7.51 -78.7,46.29 -127.95,108.94 -132.04,178.4l214.14 0c1.37,-52.42 15.06,-102.13 37.64,-143.69zm662.98 160.73l-214.18 0c-1.34,52.42 -15.02,102.13 -37.61,143.69 38.99,10.86 74.58,25.18 106.73,42.19 4.11,-2.72 8.89,-4.76 13,-7.48 78.01,-46.28 127.92,-108.94 132.06,-178.4zm-700.62 0l-214.14 0c4.09,69.46 53.34,132.12 132.04,178.4 4.1,2.72 8.89,4.76 12.99,7.48 32.18,-17.01 67.74,-31.33 106.75,-42.19 -22.58,-41.56 -36.27,-91.27 -37.64,-143.69zm147.1 251.95c-28.74,-14.32 -54.74,-35.41 -76.62,-60.6 -8.89,-10.23 -16.44,-21.13 -23.95,-32.71 -34.89,9.56 -67.73,21.81 -97.16,36.8l1.37 0.67 4.11 1.38 0 0.67c2.74,1.37 6.17,2.71 8.89,4.09l2.04 0.67 1.37 0.67 0.68 0 1.36 0.7 2.05 0.67 1.39 0.67 0.7 0.71 1.34 0.67 2.07 0.67 4.11 1.38 0.67 0.67 2.74 1.37 2.04 0.67 4.13 1.38 2.05 0.67 2.04 0.67 0.67 0.67 0.72 0 4.09 1.38 4.08 2.04 0.72 0 1.37 0.67 8.19 2.72 2.05 0.7 2.07 0.67 0.67 0 1.38 0.67 2.05 0.71 1.37 0 0.67 0.67 2.05 0.67 2.08 0.71 2.05 0 2.71 1.34 1.37 0 4.14 1.37 2.03 0.67 2.05 0.67 0.67 0 4.81 1.38 0.67 0.67 4.79 0.7 2.05 0.67 2.07 0.67 0.67 0 1.38 0.71 2.05 0.67 2.05 0 2.74 0.67 2.05 0.67 2.05 0.71 2.05 0 1.38 0.67 0.67 0 4.79 1.37 2.76 0 2.03 0.67 4.81 1.38 0.67 0 2.05 0.67 2.03 0 1.38 0 1.38 0.67 4.1 0.67 0.69 0 2.72 0.71 1.38 0.67 0.71 0 2.72 0 2.03 0.67 0.71 0 4.77 0.7 2.74 0.67 2.05 0 0.72 0.67 4.76 0.71 0.69 0 1.38 0 2.72 0.67 1.38 0 5.46 0.67 0.67 0 5.5 0.7 2.05 0.67zm-286.66 -670.06l16.4 0 0 99.41 -16.4 0 0 -99.41zm28.05 66.71l16.4 -2.05c2.05,12.95 7.55,19.09 17.78,19.09 5.51,0 8.92,-0.67 12.34,-3.42 2.72,-2.72 4.1,-6.11 4.1,-9.53 0,-2.72 -0.71,-4.76 -1.38,-6.14 -1.38,-1.34 -2.72,-2.71 -4.79,-4.05 -2.05,-0.71 -6.86,-2.76 -15.04,-4.77 -6.84,-2.04 -12.3,-4.8 -15.73,-6.84 -2.76,-2.72 -5.5,-6.1 -7.55,-10.2 -2.05,-4.09 -2.72,-8.18 -2.72,-12.94 0,-5.44 1.38,-10.2 3.43,-14.96 2.72,-4.09 6.13,-7.52 10.27,-9.56 4.75,-2.05 10.23,-3.39 16.4,-3.39 9.59,0 17.11,2.72 22.57,8.15 5.48,4.8 8.22,12.28 8.89,21.8l-17.11 1.38c-0.67,-5.47 -2.05,-9.56 -4.76,-11.57 -2.08,-2.05 -5.51,-2.75 -10.26,-2.75 -4.14,0 -7.55,0.7 -10.27,2.75 -2.05,1.34 -3.43,4.05 -3.43,6.81 0,2.71 1.38,4.76 3.43,6.8 2.05,1.35 6.84,3.39 15.02,6.11 8.22,2.04 14.4,4.76 17.82,7.51 4.1,2.72 6.84,6.1 8.89,10.2 2.06,4.09 2.72,9.52 2.72,14.99 0,8.85 -2.72,16.33 -8.18,21.8 -5.48,6.1 -13.7,8.86 -24.66,8.86 -20.5,0 -31.48,-10.9 -34.18,-34.08zm77.99 -16.34c0,-12.24 1.35,-21.8 4.76,-29.28 3.43,-8.18 8.22,-13.61 13.69,-17.71 6.18,-3.38 13.02,-5.43 21.24,-5.43 11.61,0 21.2,4.76 28.71,13.62 6.85,8.85 10.94,21.8 10.94,38.13 0,16.34 -4.09,29.28 -11.61,38.81 -6.84,8.18 -16.43,12.28 -28.04,12.28 -12.35,0 -21.24,-4.1 -28.09,-12.28 -8.17,-8.85 -11.6,-21.8 -11.6,-38.14zm16.41 -0.67c0,10.91 2.74,19.76 6.85,25.19 4.08,6.14 9.58,8.86 16.43,8.86 6.13,0 11.61,-2.72 16.41,-8.19 4.09,-6.1 6.17,-14.95 6.17,-26.56 0,-11.57 -2.08,-19.72 -6.17,-25.19 -4.1,-5.43 -9.61,-8.85 -16.41,-8.85 -6.85,0 -12.35,3.42 -16.43,8.85 -4.11,5.47 -6.85,14.32 -6.85,25.89zm104.7 26.57l15.02 -2.05c0.71,7.48 3.43,10.9 8.89,10.9 3.43,0 6.19,-1.37 8.89,-5.46 2.1,-3.39 3.43,-10.91 4.14,-22.48 -2.04,2.72 -4.14,4.77 -6.84,6.14 -2.05,1.34 -4.81,2.05 -8.22,2.05 -6.15,0 -11.65,-2.72 -16.42,-8.86 -4.79,-5.47 -6.84,-13.61 -6.84,-23.14 0,-10.9 2.05,-19.08 7.51,-25.22 4.81,-5.44 10.94,-8.86 18.49,-8.86 8.18,0 15.04,4.09 20.54,11.61 5.46,8.15 8.18,21.09 8.18,38.8 0,18.38 -2.72,31.33 -8.89,39.48 -5.46,8.18 -12.32,11.61 -21.21,11.61 -6.17,0 -11.63,-2.05 -15.73,-6.14 -4.12,-3.42 -6.84,-10.23 -7.51,-18.38zm35.56 -41.56c0,-6.14 -1.38,-10.9 -3.43,-14.29 -2.74,-3.42 -5.46,-5.46 -8.22,-5.46 -2.7,0 -5.46,1.37 -7.51,4.76 -1.38,2.75 -2.74,6.84 -2.74,13.65 0,6.1 1.36,10.87 3.41,13.62 2.09,3.38 4.81,4.76 7.55,4.76 3.43,0 5.48,-1.38 7.51,-4.09 2.05,-3.42 3.43,-7.48 3.43,-12.95zm54.75 -35.42c7.52,0 14.36,4.09 19.16,11.61 4.77,7.48 7.51,20.42 7.51,39.47 0,18.38 -2.74,32 -7.51,39.52 -4.8,7.47 -11.64,10.9 -19.16,10.9 -8.22,0 -14.4,-3.43 -19.85,-10.9 -4.8,-7.52 -6.85,-20.43 -6.85,-39.52 0,-19.05 2.05,-31.99 6.85,-39.47 5.45,-7.52 11.63,-11.61 19.85,-11.61zm0 15.67c-3.42,0 -5.51,2.04 -7.55,6.13 -2.04,4.1 -2.71,14.29 -2.71,29.28 0,15 0.67,24.52 2.71,28.61 2.04,4.1 4.13,6.14 7.55,6.14 2.71,0 5.47,-2.04 6.84,-6.14 2.05,-4.09 2.72,-13.61 2.72,-28.61 0,-14.99 -0.67,-25.18 -2.72,-29.28 -1.37,-4.09 -4.13,-6.13 -6.84,-6.13zm63.61 -15.67c7.55,0 14.35,4.09 19.16,11.61 4.79,7.48 7.55,20.42 7.55,39.47 0,18.38 -2.76,32 -7.55,39.52 -4.81,7.47 -11.61,10.9 -19.16,10.9 -8.18,0 -14.36,-3.43 -19.16,-10.9 -5.46,-7.52 -7.51,-20.43 -7.51,-39.52 0,-19.05 2.05,-31.99 7.51,-39.47 4.8,-7.52 10.98,-11.61 19.16,-11.61zm0 15.67c-3.43,0 -5.47,2.04 -7.51,6.13 -2.05,4.1 -2.76,14.29 -2.76,29.28 0,15 0.71,24.52 2.76,28.61 2.04,4.1 4.08,6.14 7.51,6.14 2.74,0 5.46,-2.04 7.55,-6.14 1.34,-4.09 2.72,-13.61 2.72,-28.61 0,-14.99 -1.38,-25.18 -2.72,-29.28 -2.09,-4.09 -4.81,-6.13 -7.55,-6.13zm77.33 84.45l-15.73 0 0 -72.18c-6.19,6.81 -13.03,11.57 -20.54,14.96l0 -17.67c4.79,-2.05 8.89,-4.8 13.68,-9.56 4.81,-4.77 8.2,-9.53 9.56,-15.67l13.03 0 0 100.12zm30.08 -72.18l15.07 0 0 19.05 -15.07 0 0 -19.05zm0 53.1l15.07 0 0 19.05 -15.07 0 0 -19.05zm84.85 1.37l0 17.71 -55.41 0c0.67,-6.81 2.74,-12.95 5.45,-19.08 3.44,-6.11 8.89,-14.29 17.78,-23.82 6.85,-8.18 10.98,-12.94 13.02,-15.66 2.05,-4.09 3.43,-8.18 3.43,-12.28 0,-4.76 -1.38,-7.48 -2.75,-10.19 -2.05,-2.05 -4.76,-3.42 -8.19,-3.42 -6.84,0 -10.27,5.46 -10.96,15.66l-15.74 -2.05c0.7,-10.19 4.13,-17 8.22,-21.76 4.8,-4.77 10.93,-7.52 19.15,-7.52 8.22,0 15.06,2.75 19.16,8.19 4.79,6.14 6.84,12.24 6.84,19.75 0,4.09 -0.67,7.48 -2.05,11.57 -0.7,4.1 -2.74,7.48 -4.79,11.57 -2.05,4.1 -6.15,8.86 -11.64,15 -4.76,5.43 -8.19,9.52 -9.57,10.9 -1.37,2.04 -2.74,3.39 -3.41,5.43l31.46 0zm36.94 -82.41c8.22,0 14.39,4.09 19.85,11.61 4.81,7.48 6.86,20.42 6.86,39.47 0,18.38 -2.05,32 -6.86,39.52 -5.46,7.47 -11.63,10.9 -19.85,10.9 -7.51,0 -14.37,-3.43 -19.16,-10.9 -4.77,-7.52 -7.51,-20.43 -7.51,-39.52 0,-19.05 2.74,-31.99 7.51,-39.47 4.79,-7.52 11.65,-11.61 19.16,-11.61zm0 15.67c-2.72,0 -5.48,2.04 -6.84,6.13 -2.05,4.1 -2.72,14.29 -2.72,29.28 0,15 0.67,24.52 2.72,28.61 1.36,4.1 4.12,6.14 6.84,6.14 3.41,0 6.17,-2.04 7.55,-6.14 2.05,-4.09 2.72,-13.61 2.72,-28.61 0,-14.99 -0.67,-25.18 -2.72,-29.28 -1.38,-4.09 -4.14,-6.13 -7.55,-6.13zm64.3 -15.67c7.55,0 14.4,4.09 19.16,11.61 4.8,7.48 7.56,20.42 7.56,39.47 0,18.38 -2.76,32 -7.56,39.52 -4.76,7.47 -11.61,10.9 -19.16,10.9 -8.18,0 -14.35,-3.43 -19.81,-10.9 -4.81,-7.52 -6.86,-20.43 -6.86,-39.52 0,-19.05 2.05,-31.99 6.86,-39.47 5.46,-7.52 11.63,-11.61 19.81,-11.61zm0 15.67c-3.41,0 -5.46,2.04 -7.51,6.13 -2.05,4.1 -2.74,14.29 -2.74,29.28 0,15 0.69,24.52 2.74,28.61 2.05,4.1 4.1,6.14 7.51,6.14 2.77,0 5.51,-2.04 6.86,-6.14 2.08,-4.09 2.74,-13.61 2.74,-28.61 0,-14.99 -0.66,-25.18 -2.74,-29.28 -1.35,-4.09 -4.09,-6.13 -6.86,-6.13zm50.67 30.65c-4.12,-2.04 -6.84,-4.76 -8.93,-8.18 -2.04,-3.39 -2.71,-7.48 -2.71,-12.24 0,-8.19 2.04,-14.29 6.84,-19.09 4.09,-4.06 10.26,-6.81 17.78,-6.81 8.22,0 14.35,2.75 18.48,7.52 4.1,4.76 6.15,10.9 6.15,18.38 0,4.76 -1.34,8.85 -3.43,12.24 -2.05,3.42 -4.77,6.14 -8.18,8.18 4.76,2.05 8.18,5.43 10.94,9.53 2.04,4.09 3.41,8.85 3.41,14.99 0,6.14 -1.37,11.57 -3.41,16.33 -2.76,4.77 -5.48,8.19 -9.61,10.9 -4.09,2.72 -8.89,3.43 -13.67,3.43 -8.2,0 -14.37,-2.76 -19.83,-8.19 -4.8,-5.47 -7.52,-12.27 -7.52,-21.8 0,-6.14 1.35,-10.9 3.42,-15.66 2.71,-4.1 5.47,-7.48 10.27,-9.53zm3.42 -19.05c0,3.39 0.67,6.81 2.72,8.82 1.37,2.05 4.13,2.75 6.84,2.75 2.75,0 5.46,-0.7 6.85,-2.75 2.04,-2.01 2.74,-5.43 2.74,-8.82 0,-4.09 -0.7,-6.84 -2.74,-8.85 -1.39,-2.05 -4.1,-3.42 -6.85,-3.42 -2.71,0 -5.47,1.37 -6.84,3.42 -2.05,2.01 -2.72,4.76 -2.72,8.85zm-2.09 42.19c0,5.47 1.39,9.56 3.44,12.95 2.74,2.72 5.5,4.09 8.21,4.09 3.42,0 6.18,-1.37 8.22,-4.09 2.04,-2.72 3.42,-6.81 3.42,-12.24 0,-4.8 -1.38,-8.85 -3.42,-11.61 -2.04,-2.71 -4.8,-4.05 -8.22,-4.05 -3.43,0 -6.14,1.34 -8.21,4.05 -2.05,2.76 -3.44,6.81 -3.44,10.9zm-675.95 746.34l12.32 4.76c-2.05,8.86 -5.48,15 -9.6,18.42 -4.1,4.06 -9.56,6.1 -15.73,6.1 -8.2,0 -15.04,-3.39 -19.83,-9.52 -5.48,-6.81 -8.89,-16.34 -8.89,-28.61 0,-12.92 3.41,-22.48 8.89,-29.95 4.79,-6.14 11.63,-9.53 20.52,-9.53 6.86,0 12.32,2.72 17.09,7.48 3.41,3.42 5.5,8.18 7.55,14.99l-12.32 3.39c-0.71,-4.06 -2.76,-7.48 -4.79,-9.53 -2.76,-2.04 -5.48,-3.38 -8.22,-3.38 -4.77,0 -8.2,2.04 -11.61,6.1 -2.76,4.09 -4.14,10.23 -4.14,19.76 0,8.85 1.38,15.66 4.14,19.75 2.72,4.09 6.84,6.14 10.94,6.14 3.41,0 6.13,-1.38 8.89,-4.09 2.03,-2.72 4.08,-6.14 4.79,-12.28zm48.57 10.9l11.61 2.05c-1.33,5.47 -4.09,9.52 -7.5,12.27 -2.72,2.72 -6.85,4.06 -11.66,4.06 -6.84,0 -11.6,-2.04 -15.73,-6.81 -4.08,-4.76 -6.13,-12.24 -6.13,-21.09 0,-9.53 2.05,-16.34 6.13,-21.8 4.13,-4.77 8.89,-6.81 14.39,-6.81 6.15,0 11.61,2.04 15.04,6.81 4.13,5.46 6.18,12.94 6.18,23.84l0 1.34 -29.44 0c0,4.1 0.67,7.52 2.72,10.23 2.09,2.05 4.13,3.43 6.84,3.43 3.43,0 6.18,-2.76 7.55,-7.52zm0.67 -14.96c0,-4.09 -1.36,-7.51 -2.71,-9.56 -2.08,-2.04 -4.13,-2.71 -6.18,-2.71 -2.74,0 -4.79,0.67 -6.17,3.42 -2.05,2.01 -2.72,4.76 -2.72,8.85l17.78 0zm32.85 32l-12.3 0 0 -54.47 10.93 0 0 8.15c2.04,-4.09 4.13,-6.14 5.46,-7.48 1.39,-1.37 2.76,-1.37 4.8,-1.37 2.76,0 5.48,0.7 8.22,2.71l-4.09 12.28c-2.09,-1.38 -3.42,-2.72 -5.5,-2.72 -1.35,0 -2.72,0.67 -4.09,2.05 -1.39,1.34 -2.06,3.39 -2.76,6.81 -0.67,2.71 -0.67,8.85 -0.67,17l0 17.04zm42.44 -54.47l0 11.57 -8.22 0 0 21.77 0 8.18c0.67,1.38 2.05,2.05 3.43,2.05 0.67,0 2.71,0 4.79,-1.38l0.67 11.58c-2.75,1.37 -5.46,2.04 -8.89,2.04 -3.42,0 -5.46,-0.67 -7.55,-2.04 -2.04,-2.02 -2.72,-4.06 -3.41,-6.11 -0.68,-2.04 -0.68,-6.14 -0.68,-12.27l0 -23.82 -5.47 0 0 -11.57 5.47 0 0 -10.23 11.64 -8.85 0 19.08 8.22 0zm8.18 40.15l11.65 0 0 14.29 -11.65 0 0 -14.29zm216.9 4.8c2.74,2.71 6.17,4.76 9.58,6.1l-4.12 10.9c-2.05,-0.67 -4.1,-1.38 -5.46,-2.72 -0.67,0 -3.43,-2.71 -8.2,-6.81 -4.12,2.05 -8.91,3.39 -14.39,3.39 -8.89,0 -15.73,-3.39 -21.19,-10.19 -5.48,-6.81 -8.22,-16.34 -8.22,-28.61 0,-12.25 2.74,-21.81 8.22,-28.61 5.46,-6.81 13.01,-10.2 21.9,-10.2 8.89,0 15.73,3.39 21.21,10.2 5.46,6.8 8.22,16.36 8.22,28.61 0,6.13 -0.71,11.57 -2.09,15.66 -0.67,4.76 -2.72,8.18 -5.46,12.28zm-10.27 -8.86c3.42,-4.09 4.79,-10.23 4.79,-19.08 0,-8.86 -1.37,-15 -4.79,-19.05 -2.72,-4.77 -6.84,-6.81 -11.61,-6.81 -5.46,0 -9.6,2.04 -12.32,6.81 -3.41,4.05 -4.79,10.19 -4.79,19.05 0,8.85 1.38,15.66 4.79,19.75 2.72,4.09 6.86,6.14 11.61,6.14 2.05,0 3.43,0 4.81,-0.71 -2.05,-2.04 -4.81,-4.05 -7.53,-4.76l3.43 -8.85c4.1,2.04 8.18,4.09 11.61,7.51zm27.38 18.38l0 -74.93 18.47 0 10.94 51.08 11.65 -51.08 18.45 0 0 74.93 -11.6 0 0 -59.27 -12.33 59.27 -11.63 0 -12.32 -59.27 0 59.27 -11.63 0zm68.43 -24.52l12.32 -1.37c1.33,9.56 6.13,14.32 13.68,14.32 3.38,0 6.82,-0.71 8.89,-2.75 2.04,-2.01 2.71,-4.76 2.71,-7.48 0,-1.38 0,-2.72 -0.67,-4.09 -0.7,-1.34 -2.04,-2.05 -3.41,-3.39 -2.05,-0.71 -5.48,-2.05 -11.65,-3.42 -4.79,-2.05 -8.89,-3.39 -11.63,-5.43 -2.05,-2.05 -4.09,-4.1 -5.48,-7.48 -1.33,-2.75 -2.05,-6.14 -2.05,-9.56 0,-4.1 0.72,-7.48 2.77,-10.9 1.33,-3.39 4.08,-6.11 7.5,-7.48 3.43,-1.38 7.51,-2.72 12.32,-2.72 6.85,0 13.02,2.05 17.11,6.14 4.08,4.06 6.17,9.52 6.17,17l-12.35 0.67c-0.67,-4.05 -2.04,-6.81 -3.41,-8.82 -2.06,-1.37 -4.78,-2.04 -8.19,-2.04 -3.42,0 -5.48,0.67 -7.55,2.04 -2.04,1.34 -2.71,2.72 -2.71,4.77 0,2.04 0.67,4.05 2.71,5.43 1.37,1.37 5.5,2.72 10.96,4.76 6.15,1.38 10.95,3.42 13.69,5.47 2.72,2.01 4.76,4.76 6.15,7.48 1.37,3.38 2.05,6.81 2.05,11.57 0,6.81 -1.35,12.28 -5.48,16.33 -4.09,4.1 -10.26,6.81 -19.15,6.81 -15.06,0 -23.26,-8.85 -25.3,-25.86zm57.47 -9.52l22.58 0 0 14.29 -22.58 0 0 -14.29zm49.25 -40.89c6.17,0 10.94,2.75 14.35,8.19 3.43,6.13 5.48,15.66 5.48,29.95 0,14.32 -2.05,23.84 -5.48,29.28 -3.41,6.14 -8.18,8.85 -14.35,8.85 -6.15,0 -10.94,-2.71 -14.37,-8.85 -4.12,-5.44 -5.46,-14.96 -5.46,-29.28 0,-14.29 1.34,-23.82 5.46,-29.95 3.43,-5.44 8.22,-8.19 14.37,-8.19zm0 11.61c-2.05,0 -4.1,2.04 -5.48,4.76 -1.36,3.39 -2.03,10.2 -2.03,21.77 0,11.6 0.67,18.41 2.03,21.8 1.38,2.71 3.43,4.09 5.48,4.09 2.05,0 4.09,-1.38 5.46,-4.09 1.38,-3.39 2.05,-10.2 2.05,-21.8 0,-11.57 -0.67,-18.38 -2.05,-21.77 -1.37,-2.72 -3.41,-4.76 -5.46,-4.76zm47.9 -11.61c5.48,0 10.94,2.75 14.37,8.19 3.41,6.13 5.46,15.66 5.46,29.95 0,14.32 -2.05,23.84 -5.46,29.28 -3.43,6.14 -8.22,8.85 -14.37,8.85 -6.17,0 -10.96,-2.71 -14.39,-8.85 -4.1,-5.44 -5.46,-14.96 -5.46,-29.28 0,-14.29 1.36,-23.82 5.46,-29.95 3.43,-5.44 8.22,-8.19 14.39,-8.19zm0 11.61c-2.74,0 -4.12,2.04 -5.46,4.76 -1.38,3.39 -2.09,10.2 -2.09,21.77 0,11.6 0.71,18.41 2.09,21.8 1.34,2.71 2.72,4.09 5.46,4.09 2.05,0 4.1,-1.38 5.48,-4.09 1.36,-3.39 2.03,-10.2 2.03,-21.8 0,-11.57 -0.67,-18.38 -2.03,-21.77 -1.38,-2.72 -3.43,-4.76 -5.48,-4.76zm47.88 -11.61c5.46,0 10.26,2.75 14.39,8.19 3.42,6.13 5.46,15.66 5.46,29.95 0,14.32 -2.04,23.84 -5.46,29.28 -4.13,6.14 -8.93,8.85 -14.39,8.85 -6.15,0 -10.93,-2.71 -14.37,-8.85 -4.08,-5.44 -6.17,-14.96 -6.17,-29.28 0,-14.29 2.09,-23.82 6.17,-29.95 3.44,-5.44 8.22,-8.19 14.37,-8.19zm0 11.61c-2.71,0 -4.1,2.04 -5.48,4.76 -1.36,3.39 -2.04,10.2 -2.04,21.77 0,11.6 0.68,18.41 2.04,21.8 1.38,2.71 2.77,4.09 5.48,4.09 2.05,0 4.13,-1.38 5.46,-4.09 1.39,-3.39 2.09,-10.2 2.09,-21.8 0,-11.57 -0.7,-18.38 -2.09,-21.77 -1.33,-2.72 -3.41,-4.76 -5.46,-4.76zm37.63 23.14c-2.74,-2.05 -4.78,-4.09 -6.17,-6.14 -1.33,-2.72 -2.05,-6.14 -2.05,-9.52 0,-6.14 1.39,-10.23 4.81,-13.62 3.41,-4.09 7.52,-5.47 13.69,-5.47 5.46,0 10.26,2.05 13.68,5.47 2.71,4.09 4.1,8.18 4.1,13.62 0,3.38 -0.67,6.8 -2.05,9.52 -1.38,2.72 -3.43,4.76 -6.17,6.14 3.42,1.34 6.17,4.09 7.55,6.81 2.04,3.38 2.71,6.81 2.71,11.57 0,4.76 -0.67,8.85 -2.04,12.28 -2.05,3.38 -4.1,6.1 -7.52,8.15 -2.76,1.37 -6.17,2.71 -10.26,2.71 -5.48,0 -10.94,-2.04 -14.37,-6.1 -4.13,-4.09 -6.17,-9.56 -6.17,-17.04 0,-4.09 1.37,-8.19 2.76,-10.9 2.04,-3.39 4.09,-6.14 7.5,-7.48zm2.76 -14.29c0,2.72 0.67,4.76 2.04,6.11 1.38,2.04 2.72,2.75 4.81,2.75 2.71,0 4.08,-0.71 5.46,-2.75 1.34,-1.35 2.05,-3.39 2.05,-6.11 0,-3.42 -0.71,-5.47 -2.05,-6.81 -1.38,-1.37 -2.75,-2.04 -4.79,-2.04 -2.05,0 -4.1,0.67 -5.48,2.04 -1.37,1.34 -2.04,4.06 -2.04,6.81zm-1.37 31.29c0,4.1 0.67,7.52 2.72,9.56 1.37,2.05 3.41,3.39 6.17,3.39 2.04,0 4.09,-1.34 6.13,-3.39 1.37,-2.04 2.09,-4.76 2.09,-8.85 0,-4.09 -0.72,-6.81 -2.09,-8.86 -2.04,-2.04 -4.09,-2.71 -6.13,-2.71 -2.76,0 -4.8,0.67 -6.17,2.71 -2.05,2.05 -2.72,4.77 -2.72,8.15zm-496.04 23.18l0 -74.93 12.3 0 24.62 49.74 0 -49.74 11.66 0 0 74.93 -13.02 0 -23.26 -48.36 0 48.36 -12.3 0zm69.1 -19.75c-4.8,0 -8.89,-2.05 -11.63,-5.44 -3.44,-4.09 -4.8,-8.85 -4.8,-14.99 0,-6.81 1.36,-11.57 4.8,-15.66 2.74,-3.43 6.83,-5.44 11.63,-5.44 4.76,0 8.89,2.01 11.6,6.11 3.44,4.09 4.81,8.85 4.81,14.99 0,6.14 -1.37,10.9 -4.09,14.99 -3.43,3.39 -6.84,5.44 -12.32,5.44zm0.67 -32c-4.08,0 -5.47,4.09 -5.47,12.24 0,6.81 1.39,10.23 4.8,10.23 3.43,0 5.48,-4.09 5.48,-12.28 0,-6.8 -2.05,-10.19 -4.81,-10.19zm-15.74 36.76l30.11 0 0 11.57 -30.11 0 0 -11.57zm0 11.57l0 -11.57 0 11.57z"/>
   <path class="fil1" d="M1180.9 316.52l35.56 0 0 266.94 -35.56 0 0 -266.94zm86.88 181.15l32.86 -2.72c2.03,12.91 5.47,24.52 10.92,32.67 6.18,8.85 15.07,15.66 27.39,21.13 12.31,5.43 26,8.15 41.06,8.15 13.65,0 25.29,-2.05 35.56,-6.1 10.94,-4.1 18.49,-9.56 23.24,-17.04 5.5,-6.81 7.55,-14.29 7.55,-22.47 0,-8.19 -2.05,-15.67 -6.84,-21.81 -4.79,-6.1 -13.01,-11.57 -24.62,-15.66 -6.84,-2.72 -22.59,-7.48 -47.23,-12.91 -25.3,-6.14 -42.41,-11.61 -52.01,-17.04 -12.99,-6.81 -22.57,-14.99 -28.72,-25.19 -6.17,-9.52 -9.6,-20.42 -9.6,-32.7 0,-13.62 4.14,-26.57 11.65,-38.14 7.51,-11.57 19.16,-20.42 33.51,-26.56 15.06,-6.1 31.5,-9.53 49.28,-9.53 19.84,0 37.62,3.43 52.68,9.53 15.06,6.84 26.71,16.37 34.89,28.61 8.22,12.28 13.01,26.56 13.68,42.23l-34.22 2.04c-2.05,-16.33 -8.18,-29.28 -18.45,-38.13 -10.96,-8.19 -26,-12.95 -47.19,-12.95 -21.24,0 -36.97,4.09 -46.54,12.28 -10.26,7.48 -15.07,17 -15.07,27.9 0,9.53 3.44,17.71 10.27,23.85 6.84,6.1 25.34,12.24 54.05,19.05 28.75,6.81 48.58,12.28 58.85,17.04 15.73,6.81 27.36,16.33 34.89,27.23 7.51,10.9 10.96,23.15 10.96,37.43 0,14.33 -4.12,27.94 -12.34,40.18 -8.18,12.95 -19.83,22.48 -34.89,29.29 -15.04,7.51 -32.84,10.9 -52.01,10.9 -23.95,0 -44.45,-4.1 -60.89,-10.9 -16.4,-6.81 -28.7,-17.68 -38.3,-32 -9.56,-13.62 -14.37,-29.95 -14.37,-47.66zm250.42 -44.28c0,-44.23 11.63,-78.98 35.58,-103.5 23.95,-25.19 55.43,-38.14 93.04,-38.14 24.62,0 47.24,6.14 67.06,17.71 19.83,12.28 34.89,28.61 45.15,49.71 10.26,20.43 15.73,44.27 15.73,71.51 0,26.56 -5.47,51.08 -16.4,72.18 -10.96,21.8 -26.7,37.46 -46.52,48.36 -20.55,11.57 -41.74,17.01 -65.02,17.01 -25.31,0 -47.88,-6.14 -67.74,-18.38 -20.54,-12.24 -35.56,-28.61 -45.82,-49.71 -10.28,-21.1 -15.06,-42.9 -15.06,-66.75zm36.93 0.71c0,32 8.22,57.19 26,76.24 17.1,18.41 39.02,27.27 65.02,27.27 26.67,0 48.58,-8.86 66.36,-27.94 17.11,-18.38 25.32,-44.95 25.32,-78.99 0,-21.8 -3.43,-40.85 -10.98,-57.19 -6.84,-16.37 -17.78,-28.61 -32.12,-37.46 -14.36,-8.86 -30.11,-13.62 -47.91,-13.62 -25.31,0 -46.54,8.86 -64.99,25.86 -17.78,17.04 -26.7,45.65 -26.7,85.83zm361.28 67.42l31.47 -2.76c2.72,15 7.5,25.9 15.02,32.71 7.55,6.14 17.82,9.52 29.43,9.52 10.26,0 19.15,-2.04 26.69,-6.81 7.53,-4.76 13.7,-10.9 18.49,-18.38 4.77,-8.18 8.89,-18.38 12.32,-31.32 3.41,-12.95 4.75,-26.57 4.75,-40.18l0 -6.81c-6.84,10.9 -15.73,19.08 -26.67,25.89 -11.63,6.1 -23.95,9.53 -36.92,9.53 -22.59,0 -41.07,-8.19 -56.8,-23.85 -15.06,-16.34 -22.59,-37.43 -22.59,-63.33 0,-27.23 8.22,-49.03 23.96,-65.37 15.73,-17.03 36.27,-25.18 60.18,-25.18 17.11,0 33.55,4.76 47.92,14.28 14.35,9.53 25.33,22.48 32.84,40.19 7.51,17.03 10.94,42.22 10.94,74.89 0,34.04 -3.43,61.31 -10.94,81.74 -7.51,19.72 -18.49,35.38 -33.51,45.61 -14.41,10.9 -31.51,16.34 -51.33,16.34 -21.21,0 -38.32,-6.14 -51.3,-17.71 -13.02,-11.57 -21.23,-27.91 -23.95,-49zm134.76 -117.83c0,-18.38 -5.48,-33.37 -15.04,-44.28 -10.25,-11.57 -22.57,-17 -36.25,-17 -15.07,0 -28.05,6.14 -38.32,17.71 -10.96,12.24 -16.44,27.23 -16.44,46.28 0,17.04 5.48,30.66 15.06,41.56 10.27,10.9 23.26,15.67 38.32,15.67 15.73,0 28.05,-4.77 37.63,-15.67 9.56,-10.9 15.04,-25.19 15.04,-44.27zm68.44 48.36c0,-32.03 3.41,-57.22 10.26,-76.27 6.15,-19.75 15.73,-34.75 28.71,-44.94 13.02,-10.23 29.43,-15.66 48.58,-15.66 14.39,0 26.71,3.38 37.65,8.85 10.94,5.43 19.83,14.29 27.38,25.19 6.84,10.9 12.3,23.81 16.4,39.48 4.13,15.66 6.18,36.79 6.18,63.35 0,31.33 -3.44,56.52 -10.28,75.57 -6.17,19.08 -15.72,34.04 -28.74,44.94 -12.99,10.23 -28.72,15.67 -48.59,15.67 -26,0 -45.82,-9.53 -60.88,-27.91 -17.78,-22.47 -26.67,-58.56 -26.67,-108.27zm34.21 0c0,43.57 4.76,72.85 15.04,87.14 10.26,14.99 23.28,21.8 38.3,21.8 15.06,0 28.05,-6.81 38.32,-21.8 10.27,-14.29 15.06,-43.57 15.06,-87.14 0,-44.27 -4.79,-73.55 -15.06,-87.84 -10.27,-14.32 -23.26,-21.8 -38.99,-21.8 -15.06,0 -26.7,6.81 -36.26,19.05 -10.93,16.37 -16.41,46.32 -16.41,90.59zm174.46 0c0,-32.03 3.42,-57.22 9.59,-76.27 6.85,-19.75 16.41,-34.75 29.42,-44.94 12.99,-10.23 28.72,-15.66 48.57,-15.66 14.37,0 26.67,3.38 37.61,8.85 10.98,5.43 19.87,14.29 26.72,25.19 7.5,10.9 12.98,23.81 16.39,39.48 4.1,15.66 6.17,36.79 6.17,63.35 0,31.33 -3.41,56.52 -9.58,75.57 -6.14,19.08 -15.75,34.04 -28.72,44.94 -13.03,10.23 -29.43,15.67 -48.59,15.67 -26,0 -46.52,-9.53 -60.91,-27.91 -17.78,-22.47 -26.67,-58.56 -26.67,-108.27zm33.5 0c0,43.57 5.51,72.85 15.74,87.14 10.26,14.99 23.28,21.8 38.34,21.8 15.04,0 27.34,-6.81 37.61,-21.8 10.27,-14.29 15.73,-43.57 15.73,-87.14 0,-44.27 -5.46,-73.55 -15.73,-87.84 -10.27,-14.32 -22.57,-21.8 -38.3,-21.8 -15.07,0 -27.39,6.81 -36.28,19.05 -10.93,16.37 -17.11,46.32 -17.11,90.59zm298.32 131.41l-32.84 0 0 -209.05c-7.53,7.48 -18.45,14.99 -30.77,22.47 -13.01,7.48 -24.66,13.62 -34.89,17.04l0 -31.33c18.45,-8.85 34.18,-19.08 47.88,-31.32 14.35,-12.28 23.95,-24.52 29.41,-36.09l21.21 0 0 268.28zm102.62 -193.39l37.64 0 0 37.47 -37.64 0 0 -37.47zm0 155.93l37.64 0 0 37.46 -37.64 0 0 -37.46zm259.33 6.14l0 31.32 -177.91 0c0,-8.18 1.38,-15.66 4.12,-22.47 4.81,-12.24 11.61,-23.85 21.88,-36.09 10.27,-11.57 24.66,-24.52 43.12,-40.18 28.74,-23.81 48.56,-42.23 58.84,-56.51 10.25,-13.62 15.73,-27.24 15.73,-39.51 0,-12.92 -4.8,-23.82 -14.37,-32.67 -8.89,-8.86 -21.19,-13.62 -36.25,-13.62 -15.74,0 -28.75,4.76 -38.32,14.29 -9.59,9.52 -14.35,22.47 -14.35,39.51l-33.56 -3.42c2.09,-25.19 10.98,-44.24 26,-57.89 15.06,-12.92 35.6,-19.72 60.9,-19.72 26,0 45.85,7.48 60.89,21.76 15.06,14.33 22.61,31.33 22.61,52.46 0,10.9 -2.09,21.1 -6.17,32 -4.81,10.23 -11.65,21.09 -21.92,32.7 -10.26,10.87 -27.34,26.53 -51.29,46.95 -19.16,16.37 -32.18,27.27 -37.63,33.38 -6.15,6.14 -10.28,11.57 -14.37,17.71l132.05 0zm35.56 -100.09c0,-32.03 3.41,-57.22 9.6,-76.27 6.84,-19.75 16.4,-34.75 29.42,-44.94 12.31,-10.23 28.72,-15.66 48.57,-15.66 14.36,0 26.67,3.38 37.65,8.85 10.92,5.43 19.81,14.29 26.67,25.19 6.84,10.9 12.3,23.81 16.4,39.48 4.12,15.66 6.17,36.79 6.17,63.35 0,31.33 -3.43,56.52 -9.6,75.57 -6.13,19.08 -16.4,34.04 -28.72,44.94 -13.01,10.23 -29.41,15.67 -48.57,15.67 -26,0 -46.52,-9.53 -60.89,-27.91 -17.78,-22.47 -26.7,-58.56 -26.7,-108.27zm33.55 0c0,43.57 5.47,72.85 15.73,87.14 10.26,14.99 22.57,21.8 38.31,21.8 15.06,0 27.38,-6.81 37.65,-21.8 10.23,-14.29 15.73,-43.57 15.73,-87.14 0,-44.27 -5.5,-73.55 -15.73,-87.84 -10.27,-14.32 -22.59,-21.8 -38.35,-21.8 -15.04,0 -27.35,6.81 -36.24,19.05 -11.63,16.37 -17.1,46.32 -17.1,90.59zm175.16 0c0,-32.03 2.71,-57.22 9.56,-76.27 6.17,-19.75 16.43,-34.75 28.74,-44.94 12.99,-10.23 29.43,-15.66 48.57,-15.66 14.37,0 27.38,3.38 38.32,8.85 10.27,5.43 19.83,14.29 26.67,25.19 6.84,10.9 12.32,23.81 16.45,39.48 4.09,15.66 6.12,36.79 6.12,63.35 0,31.33 -3.41,56.52 -9.56,75.57 -6.84,19.08 -16.44,34.04 -29.41,44.94 -12.32,10.23 -28.76,15.67 -48.59,15.67 -25.99,0 -45.86,-9.53 -60.88,-27.91 -17.82,-22.47 -25.99,-58.56 -25.99,-108.27zm33.51 0c0,43.57 4.79,72.85 15.05,87.14 10.28,14.99 23.25,21.8 38.31,21.8 15.03,0 28.05,-6.81 38.32,-21.8 10.27,-14.29 15.06,-43.57 15.06,-87.14 0,-44.27 -4.79,-73.55 -15.06,-87.84 -10.27,-14.32 -23.29,-21.8 -38.32,-21.8 -15.06,0 -27.36,6.81 -36.25,19.05 -11.65,16.37 -17.11,46.32 -17.11,90.59zm225.1 -13.61c-13.68,-4.8 -23.29,-11.61 -30.13,-21.13 -6.83,-8.86 -10.27,-20.43 -10.27,-33.38 0,-19.05 7.55,-35.38 21.24,-48.33 14.37,-13.62 32.84,-20.42 56.1,-20.42 23.24,0 42.44,6.8 56.08,20.42 14.41,13.62 21.92,29.95 21.92,49.71 0,12.24 -3.43,23.14 -10.27,32 -6.13,9.52 -15.73,16.33 -29.43,21.13 16.44,5.43 28.77,14.28 37.66,25.86 8.22,12.27 12.98,26.56 12.98,42.89 0,22.48 -8.2,42.23 -24.64,57.22 -16.4,15.67 -37.63,23.82 -63.64,23.82 -26.67,0 -47.87,-8.15 -64.3,-23.82 -16.41,-15.66 -23.93,-34.74 -23.93,-57.89 0,-17.71 4.11,-31.99 13,-43.6 8.89,-12.24 21.19,-19.72 37.63,-24.48zm-6.18 -55.18c0,12.28 4.13,22.47 11.65,30.66 8.21,8.15 19.15,12.24 32.13,12.24 13.02,0 23.29,-4.09 31.51,-12.24 8.18,-7.52 11.61,-17.71 11.61,-29.28 0,-11.61 -4.1,-21.8 -12.32,-29.99 -8.22,-8.15 -18.45,-12.24 -30.8,-12.24 -12.98,0 -23.24,4.09 -31.45,11.57 -8.2,8.19 -12.33,17.71 -12.33,29.28zm-10.93 123.26c0,9.53 2.04,18.38 6.15,27.24 4.78,8.85 11.63,15.66 19.85,20.42 8.89,4.77 18.49,6.81 28.71,6.81 15.78,0 28.75,-4.76 39.02,-14.99 10.27,-10.2 15.06,-23.14 15.06,-38.14 0,-16.33 -4.79,-29.28 -15.73,-39.47 -10.27,-10.23 -23.28,-15.67 -39.68,-15.67 -15.06,0 -28.08,5.44 -38.32,15.67 -10.26,10.19 -15.06,23.14 -15.06,38.13z"/>
  </g>
 </g>
</svg>
