<?xml version="1.0" encoding="UTF-8"?>
<!DOCTYPE svg PUBLIC "-//W3C//DTD SVG 1.1//EN" "http://www.w3.org/Graphics/SVG/1.1/DTD/svg11.dtd">
<!-- Creator: CorelDRAW 2018 (64-Bit) -->
<svg xmlns="http://www.w3.org/2000/svg" xml:space="preserve" width="16mm" height="16mm" version="1.1" style="shape-rendering:geometricPrecision; text-rendering:geometricPrecision; image-rendering:optimizeQuality; fill-rule:evenodd; clip-rule:evenodd"
viewBox="0 0 1600 1600"
 xmlns:xlink="http://www.w3.org/1999/xlink">
 <defs>
  <style type="text/css">
   <![CDATA[
    .str0 {stroke:#262626;stroke-width:9.98;stroke-miterlimit:10}
    .fil0 {fill:none;fill-rule:nonzero}
    .fil1 {fill:#262626;fill-rule:nonzero}
    .fil4 {fill:#747676;fill-rule:nonzero}
    .fil2 {fill:#D22E26;fill-rule:nonzero}
    .fil3 {fill:#FEFEFE;fill-rule:nonzero}
   ]]>
  </style>
 </defs>
 <g id="Слой_x0020_1">
  <metadata id="CorelCorpID_0Corel-Layer"/>
  <g id="_3080124784928">
   <path class="fil0 str0" d="M800.65 16.99c429.52,0 777.19,349.99 777.19,783.63 0,432.4 -347.67,782.39 -777.19,782.39 -430.81,0 -778.48,-349.99 -778.48,-782.39 0,-433.64 347.67,-783.63 778.48,-783.63z"/>
   <polygon class="fil1" points="472.41,480.36 394.45,480.36 413.32,401.87 671.09,401.87 650.99,479.09 549.1,479.09 508.89,651.25 425.89,651.25 "/>
   <polygon class="fil1" points="697.52,403.15 824.52,403.15 834.61,541.12 891.2,403.15 974.18,403.15 857.22,651.26 777.99,651.26 759.16,480.37 682.43,480.37 "/>
   <path class="fil1" d="M576.79 487.96c-6.28,22.79 -11.31,45.58 -16.33,68.37 -6.31,25.29 -15.1,48.08 -1.27,72.14 11.32,21.52 33.94,30.38 64.14,32.92 30.16,0 59.09,-3.81 79.24,-24.06 20.1,-18.98 22.61,-35.46 28.92,-59.48l20.11 -88.62 -72.96 0c-6.28,25.3 -12.55,50.63 -17.6,75.95 -2.5,7.59 -3.77,20.25 -10.05,25.3 -7.56,6.35 -18.87,2.54 -21.39,-7.59 -1.23,-6.31 2.52,-18.98 5.06,-26.56l15.1 -67.1 -72.97 -1.27z"/>
   <path class="fil2" d="M990.55 403.15c-7.55,35.45 -16.37,69.64 -23.89,105.05 -7.54,35.46 -17.6,67.1 -3.78,103.83 11.3,31.64 35.22,48.08 70.42,51.89 40.25,-1.27 74.18,-13.93 98.11,-43.04 23.89,-29.14 28.89,-63.29 37.7,-98.74 8.82,-39.23 17.62,-79.76 26.43,-118.99l-204.99 0z"/>
   <path class="fil3" d="M1083.6 417.07c7.55,-6.31 16.33,-8.85 28.94,-5.08 -8.82,7.62 -16.34,10.16 -28.94,5.08z"/>
   <polygon class="fil3" points="1037.08,415.8 1029.53,415.8 1033.32,422.15 1028.26,429.73 1035.81,429.73 1039.59,437.32 1044.59,429.73 1052.14,429.73 1049.65,422.15 1053.46,415.8 1045.86,415.8 1043.36,408.21 "/>
   <polygon class="fil3" points="1140.2,415.8 1132.66,415.8 1135.16,422.15 1131.39,429.73 1137.66,429.73 1141.45,437.32 1147.73,429.73 1154.03,429.73 1151.49,422.15 1156.55,415.8 1149,415.8 1145.21,408.21 "/>
   <polygon class="fil3" points="1152.78,481.65 1146.51,481.65 1149.01,487.96 1143.97,494.28 1151.51,494.28 1155.29,501.86 1160.3,494.28 1167.84,494.28 1165.34,487.96 1169.11,481.65 1162.8,481.65 1159.06,474.03 "/>
   <polygon class="fil3" points="1116.3,513.27 1108.75,513.27 1112.53,519.62 1107.52,525.93 1115.03,525.93 1118.8,533.52 1123.85,525.93 1131.36,525.93 1128.87,519.62 1132.68,513.27 1125.08,513.27 1122.58,504.42 "/>
   <polygon class="fil3" points="990.53,494.28 983,494.28 986.76,500.63 981.75,506.95 989.26,506.95 993.04,514.53 998.08,506.95 1005.61,506.95 1003.09,500.63 1006.9,494.28 999.33,494.28 996.81,485.43 "/>
   <polygon class="fil3" points="1131.39,562.64 1123.86,562.64 1126.38,568.99 1122.59,575.31 1128.87,575.31 1132.66,582.89 1137.66,575.31 1145.21,575.31 1142.71,568.99 1147.75,562.64 1140.2,562.64 1136.43,555.06 "/>
   <polygon class="fil3" points="988.03,574.04 980.48,574.04 984.26,580.35 979.21,586.7 986.76,586.7 990.53,595.56 995.54,586.7 1003.09,586.7 1000.6,580.35 1004.41,574.04 996.81,574.04 994.31,566.45 "/>
   <path class="fil3" d="M1097.43 423.4c0,5.05 -2.5,7.59 -6.28,7.59 -3.76,-1.27 -3.76,-3.78 -2.54,-7.59 -18.83,-3.81 -22.61,2.54 -22.61,11.4 8.79,-1.27 17.6,-1.27 21.39,2.54 6.27,3.77 5,12.63 1.22,17.71 -5.01,5.08 -11.28,5.08 -18.83,2.54 -3.78,0 -3.78,1.27 -1.27,3.77 12.59,6.35 25.15,5.08 37.7,-8.85 5.06,-7.59 7.55,-15.17 10.09,-24.06 7.55,-5.05 12.57,-8.86 10.07,-13.9 -3.79,-5.08 -10.07,-2.54 -17.62,3.77 -2.54,2.54 -6.28,3.81 -11.32,5.08z"/>
   <path class="fil3" d="M1053.42 443.66c-2.5,-1.27 -3.77,-1.27 -3.77,2.54 0,2.5 1.27,3.77 2.5,5.04 3.78,2.54 10.09,0 13.83,1.27 6.31,0 10.1,6.35 17.64,2.54 5,-1.27 6.27,-5.08 5,-8.85 0,-5.08 -3.77,-7.62 -7.54,-7.62 2.54,1.27 3.77,2.54 3.77,3.81 1.27,3.81 0,8.85 -3.77,8.85 -3.78,1.27 -7.54,-2.54 -11.33,-3.77l-7.51 0c-5.04,1.23 -8.82,0 -8.82,-3.81z"/>
   <path class="fil3" d="M1053.42 468.97c-8.81,3.81 -16.34,8.86 -22.64,16.44 -2.52,-5.04 -6.29,-10.12 -10.06,-13.9 -2.51,-2.54 -6.27,-3.81 -8.79,0 -2.54,5.05 -6.31,6.32 -12.59,6.32 1.27,-3.78 1.27,-7.59 6.28,-8.86 2.54,-2.54 6.31,-5.08 0,-3.81 -12.56,3.81 -8.78,-10.12 -1.23,-7.58 5,2.54 5,0 3.77,-3.81 -1.27,-1.24 -3.77,-2.51 -5.04,-3.78 -2.51,-3.81 1.27,-7.62 6.27,-5.08 1.27,1.27 1.27,2.54 2.54,3.81 2.52,2.54 7.52,1.27 6.28,-2.54 -2.49,-3.81 -3.76,-6.31 -1.27,-8.85 6.28,-1.27 8.82,3.81 7.55,16.44 6.29,6.35 17.6,11.39 28.93,15.2z"/>
   <path class="fil3" d="M1115.04 447.45c-5.03,13.94 -18.87,22.79 -41.49,24.06 -28.92,-2.54 -45.29,16.44 -57.84,43.04 0,3.78 2.49,2.54 5.01,2.54 5.04,-7.62 10.05,-16.47 16.36,-24.06 2.51,-2.54 3.78,-1.27 3.78,1.27 -5.05,8.86 -10.09,16.44 -16.37,24.03 2.54,1.27 5.04,2.54 7.55,1.27 6.28,-8.86 12.59,-16.44 17.61,-25.3 3.76,-2.54 5.03,-1.27 5.03,1.27 -6.28,8.86 -11.32,17.71 -17.6,25.3 2.51,1.27 5.01,2.54 8.78,1.27 6.28,-8.86 12.6,-17.71 18.87,-27.84 2.52,-1.27 3.79,-1.27 3.79,1.27 -5.06,8.86 -10.06,17.71 -16.38,26.57l7.55 0c6.31,-8.86 12.59,-17.71 18.87,-27.84 3.79,-2.54 5.06,-1.27 3.79,1.27 -5.01,8.86 -10.07,16.44 -16.35,25.3l10.07 0c6.28,-8.86 11.32,-18.98 17.6,-27.84 3.77,-2.54 5.01,-1.27 5.01,1.27 -5.01,7.59 -11.29,16.44 -16.33,24.03 7.54,0 13.82,-3.78 20.1,-15.17 8.83,-18.98 13.86,-36.73 12.59,-55.71z"/>
   <path class="fil3" d="M1042.1 525.93c16.33,0 31.44,0 46.54,-5.08 7.54,12.67 16.34,22.79 31.42,24.06 15.1,-2.5 22.66,-10.12 23.89,-24.06 0,-6.31 -1.23,-11.35 -3.73,-15.16 -2.54,-7.59 -6.33,-8.86 -7.55,-16.48 0,-3.77 0,-7.58 1.22,-11.36 0,-20.28 7.56,-30.41 18.88,-34.18 -5.04,3.77 -8.82,8.85 -10.05,13.9 5.01,-2.51 8.78,-5.05 12.56,-7.59 -1.24,2.54 -2.51,6.35 -5.01,7.59 -5.05,2.54 -8.82,6.35 -8.82,10.12 7.55,-2.5 15.1,-6.31 21.37,-20.25 0,11.4 -5,19.02 -15.09,24.06 -25.15,11.4 -5.01,26.6 -1.24,40.5 1.24,-2.5 2.51,-2.5 3.78,-2.5 -1.27,2.5 -2.54,5.04 -2.54,8.85 2.54,-1.27 3.77,-1.27 5.04,-1.27 -2.5,2.54 -3.77,5.04 -3.77,7.58 1.27,-1.27 3.77,-2.54 5.04,-1.27 -2.54,2.54 -3.77,5.08 -6.31,7.62 -7.51,12.63 -15.06,18.98 -23.88,21.52 -12.57,1.24 -20.12,6.32 -20.12,15.17 1.25,13.94 10.05,20.25 23.88,21.52 -5.03,2.54 -6.28,3.81 -1.27,5.08 -3.76,3.78 -3.76,5.05 1.27,6.32 -5.03,2.54 -10.04,2.54 -15.1,2.54 -3.77,5.04 -7.53,11.39 -10.05,17.71 -5.03,11.39 -11.32,16.47 -18.87,17.74 -2.5,3.78 -6.28,3.78 -10.05,2.51 1.27,-2.51 2.5,-5.05 6.28,-6.32 2.54,-1.27 3.77,-5.08 0,-3.81 -2.51,3.81 -6.28,3.81 -10.05,2.54 1.27,-3.81 3.77,-6.31 7.54,-6.31 3.78,0 3.78,-3.81 1.27,-3.81 -5.04,1.27 -7.54,1.27 -8.81,-2.54 3.77,-2.51 7.54,-3.78 12.59,-1.27 1.23,0 2.5,1.27 3.77,1.27 3.78,-1.27 3.78,-2.51 5.01,-5.05 2.54,-3.81 5.04,-7.62 7.56,-12.66 1.27,-2.54 2.49,-5.08 -1.27,-5.08l-10.06 0c-8.79,-1.27 -11.33,-7.59 -11.33,-15.17 0,-8.86 6.32,-10.13 6.32,-17.75 1.23,-3.77 0,-7.58 -2.54,-10.12 -5.01,-6.32 -11.3,-6.32 -18.85,-8.86 -8.82,-3.77 -15.09,-11.39 -18.87,-20.25z"/>
   <path class="fil3" d="M1073.54 572.77c5.04,-2.54 6.29,-7.58 3.77,-16.44 -5.04,-7.62 -13.82,-5.08 -22.64,0 -13.84,8.86 -25.16,15.17 -31.44,12.63 -1.27,2.54 0,3.81 1.27,5.08l-5.03 0c2.49,2.54 3.76,3.81 5.03,5.08 -1.27,1.24 -2.54,2.51 -3.76,2.51 1.22,1.27 2.49,2.54 5,2.54 0,0 -1.24,1.27 -2.51,2.54 3.78,2.54 6.28,2.54 10.05,0 0,1.27 1.27,2.54 1.27,2.54 -8.81,5.04 -17.6,10.12 -26.41,15.17 -2.51,1.27 -5.01,1.27 -8.79,-2.54 -3.77,-3.78 -7.55,-2.51 -13.82,2.54 2.5,1.27 6.27,2.54 8.78,2.54 1.27,1.27 1.27,2.54 -1.27,3.81 -3.74,-1.27 -6.28,0 -8.78,3.77 2.5,1.27 6.27,2.54 8.78,2.54 2.54,0 2.54,1.27 1.27,2.54 -7.55,1.27 -8.78,3.78 -7.55,7.59 3.77,1.27 7.55,0 11.32,-3.81 5.05,-3.78 8.82,-2.51 12.6,1.27 0,-2.54 1.23,-6.32 2.5,-8.86 11.32,-7.58 21.37,-8.85 26.43,-1.27l0 -7.58c3.74,0 7.5,1.27 8.77,2.54l0 -3.81c1.27,-1.27 2.52,-1.27 5.06,-2.54 -1.27,-1.27 -2.54,-2.54 -3.79,-3.78 -2.54,-13.93 7.56,-15.2 23.89,-26.6z"/>
   <polygon class="fil3" points="1039.6,633.54 1032.05,633.54 1034.54,639.85 1030.78,646.2 1038.33,646.2 1042.09,653.79 1047.11,646.2 1054.66,646.2 1050.88,639.85 1055.96,633.54 1048.38,633.54 1044.61,625.95 "/>
   <path class="fil1" d="M482.48 715.82l-25.15 0 2.5 -8.86 61.63 0 -2.5 8.86 -25.15 0 -15.11 73.41 -10.04 0 13.82 -73.41zm50.3 35.45l-7.54 37.96 -10.06 0 16.33 -82.27 10.06 0 -6.27 34.19 38.97 0 7.55 -34.19 10.05 0 -16.33 82.27 -11.33 0 8.83 -37.96 -40.26 0zm76.7 -44.31l10.08 0 -8.81 49.36c-1.27,2.54 -1.27,5.08 -1.27,6.35 0,1.23 -1.24,2.5 0,3.77 0,5.08 1.27,8.89 3.77,12.67 2.54,2.54 6.31,3.81 12.59,3.81 6.28,0 12.57,-1.27 16.34,-6.35 3.78,-3.78 7.55,-10.13 8.82,-20.25l10.05 -49.36 11.33 0 -10.06 50.63c-2.54,11.39 -6.31,20.25 -12.59,25.33 -5.01,6.31 -13.82,8.85 -23.89,8.85 -10.05,0 -16.36,-1.27 -21.36,-5.08 -3.79,-3.77 -6.28,-10.12 -6.28,-17.71l0 -5.08c0,-2.5 1.22,-5.04 1.22,-6.31l10.06 -50.63zm62.9 82.27l17.61 -82.27 32.69 0c7.55,0 13.83,1.27 17.61,5.05 3.77,2.54 5,7.62 5,13.93 0,5.08 -1.23,10.13 -3.73,15.21 -3.81,3.77 -7.54,7.58 -11.33,8.85l-1.27 0c2.52,1.27 5.06,2.51 6.28,5.05 0,1.27 1.27,3.81 1.27,6.35l0 2.5c0,1.27 -1.27,5.08 -2.49,11.43l0 5.05c-1.27,2.54 -1.27,3.81 -1.27,5.08 0,0 0,1.23 1.27,1.23 0,1.27 0,2.54 1.22,2.54l-11.31 0c-1.25,0 -1.25,-1.27 -1.25,-2.54l0 -1.23c0,0 0,-5.08 2.52,-15.21l0 -3.81 0 -2.54c0,-3.77 -1.27,-5.04 -2.52,-7.58 -2.54,-1.27 -5.04,-1.27 -10.05,-1.27l-22.64 0 -6.28 34.18 -11.33 0zm25.16 -73.41l-5.06 29.1 23.89 0c5.04,0 8.83,-1.27 12.59,-5.04 3.79,-2.54 6.28,-7.62 6.28,-12.67 0,-3.81 -1.22,-6.31 -3.76,-8.85 -1.25,-1.27 -5.01,-2.54 -10.07,-2.54l-23.87 0zm67.91 -8.86l11.32 0 -17.65 82.27 -10.04 0 16.37 -82.27zm36.47 17.71l-12.6 64.56 -10.05 0 16.33 -82.27 10.05 0 28.94 64.56 13.86 -64.56 10.05 0 -16.36 82.27 -10.06 0 -30.16 -64.56zm103.12 21.52l32.69 0 -8.81 43.04 -8.79 0 2.52 -10.12c-5.06,5.08 -8.83,8.85 -12.6,10.12 -3.78,2.54 -8.79,2.54 -15.1,2.54 -10.05,0 -17.6,-2.54 -23.89,-8.85 -5.01,-6.35 -7.55,-15.21 -7.55,-26.6 0,-13.9 3.78,-26.57 12.59,-36.69 8.8,-10.13 20.12,-15.21 35.22,-15.21 8.81,0 16.33,2.54 21.37,6.32 5.04,5.08 7.56,10.16 7.56,17.74l-1.27 1.27 0 1.27 -10.06 0 0 -2.54c0,-5.08 -2.51,-7.58 -5.05,-10.12 -3.74,-3.81 -7.55,-5.08 -13.82,-5.08 -11.33,0 -18.85,5.08 -25.15,12.66 -6.28,8.86 -10.07,18.98 -10.07,30.38 0,8.85 2.52,15.2 6.28,19.01 3.79,5.05 8.82,7.59 16.38,7.59 7.55,0 13.83,-2.54 17.6,-7.59 5.04,-3.81 8.78,-11.43 10.05,-19.01l-22.64 0 2.54 -10.13zm60.36 -3.77l40.22 0 -1.25 8.85 -41.51 0 -6.28 29.11 47.79 0 -2.5 8.85 -56.61 0 16.36 -82.27 56.58 0 -2.49 8.86 -45.3 0 -5.01 26.6zm71.68 -17.75l-13.82 64.56 -10.09 0 16.36 -82.27 11.33 0 28.93 64.56 12.56 -64.56 11.32 0 -17.6 82.27 -10.07 0 -28.92 -64.56z"/>
   <path class="fil3" d="M1014.44 519.61c8.82,1.27 16.33,3.81 25.15,6.31 -1.27,6.35 -3.78,10.16 -7.55,12.67 0,-2.51 0,-3.78 -1.27,-6.32 -3.74,1.27 -3.74,10.13 -7.51,11.4 1.23,-3.81 1.23,-6.35 -1.27,-7.59 -1.27,2.51 -2.52,6.32 -6.28,8.86 1.22,-2.54 1.22,-3.81 0,-5.08 -1.27,2.54 -5.06,3.81 -8.82,3.81 -3.79,-1.27 -5.02,0 -6.29,3.77 0,6.35 0,10.16 -2.5,12.66 -1.27,1.27 -2.54,1.27 -3.78,0 -1.27,-2.5 -1.27,-3.77 -1.27,-6.31 0,-3.81 -1.27,-3.81 -2.49,-2.54 -1.27,5.08 -3.79,7.58 -6.33,10.12 -1.22,0 -1.22,0 -1.22,-1.27 -1.27,-5.04 0,-7.58 2.49,-8.85 1.27,-2.54 1.27,-3.81 -1.27,-3.81 -3.74,5.08 -7.51,6.35 -10.05,5.08 -1.23,0 -2.5,-1.27 -1.23,-2.54 1.23,-3.77 3.77,-7.58 10.06,-7.58 2.49,-1.27 5.03,-2.54 1.22,-5.08 -3.74,0 -6.28,0 -8.78,-2.51 -1.27,0 -1.27,-1.27 0,-2.54 3.77,-3.81 10.05,-3.81 17.6,-2.54 12.59,0 18.87,-3.81 21.39,-10.12z"/>
   <polygon class="fil1" points="635.89,682.91 632.12,696.81 640.94,696.81 643.44,682.91 "/>
   <polygon class="fil1" points="656.02,682.91 652.25,696.81 661.07,696.81 663.57,682.91 "/>
   <path class="fil1" d="M452.28 1113.31l15.11 0 0 73.41 -15.11 0 0 -73.41zm25.15 49.35l15.11 -1.27c1.27,5.08 2.5,8.89 5.04,10.13 2.51,2.54 6.28,3.81 11.29,3.81 5.04,0 8.83,-1.27 11.32,-2.54 2.54,-2.51 3.78,-5.05 3.78,-7.59 0,-1.27 -1.24,-2.54 -2.51,-3.81 0,-1.23 -2.49,-2.54 -5.03,-3.77 -1.25,0 -6.29,-1.27 -11.33,-2.54 -8.79,-2.54 -13.83,-5.08 -17.6,-7.59 -5.01,-3.81 -6.28,-8.89 -6.28,-15.2 0,-3.81 0,-6.32 2.49,-10.13 2.54,-3.81 5.06,-5.08 8.83,-7.58 5.04,-1.27 10.05,-2.54 15.1,-2.54 10.06,0 16.33,2.54 21.37,6.31 5.02,3.81 7.56,8.86 7.56,16.48l-15.11 0c-1.27,-3.81 -2.49,-6.35 -3.76,-7.62 -2.52,-2.51 -6.29,-2.51 -10.06,-2.51 -3.78,0 -7.55,1.27 -10.06,2.51 -1.27,1.27 -2.54,2.54 -2.54,3.81 0,2.54 1.27,3.81 2.54,5.08 1.24,1.27 6.28,2.5 13.83,5.04 7.56,1.27 12.56,3.81 16.33,5.08 3.77,1.27 6.29,3.78 7.56,7.59 2.49,2.54 3.76,6.35 3.76,11.39 0,3.81 -1.27,7.59 -3.76,11.4 -2.52,3.81 -6.29,6.31 -10.06,8.85 -5.05,1.27 -10.06,2.54 -16.37,2.54 -10.05,0 -16.33,-2.54 -21.37,-6.35 -5.01,-5.04 -8.8,-10.12 -10.07,-18.98zm70.45 -12.66c0,-7.59 1.25,-12.63 3.75,-17.71 1.27,-3.81 3.77,-7.59 7.55,-10.13 2.54,-3.81 5.04,-5.08 8.82,-7.58 5,-1.27 10.06,-2.54 16.33,-2.54 11.33,0 20.15,3.81 26.43,10.12 6.28,6.32 10.05,16.44 10.05,27.84 0,11.39 -3.77,21.52 -10.05,27.87 -6.28,6.31 -15.1,10.12 -26.43,10.12 -11.33,0 -20.11,-3.81 -26.39,-10.12 -6.31,-6.35 -10.06,-15.21 -10.06,-27.87zm16.34 0c0,7.62 1.27,13.93 5.05,19.01 3.73,3.78 8.79,6.32 15.06,6.32 6.31,0 11.33,-2.54 15.09,-6.32 3.79,-5.08 5.06,-11.39 5.06,-19.01 0,-8.86 -1.27,-15.17 -5.06,-18.98 -3.76,-3.81 -8.78,-6.32 -15.09,-6.32 -6.27,0 -11.33,2.51 -15.06,6.32 -3.78,3.81 -5.05,10.12 -5.05,18.98zm94.33 19.01l13.84 -1.27c0,2.54 1.22,5.05 2.49,6.32 1.27,1.27 3.79,2.54 6.29,2.54 2.54,0 5.04,-1.27 7.55,-3.81 1.27,-3.78 2.5,-8.86 3.77,-16.44 -3.77,3.81 -8.78,5.04 -13.82,5.04 -6.28,0 -11.34,-1.23 -15.1,-6.31 -3.79,-3.81 -6.29,-10.13 -6.29,-17.71 0,-6.35 2.5,-12.67 6.29,-17.75 5.03,-3.77 10.04,-6.31 17.6,-6.31 7.55,0 13.83,2.54 18.87,8.85 5.04,5.05 7.56,15.21 7.56,27.84 0,13.93 -2.52,22.79 -7.56,29.14 -6.28,6.31 -12.56,8.85 -20.1,8.85 -6.33,0 -11.34,-1.27 -13.88,-5.08 -3.76,-2.5 -6.28,-7.58 -7.51,-13.9zm32.67 -30.41c0,-3.77 -1.23,-7.58 -3.74,-10.12 -1.27,-2.51 -3.77,-3.78 -7.54,-3.78 -2.54,0 -3.79,1.27 -6.33,3.78 -1.22,1.27 -2.49,5.08 -2.49,8.89 0,5.04 1.27,8.85 2.49,11.39 2.54,1.24 5.06,2.51 7.56,2.51 2.54,0 5.04,-1.27 7.55,-2.51 1.27,-2.54 2.5,-5.08 2.5,-10.16zm49.08 -25.29c7.55,0 12.55,2.54 17.6,7.58 5.01,6.32 6.28,15.21 6.28,29.11 0,13.93 -1.27,24.06 -6.28,30.41 -5.05,5.04 -10.05,7.58 -17.6,7.58 -7.55,0 -12.61,-2.54 -17.62,-8.85 -3.77,-5.08 -6.31,-15.21 -6.31,-29.14 0,-13.9 2.54,-22.79 7.56,-29.11 3.76,-5.04 8.82,-7.58 16.37,-7.58zm0 11.39c-1.27,0 -2.54,1.27 -5.06,1.27 -1.27,1.24 -1.27,3.78 -2.49,6.32 -1.27,3.81 -1.27,10.12 -1.27,17.71 0,8.85 0,15.2 1.27,17.74 1.22,3.78 1.22,6.32 2.49,6.32 2.52,1.27 3.79,2.54 5.06,2.54 2.49,0 3.76,-1.27 5.01,-2.54 1.27,0 2.54,-2.54 2.54,-5.05 1.23,-3.81 2.5,-10.16 2.5,-19.01 0,-7.59 -1.27,-13.9 -2.5,-17.71 0,-2.54 -1.27,-5.08 -2.54,-6.32 -1.25,0 -2.52,-1.27 -5.01,-1.27zm57.82 -11.39c7.55,0 13.86,2.54 17.63,7.58 5.01,6.32 7.52,15.21 7.52,29.11 0,13.93 -2.51,24.06 -7.52,30.41 -3.77,5.04 -10.08,7.58 -17.63,7.58 -6.28,0 -12.57,-2.54 -17.61,-8.85 -3.73,-5.08 -6.27,-15.21 -6.27,-29.14 0,-13.9 2.54,-22.79 7.54,-29.11 3.77,-5.04 10.06,-7.58 16.34,-7.58zm0 11.39c-1.25,0 -2.52,1.27 -3.74,1.27 -1.27,1.24 -2.54,3.78 -3.79,6.32 -1.27,3.81 -1.27,10.12 -1.27,17.71 0,8.85 0,15.2 1.27,17.74 1.25,3.78 2.52,6.32 3.79,6.32 1.22,1.27 2.49,2.54 3.74,2.54 2.54,0 3.76,-1.27 5.03,-2.54 1.27,0 2.52,-2.54 3.79,-5.05 0,-3.81 1.27,-10.16 1.27,-19.01 0,-7.59 -1.27,-13.9 -1.27,-17.71 -1.27,-2.54 -2.52,-5.08 -3.79,-6.32 -1.27,0 -2.49,-1.27 -5.03,-1.27zm70.45 62.02l-13.83 0 0 -53.16c-5.06,5.04 -11.33,8.85 -18.87,11.39l0 -12.66c3.76,-1.27 7.54,-3.81 12.54,-7.59 3.79,-2.54 7.55,-7.62 8.82,-11.39l11.34 0 0 73.41zm27.65 -53.16l13.83 0 0 13.93 -13.83 0 0 -13.93zm0 39.23l13.83 0 0 13.93 -13.83 0 0 -13.93zm76.73 1.27l0 12.66 -49.08 0c0,-5.08 1.27,-10.12 3.79,-13.93 3.76,-5.05 8.82,-10.13 16.36,-17.71 6.28,-6.32 10.06,-10.13 12.56,-11.4 1.27,-3.81 2.5,-6.31 2.5,-8.85 0,-3.81 -1.23,-6.35 -2.5,-7.62 -1.27,-1.24 -3.77,-2.51 -7.55,-2.51 -2.5,0 -5.01,1.27 -6.28,2.51 -2.5,2.54 -3.77,5.08 -3.77,8.89l-13.84 -1.27c1.27,-7.62 3.79,-12.67 7.55,-16.48 5.02,-3.77 10.06,-5.04 17.61,-5.04 6.28,0 12.57,1.27 16.33,6.31 5.05,3.81 6.32,7.59 6.32,13.94 0,3.81 0,6.31 -1.27,8.85 -1.27,3.81 -3.78,6.35 -6.27,10.13 -1.27,1.27 -3.79,5.08 -8.83,8.85 -5.01,3.81 -7.55,6.35 -8.78,7.62 -1.27,2.51 -2.54,3.78 -2.54,5.05l27.69 0zm33.94 -60.75c7.55,0 13.83,2.54 17.6,7.58 5.04,6.32 7.56,15.21 7.56,29.11 0,13.93 -2.52,24.06 -7.56,30.41 -3.77,5.04 -10.05,7.58 -17.6,7.58 -6.29,0 -12.57,-2.54 -17.6,-8.85 -3.79,-5.08 -6.28,-15.21 -6.28,-29.14 0,-13.9 2.49,-22.79 7.55,-29.11 3.76,-5.04 10.04,-7.58 16.33,-7.58zm0 11.39c-1.27,0 -2.5,1.27 -3.77,1.27 -1.25,1.24 -2.52,3.78 -3.79,6.32 -1.27,3.81 -1.27,10.12 -1.27,17.71 0,8.85 0,15.2 1.27,17.74 1.27,3.78 2.54,6.32 3.79,6.32 1.27,1.27 2.5,2.54 3.77,2.54 2.5,0 3.77,-1.27 5.04,-2.54 1.24,0 2.51,-2.54 3.78,-5.05 0,-3.81 1.23,-10.16 1.23,-19.01 0,-7.59 -1.23,-13.9 -1.23,-17.71 -1.27,-2.54 -2.54,-5.08 -3.78,-6.32 -1.27,0 -2.54,-1.27 -5.04,-1.27zm57.86 -11.39c7.54,0 13.82,2.54 17.6,7.58 5,6.32 7.54,15.21 7.54,29.11 0,13.93 -2.54,24.06 -7.54,30.41 -3.78,5.04 -10.06,7.58 -17.6,7.58 -6.28,0 -12.61,-2.54 -16.37,-8.85 -5.02,-5.08 -7.52,-15.21 -7.52,-29.14 0,-13.9 2.5,-22.79 7.52,-29.11 3.76,-5.04 10.09,-7.58 16.37,-7.58zm0 11.39c-1.27,0 -2.52,1.27 -3.79,1.27 -1.27,1.24 -2.49,3.78 -3.76,6.32 0,3.81 -1.27,10.12 -1.27,17.71 0,8.85 0,15.2 1.27,17.74 1.27,3.78 2.49,6.32 3.76,6.32 1.27,1.27 2.52,2.54 3.79,2.54 2.5,0 3.77,-1.27 5,-2.54 1.27,0 2.54,-2.54 3.78,-5.05 0,-3.81 1.27,-10.16 1.27,-19.01 0,-7.59 -1.27,-13.9 -1.27,-17.71 -1.24,-2.54 -2.51,-5.08 -3.78,-6.32 -1.23,0 -2.5,-1.27 -5,-1.27zm46.53 22.79c-3.79,-1.27 -6.29,-3.81 -7.56,-6.35 -2.5,-2.54 -2.5,-6.31 -2.5,-8.85 0,-6.32 1.23,-10.13 5,-13.94 3.79,-3.77 10.07,-5.04 17.62,-5.04 6.3,0 12.59,1.27 16.36,5.04 3.78,3.81 5.01,7.62 5.01,13.94 0,2.54 0,6.31 -2.5,8.85 -1.27,2.54 -3.78,5.08 -7.55,6.35 3.77,1.27 7.55,3.78 10.05,6.32 1.27,3.81 2.54,7.58 2.54,11.39 0,6.32 -1.27,12.67 -6.31,16.44 -3.78,3.81 -10.05,6.35 -17.6,6.35 -6.28,0 -12.56,-2.54 -16.35,-5.08 -6.27,-5.04 -8.81,-10.12 -8.81,-17.71 0,-3.81 1.27,-7.58 3.77,-10.12 1.27,-3.81 5.04,-6.32 8.83,-7.59zm2.49 -13.93c0,2.54 1.27,5.04 2.52,6.31 2.54,1.27 3.76,2.54 7.55,2.54 2.54,0 3.76,-1.27 6.3,-2.54 1.25,-2.5 2.52,-3.77 2.52,-6.31 0,-3.81 -1.27,-5.08 -2.52,-6.35 -2.54,-2.51 -3.76,-2.51 -6.3,-2.51 -3.79,0 -5.01,0 -7.55,2.51 -1.25,1.27 -2.52,3.81 -2.52,6.35zm-1.22 30.37c0,3.81 1.22,7.59 3.74,8.86 1.27,2.54 3.76,3.81 7.55,3.81 2.54,0 5.03,-1.27 7.55,-2.54 1.27,-2.54 2.5,-5.05 2.5,-10.13 0,-2.54 -1.23,-5.08 -2.5,-7.58 -2.52,-2.54 -5.01,-3.81 -7.55,-3.81 -3.79,0 -6.28,1.27 -8.8,3.81 -1.27,2.5 -2.49,5.04 -2.49,7.58z"/>
   <path class="fil1" d="M542.85 1300.65l-12.61 0 0 -53.16c-5,5.04 -11.27,8.85 -17.6,11.39l0 -12.66c3.79,-1.27 7.55,-3.81 11.33,-7.59 3.77,-2.54 7.54,-7.58 8.81,-11.39l10.07 0 0 73.41zm20.1 -18.98l12.59 -1.27c1.27,2.54 2.52,5.04 3.79,7.58 2.49,1.27 3.76,2.54 6.28,2.54 2.49,0 5.03,-1.27 7.53,-3.81 1.27,-2.54 2.52,-6.31 2.52,-10.12 0,-5.05 -1.25,-8.86 -2.52,-10.13 -2.5,-2.54 -5.04,-3.77 -7.53,-3.77 -3.79,0 -7.55,1.23 -10.07,5.04l-11.32 -1.27 7.55 -37.95 33.93 0 0 12.66 -23.88 0 -2.49 12.63c2.49,-1.27 6.28,-2.5 8.77,-2.5 6.31,0 11.32,2.5 15.11,7.58 3.76,3.81 6.28,10.12 6.28,16.44 0,6.35 -2.52,11.39 -5.01,16.47 -5.06,6.32 -11.34,10.13 -18.87,10.13 -6.28,0 -11.34,-2.54 -15.11,-5.08 -3.77,-3.78 -6.28,-8.86 -7.55,-15.17zm113.2 18.98l-12.58 0 0 -53.16c-5.02,5.04 -11.33,8.85 -17.6,11.39l0 -12.66c3.76,-1.27 7.54,-3.81 11.31,-7.59 3.77,-2.54 7.56,-7.58 8.83,-11.39l10.04 0 0 73.41zm42.76 -73.41c6.29,0 11.32,2.54 15.11,7.58 5.01,6.35 6.28,15.21 6.28,29.1 0,13.94 -1.27,24.06 -6.28,30.41 -3.79,5.05 -8.82,7.59 -15.11,7.59 -7.55,0 -12.58,-2.54 -16.37,-8.86 -5,-5.08 -6.27,-15.2 -6.27,-29.14 0,-13.89 2.5,-22.75 6.27,-29.1 3.79,-5.04 8.82,-7.58 16.37,-7.58zm0 11.39c-2.54,0 -3.76,1.27 -5.03,1.27 -1.27,1.27 -2.52,3.78 -2.52,6.32 -1.27,3.81 -1.27,10.12 -1.27,17.7 0,8.89 0,15.21 1.27,17.75 0,3.77 1.25,6.31 2.52,6.31 1.27,1.27 2.49,2.54 5.03,2.54 1.23,0 2.5,-1.27 3.77,-2.54 1.25,0 2.52,-2.54 2.52,-5.04 1.27,-3.81 1.27,-10.13 1.27,-19.02 0,-7.58 0,-13.89 -1.27,-17.7 0,-2.54 -1.27,-5.05 -2.52,-6.32 -1.27,0 -2.54,-1.27 -3.77,-1.27zm52.81 -11.39c6.28,0 11.33,2.54 15.1,7.58 5.02,6.35 7.56,15.21 7.56,29.1 0,13.94 -2.54,24.06 -7.56,30.41 -3.77,5.05 -8.82,7.59 -15.1,7.59 -6.27,0 -12.59,-2.54 -16.33,-8.86 -3.77,-5.08 -6.31,-15.2 -6.31,-29.14 0,-13.89 2.54,-22.75 7.55,-29.1 3.77,-5.04 8.82,-7.58 15.09,-7.58zm0 11.39c-1.27,0 -2.5,1.27 -3.77,1.27 -1.27,1.27 -2.5,3.78 -3.77,6.32 0,3.81 -1.27,10.12 -1.27,17.7 0,8.89 1.27,15.21 1.27,17.75 1.27,3.77 2.5,6.31 3.77,6.31 1.27,1.27 2.5,2.54 3.77,2.54 1.27,0 2.52,-1.27 3.79,-2.54 1.27,0 2.49,-2.54 3.76,-5.04 0,-3.81 1.24,-10.13 1.24,-19.02 0,-7.58 -1.24,-13.89 -1.24,-17.7 -1.27,-2.54 -2.49,-5.05 -3.76,-6.32 -1.27,0 -2.52,-1.27 -3.79,-1.27zm57.86 44.31l12.57 -1.27c1.27,2.5 1.27,5.04 2.54,6.31 1.22,1.27 3.72,2.54 4.99,2.54 2.52,0 5.06,-1.27 7.55,-3.81 1.27,-3.77 2.52,-8.85 3.79,-16.44 -3.79,3.81 -7.55,5.05 -12.61,5.05 -4.99,0 -10.05,-1.24 -13.81,-6.32 -3.79,-3.81 -6.29,-10.12 -6.29,-17.7 0,-6.35 2.5,-12.67 6.29,-17.75 3.76,-3.77 10.09,-6.31 16.35,-6.31 6.28,0 12.56,2.54 16.35,8.85 5.03,5.08 7.55,15.21 7.55,27.83 0,13.94 -2.52,22.79 -7.55,29.14 -5.01,6.32 -11.34,8.86 -17.62,8.86 -6.26,0 -10.05,-1.27 -13.81,-5.08 -2.52,-2.51 -5.06,-7.59 -6.29,-13.9zm30.17 -30.41c0,-3.77 -1.25,-7.58 -3.79,-10.12 -1.22,-2.51 -3.76,-3.78 -6.28,-3.78 -2.5,0 -3.77,1.27 -6.26,3.78 -1.27,1.27 -2.52,5.08 -2.52,8.89 0,5.04 1.25,8.85 2.52,11.39 2.49,1.23 4.99,2.5 7.53,2.5 2.52,0 3.79,-1.27 6.28,-2.5 1.27,-2.54 2.52,-5.08 2.52,-10.16zm67.91 -7.58l-12.57 1.27c-1.27,-2.54 -1.27,-3.81 -2.5,-5.05 -1.27,-1.27 -3.78,-2.54 -5.05,-2.54 -3.76,0 -5.03,1.27 -7.55,3.78 -1.27,2.54 -2.5,8.89 -3.77,16.47 3.77,-3.81 7.56,-6.35 12.59,-6.35 5.01,0 10.05,2.54 13.84,7.62 3.76,3.77 6.28,10.12 6.28,16.44 0,7.58 -2.52,13.93 -6.28,17.74 -3.79,5.05 -10.06,7.59 -16.38,7.59 -6.28,0 -12.55,-2.54 -16.33,-8.86 -5.04,-5.08 -7.55,-15.2 -7.55,-27.87 0,-13.89 2.51,-22.78 7.55,-29.1 5.01,-6.31 10.05,-8.85 17.6,-8.85 5.05,0 10.05,1.27 13.84,5.04 2.49,2.54 5.03,7.62 6.28,12.67zm-30.17 30.37c0,5.08 1.23,8.85 2.5,11.39 2.52,2.54 5.06,3.81 7.55,3.81 2.51,0 3.78,-1.27 6.28,-3.81 1.27,-1.27 2.5,-5.04 2.5,-10.12 0,-3.78 -1.23,-7.59 -3.73,-10.13 -1.27,-2.54 -3.78,-2.54 -6.32,-2.54 -2.49,0 -3.76,0 -6.28,2.54 -1.27,2.54 -2.5,5.08 -2.5,8.86zm60.36 -48.08c7.56,0 12.57,2.54 16.33,7.58 3.77,6.35 6.31,15.21 6.31,29.1 0,13.94 -2.54,24.06 -6.31,30.41 -3.76,5.05 -8.77,7.59 -16.33,7.59 -6.28,0 -11.32,-2.54 -15.1,-8.86 -5.04,-5.08 -6.27,-15.2 -6.27,-29.14 0,-13.89 1.23,-22.75 6.27,-29.1 3.78,-5.04 8.82,-7.58 15.1,-7.58zm0 11.39c-1.27,0 -2.54,1.27 -3.77,1.27 -1.27,1.27 -2.51,3.78 -2.51,6.32 -1.27,3.81 -1.27,10.12 -1.27,17.7 0,8.89 0,15.21 1.27,17.75 0,3.77 1.24,6.31 2.51,6.31 1.23,1.27 2.5,2.54 3.77,2.54 2.5,0 3.77,-1.27 5.02,-2.54 1.27,0 2.54,-2.54 2.54,-5.04 1.22,-3.81 1.22,-10.13 1.22,-19.02 0,-7.58 0,-13.89 -1.22,-17.7 0,-2.54 -1.27,-5.05 -2.54,-6.32 -1.25,0 -2.52,-1.27 -5.02,-1.27zm42.75 22.79c-3.76,-1.27 -6.28,-3.81 -7.55,-6.35 -1.27,-2.54 -2.49,-6.31 -2.49,-8.85 0,-6.32 2.49,-10.13 6.28,-13.94 2.49,-3.77 8.78,-5.04 15.09,-5.04 6.28,0 11.33,1.27 15.06,5.04 3.79,3.81 5.06,7.62 5.06,13.94 0,2.54 -1.27,6.31 -2.52,8.85 -1.27,2.54 -3.77,5.08 -6.27,6.35 3.73,1.27 6.27,3.77 8.79,6.31 1.27,3.81 2.49,7.59 2.49,11.4 0,6.31 -2.49,12.66 -6.28,16.47 -3.77,3.78 -8.78,6.32 -16.33,6.32 -6.31,0 -11.33,-2.54 -15.09,-5.08 -5.06,-5.05 -7.55,-10.13 -7.55,-17.71 0,-3.81 1.27,-7.59 2.49,-10.13 2.54,-3.81 5.06,-6.31 8.82,-7.58zm2.52 -13.93c0,2.54 1.27,5.04 2.5,6.31 1.27,1.27 3.77,2.54 6.31,2.54 2.51,0 3.78,-1.27 6.28,-2.54 1.27,-2.5 1.27,-3.77 1.27,-6.31 0,-3.81 0,-5.08 -1.27,-6.32 -2.5,-2.54 -3.77,-2.54 -6.28,-2.54 -2.54,0 -5.04,0 -6.31,2.54 -1.23,1.24 -2.5,3.78 -2.5,6.32zm-1.25 30.37c0,3.81 1.25,7.58 3.75,8.85 1.27,2.54 3.77,3.81 6.31,3.81 2.51,0 5.01,-1.27 6.28,-2.54 2.51,-2.54 3.78,-5.04 3.78,-10.12 0,-2.54 -1.27,-5.05 -3.78,-7.59 -1.27,-2.54 -3.77,-3.81 -6.28,-3.81 -3.77,0 -6.31,1.27 -7.54,3.81 -1.27,2.54 -2.52,5.05 -2.52,7.59zm62.88 -50.62c7.54,0 12.55,2.54 16.33,7.58 3.77,6.35 6.31,15.21 6.31,29.1 0,13.94 -2.54,24.06 -6.31,30.41 -3.78,5.05 -8.79,7.59 -16.33,7.59 -6.28,0 -11.34,-2.54 -16.35,-8.86 -3.81,-5.08 -5.04,-15.2 -5.04,-29.14 0,-13.89 1.23,-22.75 6.29,-29.1 3.76,-5.04 8.82,-7.58 15.1,-7.58zm0 11.39c-1.27,0 -2.52,1.27 -3.79,1.27 -1.27,1.27 -2.49,3.78 -2.49,6.32 -1.27,3.81 -2.54,10.12 -2.54,17.7 0,8.89 1.27,15.21 1.27,17.75 1.27,3.77 2.49,6.31 3.76,6.31 1.27,1.27 2.52,2.54 3.79,2.54 2.5,0 3.77,-1.27 5.04,-2.54 1.23,0 1.23,-2.54 2.5,-5.04 1.24,-3.81 1.24,-10.13 1.24,-19.02 0,-7.58 0,-13.89 -1.24,-17.7 -1.27,-2.54 -1.27,-5.05 -2.5,-6.32 -1.27,0 -2.54,-1.27 -5.04,-1.27z"/>
   <path class="fil1" d="M170.59 952.54l-79.23 16.44 6.28 29.14 -16.33 2.5 -16.33 -75.95 16.33 -3.78 6.29 29.11 79.22 -17.71 3.77 20.25zm-111.92 -67.1l-1.25 -20.25 52.81 -3.81c8.8,0 13.83,-1.27 16.35,-1.27 3.77,-1.27 7.54,-3.77 10.05,-6.31 1.27,-3.81 2.54,-8.86 2.54,-13.94 -1.27,-5.04 -2.54,-10.12 -5.05,-12.63 -2.5,-2.54 -5,-3.81 -8.79,-5.08 -2.54,0 -8.82,0 -16.37,1.27l-54.08 3.81 -1.22 -20.28 51.53 -3.78c11.32,0 20.14,-1.27 25.16,0 5.04,1.27 8.82,2.54 12.59,5.05 2.51,2.54 6.28,6.35 8.78,11.39 2.54,3.81 3.79,10.13 3.79,18.98 1.27,8.89 0,16.48 -1.25,21.52 -2.54,5.08 -5.04,8.89 -7.54,11.4 -3.78,3.81 -7.55,5.08 -11.33,6.35 -5.04,2.54 -13.82,2.54 -23.89,3.81l-52.83 3.77zm95.59 -144.32l-101.87 20.28 3.76 -21.52 75.47 -13.93 -69.18 -34.19 2.54 -21.51 93.02 49.35 -3.74 21.52zm33.95 -151.87l-93.06 -32.95 6.27 -18.98 93.06 32.91 -6.27 19.02zm46.52 -106.36l-8.82 16.47 -31.43 -16.47c-7.54,-3.78 -11.33,-5.05 -13.82,-6.32 -2.52,0 -5.06,0 -6.28,1.27 -2.52,1.27 -3.79,2.51 -5.06,5.05 -1.23,2.54 -2.5,6.35 -1.23,8.89 0,3.77 1.23,6.31 3.77,7.58 1.25,2.54 6.28,6.31 12.56,10.12l28.93 15.17 -8.81 16.48 -62.87 -34.19 8.82 -15.16 8.78 5.04c-3.76,-8.85 -3.76,-17.71 0,-26.56 2.51,-3.81 5.05,-6.35 7.55,-8.89 2.5,-2.51 6.29,-3.78 8.78,-5.05 2.54,0 6.33,0 8.82,1.27 2.52,0 6.29,2.51 11.33,5.05l38.98 20.25zm-25.15 -93.67l12.59 8.86 -7.55 10.12 23.88 15.21c5.06,3.81 7.55,5.04 8.8,6.31l2.54 0c1.22,-1.27 2.49,-1.27 2.49,-2.5 1.27,-1.27 2.52,-3.81 3.79,-7.62l12.59 6.35c-1.27,5.04 -2.54,10.12 -6.32,13.9 -1.23,3.81 -3.77,5.08 -6.27,7.62 -2.52,1.23 -5.06,2.5 -6.28,2.5 -2.54,0 -5.06,-1.27 -7.55,-2.5 -2.52,0 -6.29,-2.54 -11.33,-6.35l-26.42 -16.44 -5.01 6.31 -12.59 -7.58 5.04 -7.59 -11.32 -7.62 0 -21.52 21.37 13.94 7.55 -11.4zm83.01 -30.37l15.09 -11.4c3.79,6.32 5.01,12.67 3.79,18.98 0,6.35 -2.54,12.67 -8.82,17.71 -7.56,10.16 -16.33,13.94 -26.43,12.67 -7.51,0 -16.33,-3.78 -22.62,-10.13 -10.04,-7.58 -13.83,-16.44 -15.1,-25.29 -1.27,-8.89 1.27,-17.75 7.55,-24.06 6.28,-8.86 15.11,-12.67 23.89,-12.67 10.05,0 20.14,5.05 30.19,15.21l-30.19 35.42c3.78,3.81 7.55,5.08 12.59,5.08 3.79,0 7.55,-2.54 10.06,-5.08 2.5,-2.51 2.5,-5.05 3.77,-7.59 0,-2.54 -1.27,-5.08 -3.77,-8.85zm-13.83 -12.67c-3.77,-3.81 -7.55,-5.08 -11.32,-5.08 -3.78,0 -7.55,1.27 -10.05,5.08 -2.54,2.54 -3.79,6.32 -2.54,10.13 0,3.81 2.54,7.58 6.31,11.39l17.6 -21.52zm76.69 -18.98l-13.83 13.9 -47.8 -53.16 12.59 -11.39 6.28 7.62c-1.22,-6.35 -1.22,-10.13 0,-12.67 0,-2.54 2.52,-5.08 3.79,-7.58 3.77,-2.54 7.54,-5.08 12.59,-5.08l6.28 15.2c-3.78,1.27 -6.28,2.51 -8.82,3.78 -1.24,2.54 -2.51,3.81 -2.51,6.35 -1.27,2.5 0,5.04 1.27,8.85 2.51,3.81 7.55,10.12 15.06,18.98l15.1 15.2zm88.05 -69.63l-16.37 10.12 -20.1 -29.1c-5.04,-6.35 -7.55,-11.4 -10.05,-12.67 -1.27,-1.27 -3.78,-1.27 -6.32,-1.27 -1.23,0 -3.77,0 -6.27,1.27 -2.52,2.54 -3.79,5.08 -5.01,7.59 -1.27,3.81 -1.27,6.35 0,8.89 0,3.77 2.49,7.58 7.51,15.17l18.87 25.33 -15.1 11.39 -41.49 -58.24 13.83 -10.13 6.29 8.86c1.27,-10.13 5.03,-18.98 12.58,-24.06 3.79,-2.51 7.56,-3.78 10.06,-5.05 3.78,0 7.55,0 10.06,1.27 2.5,0 5.04,1.27 7.54,3.78 2.52,2.54 5.06,5.08 8.82,10.16l25.15 36.69zm16.34 -70.88l-16.34 5.05c-1.27,-7.59 0,-12.63 2.52,-17.71 2.5,-5.08 8.78,-10.13 16.33,-13.94 7.54,-3.81 13.82,-6.31 18.88,-6.31 3.76,0 7.54,1.27 10.04,3.77 3.77,1.27 6.29,6.35 10.05,13.94l10.09 20.25c2.52,5.08 5.02,8.85 6.29,11.39 1.23,2.54 3.77,5.08 7.55,7.59l-17.6 7.62c0,0 -1.27,-2.54 -3.79,-3.81 0,-1.27 -1.27,-1.27 -1.27,-1.27 -1.27,3.81 -3.76,7.62 -6.28,10.12 -2.54,3.81 -5.04,6.35 -8.81,7.62 -7.54,3.78 -12.55,3.78 -18.84,2.51 -5.04,-2.51 -10.09,-5.05 -12.59,-11.4 -1.27,-3.77 -2.51,-7.58 -1.27,-10.12 0,-3.78 1.27,-7.59 3.77,-10.13 2.54,-3.77 6.32,-7.58 11.32,-11.39 7.55,-5.05 12.61,-8.86 15.1,-11.36l-1.27 -2.54c-1.22,-2.54 -3.76,-5.08 -6.28,-5.08 -2.49,-1.27 -5.03,0 -10.05,1.27 -2.5,2.54 -5.04,3.81 -6.28,6.35 -1.27,1.23 -1.27,3.77 -1.27,7.58zm30.2 2.54c-2.54,2.51 -5.05,5.05 -8.81,7.59 -5.06,3.77 -7.55,6.31 -8.82,7.58 -1.25,2.54 -1.25,5.08 0,7.59 1.27,2.54 3.76,3.81 6.3,5.08 2.52,1.27 5.01,1.27 7.55,0 2.51,-2.54 5.01,-5.08 7.51,-7.59 1.27,-2.54 1.27,-5.08 1.27,-7.62 0,-2.5 -1.27,-5.04 -3.77,-8.85l-1.23 -3.78zm64.13 -69.64l5.02 15.21 -11.33 3.77 10.08 26.6c1.25,6.32 2.52,8.86 3.74,10.13 0,0 1.27,1.27 2.54,1.27l2.52 0c2.49,-1.27 3.76,-2.54 7.55,-5.08l6.27 13.93c-3.77,2.54 -7.54,6.32 -12.55,7.59 -3.79,1.27 -6.33,1.27 -10.07,1.27 -2.54,0 -5.04,0 -6.31,-1.27 -2.5,-1.27 -3.77,-3.78 -5.01,-6.32 -1.27,-1.27 -3.76,-6.35 -6.3,-11.39l-10.06 -29.14 -8.79 2.54 -5.04 -13.9 7.55 -3.81 -5.05 -12.67 13.87 -17.7 8.79 24.02 12.58 -5.05zm28.93 -18.97l-5.04 -16.48 18.87 -5.04 3.75 16.44 -17.58 5.08zm20.12 78.49l-17.61 -69.64 17.61 -5.08 18.86 69.64 -18.86 5.08zm37.71 -49.39c-1.25,-6.32 0,-12.67 1.27,-18.98 2.5,-6.35 6.27,-11.39 11.32,-16.47 5.01,-3.78 10.05,-6.32 17.61,-7.59 10.04,-1.27 20.09,0 27.64,6.32 7.56,5.08 12.6,13.93 15.11,24.05 1.27,10.13 0,20.25 -6.28,27.87 -5.04,8.86 -13.86,13.9 -23.93,15.17 -6.27,1.27 -12.54,1.27 -18.83,-1.27 -6.31,-1.27 -11.32,-5.04 -15.1,-10.12 -5.04,-5.05 -7.54,-11.4 -8.81,-18.98zm18.87 -2.54c1.27,6.35 3.77,11.39 8.81,15.2 3.74,2.54 7.52,3.78 12.56,2.54 5.04,0 8.83,-2.54 11.32,-7.62 2.52,-3.77 3.79,-10.12 2.52,-16.44 -1.27,-7.58 -3.79,-12.66 -8.8,-15.2 -3.77,-3.77 -7.54,-3.77 -12.59,-3.77 -5.01,1.23 -8.78,3.77 -11.32,7.58 -2.5,5.04 -3.77,10.12 -2.5,17.71zm153.41 21.52l-18.87 0 -1.23 -36.69c0,-7.62 0,-12.66 -1.27,-15.2 -1.27,-1.27 -2.5,-3.81 -3.77,-5.05 -2.51,-1.27 -3.78,-1.27 -6.28,-1.27 -3.78,0 -6.28,1.27 -8.82,2.51 -2.5,2.54 -5.02,5.08 -5.02,7.62 -1.27,2.5 -1.27,8.85 -1.27,16.43l0 31.65 -18.87 1.27 -1.23 -72.14 17.61 0 0 10.12c6.28,-7.58 13.82,-11.39 23.88,-12.66 3.77,0 7.54,1.27 11.33,2.54 3.76,1.27 6.27,3.77 7.54,5.04 1.23,2.54 2.5,5.08 3.77,8.89 1.23,2.51 1.23,6.32 1.23,12.63l1.27 44.31zm51.58 -46.81l-16.36 -5.08c2.5,-6.32 6.27,-11.4 11.33,-13.94 5.03,-2.5 12.58,-3.77 21.36,-2.5 7.55,1.23 13.83,2.5 17.62,5.04 3.77,2.54 6.27,5.08 7.54,8.86 1.27,3.81 2.51,8.85 1.27,17.74l-3.77 21.52 0 13.9c0,2.54 1.23,6.35 2.5,10.12l-18.88 -2.5c0,-1.27 -1.22,-3.81 -1.22,-6.35l0 -2.54c-3.79,3.81 -7.56,5.08 -11.33,6.35 -3.78,1.27 -7.54,1.27 -12.6,1.27 -6.28,-1.27 -12.55,-3.81 -16.33,-8.86 -3.77,-3.81 -5.04,-8.89 -3.77,-15.2 0,-3.81 1.27,-7.59 3.77,-10.13 2.51,-3.81 5.01,-5.08 8.78,-6.31 3.79,-1.27 8.82,-2.54 15.1,-2.54 10.05,-1.27 15.11,-1.27 18.87,-2.54l0 -2.54c1.27,-2.54 0,-6.31 -1.27,-7.58 -1.22,-1.27 -5.01,-2.54 -10.05,-3.81 -2.5,0 -5.01,0 -7.55,1.27 -2.49,1.27 -3.76,3.81 -5.01,6.35zm22.61 18.97c-2.49,0 -6.28,0 -11.32,1.27 -5.01,0 -8.77,1.27 -11.29,1.27 -2.54,1.24 -3.76,3.78 -3.76,6.32 0,2.54 0,5.08 2.49,7.58 1.27,2.54 3.79,3.81 6.28,3.81 3.78,0 6.28,0 10.05,-2.54 2.54,-1.27 3.79,-2.54 5.06,-5.04 1.27,-2.54 1.27,-5.08 2.49,-8.89l0 -3.78zm44.03 40.5l22.66 -96.2 17.6 5.05 -21.39 96.23 -18.87 -5.08zm194.91 32.92l13.86 15.2c-7.54,7.59 -15.08,12.63 -23.9,13.9 -8.79,1.27 -17.61,0 -26.39,-5.04 -11.34,-5.08 -18.89,-13.94 -22.66,-26.6 -3.77,-11.4 -1.27,-24.03 5.04,-37.96 7.53,-15.21 17.62,-24.06 28.9,-27.87 11.32,-5.05 23.93,-3.78 35.24,2.54 11.3,5.08 17.6,12.66 21.39,22.79 2.5,6.31 2.5,12.66 1.23,20.25l-20.12 -3.78c1.27,-5.08 1.27,-10.16 -1.27,-15.2 -1.23,-3.81 -5,-7.59 -8.78,-8.86 -7.55,-3.81 -13.83,-3.81 -20.14,-1.27 -6.28,2.54 -12.56,8.86 -17.6,18.98 -5.02,11.4 -7.56,20.25 -6.29,26.6 2.52,7.59 6.29,12.63 12.6,15.17 5.01,2.54 8.79,3.81 13.83,2.54 5.02,-1.27 10.05,-5.08 15.06,-11.39zm71.68 63.29l12.6 12.66c-5.06,3.81 -11.33,6.32 -17.6,6.32 -6.27,0 -12.6,-2.51 -18.87,-6.32 -10.06,-7.58 -16.33,-16.47 -16.33,-26.56 0,-7.62 2.5,-15.21 8.78,-24.06 6.28,-8.89 13.82,-15.21 22.64,-17.75 10.05,-1.27 17.59,0 25.14,6.35 8.79,5.05 13.84,12.67 15.11,22.79 1.23,8.86 -2.54,18.98 -11.32,31.65l-38.98 -27.87c-2.54,5.08 -3.77,8.89 -3.77,13.93 1.23,3.81 2.5,7.59 6.27,10.13 2.52,1.27 5.06,2.54 7.55,2.54 2.51,-1.27 5.01,-2.54 8.78,-3.81zm11.33 -15.17c2.49,-5.08 3.76,-8.89 3.76,-12.67 -1.27,-3.81 -2.49,-7.62 -6.28,-10.12 -2.49,-1.27 -6.28,-2.54 -10.04,-1.27 -3.77,0 -7.55,2.54 -10.04,7.58l22.6 16.48zm26.42 75.95l-15.1 -12.67 45.25 -54.43 13.83 11.4 -6.28 7.58c5.06,-1.27 8.82,-2.54 12.61,-2.54 2.5,1.27 5,1.27 7.54,3.81 2.51,2.54 5.01,6.32 6.28,11.4l-15.09 8.85c0,-3.81 -2.52,-6.31 -3.79,-8.85 -2.49,-1.27 -5.01,-2.54 -6.28,-2.54 -2.49,0 -6.28,1.27 -8.82,3.81 -3.77,1.27 -8.78,7.58 -16.33,16.43l-13.82 17.75zm108.15 7.58l-11.31 11.4 -8.83 -10.13 -20.1 20.25c-3.78,3.81 -6.28,6.32 -7.55,7.59l0 2.54c0,1.27 0,2.54 1.27,3.81 1.23,1.23 3.74,2.5 6.28,3.77l-8.82 11.4c-5.01,-2.54 -8.78,-5.05 -12.57,-8.86 -2.54,-2.54 -3.76,-5.08 -5.03,-7.58 -1.25,-2.54 -1.25,-5.08 -1.25,-7.62 1.25,-2.51 2.52,-5.05 3.74,-7.59 1.27,-1.27 3.79,-5.04 8.83,-8.85l22.64 -21.52 -6.31 -6.35 11.32 -11.36 6.32 6.31 10.06 -8.85 20.1 5.04 -17.61 17.75 8.82 8.85zm26.39 18.98l13.83 -11.39 11.32 15.2 -13.81 10.13 -11.34 -13.94zm-62.86 50.63l55.32 -44.28 11.33 13.9 -55.33 45.58 -11.32 -15.2zm85.51 -3.78l6.29 8.86 3.76 -2.54c5.06,-3.78 8.82,-5.05 12.61,-6.32 3.73,0 6.27,0 10.05,2.54 3.77,1.24 6.28,5.05 8.78,8.86 3.77,5.04 5.04,10.12 6.29,15.17l-11.3 5.08c-1.27,-3.81 -2.54,-6.35 -3.77,-7.59 -2.54,-2.54 -3.78,-3.81 -5.05,-5.08 -2.5,0 -3.77,1.27 -7.54,2.54l-3.79 3.78 7.56 11.39 -12.57 7.62 -7.55 -11.39 -47.79 30.37 -10.05 -15.2 47.79 -31.65 -6.3 -7.58 12.58 -8.86zm46.53 59.48l16.33 -7.58 7.55 16.44 -15.09 7.62 -8.79 -16.48zm-71.68 36.73l64.14 -32.92 7.54 17.71 -62.9 31.64 -8.78 -16.43zm93.07 84.8l-10.06 -16.47c2.5,-1.24 5,-3.78 5,-6.32 1.27,-3.77 1.27,-6.31 0,-10.12 -1.23,-3.81 -5,-6.32 -8.78,-7.59 -3.76,-1.27 -10.09,-1.27 -16.36,1.27 -7.55,3.78 -12.56,7.59 -15.06,11.4 -2.54,3.77 -2.54,7.58 -1.27,12.63 2.5,2.54 3.77,5.08 6.27,6.35 3.78,1.27 7.55,2.54 11.33,1.27l5 17.71c-8.78,1.27 -16.33,1.27 -22.6,-2.54 -6.28,-3.78 -10.07,-10.13 -13.83,-17.71 -3.79,-10.13 -3.79,-18.98 0,-26.6 3.76,-8.86 11.31,-15.17 21.37,-18.98 11.33,-5.05 20.12,-5.05 28.93,-2.54 8.79,3.81 15.07,10.12 18.83,20.28 2.54,7.59 3.79,15.17 2.54,21.49 -1.27,6.35 -6.3,11.39 -11.31,16.47zm12.56 46.85l-1.25 -17.74c7.52,0 12.57,2.54 17.61,6.35 3.78,3.77 7.55,10.12 8.78,18.98 2.54,8.85 2.54,15.2 1.27,18.98 -1.27,5.08 -2.5,8.85 -5.04,10.12 -2.5,2.54 -7.55,5.08 -16.33,6.35l-21.39 5.05c-5.04,1.27 -10.05,2.54 -12.59,3.81 -2.49,1.27 -6.28,3.81 -8.78,6.31l-3.77 -18.98c1.27,0 2.5,-1.27 5,-2.54l1.27 -1.27c-3.77,-2.5 -6.27,-5.04 -8.78,-8.85 -2.54,-2.54 -3.77,-6.32 -5.04,-10.13 -1.27,-7.58 -1.27,-13.93 2.5,-18.98 2.54,-5.08 6.32,-7.58 12.59,-8.85 3.79,-1.27 7.55,-1.27 11.33,0 3.77,1.27 6.27,2.5 8.79,6.31 2.49,2.54 5.03,7.59 7.55,13.94 3.76,7.58 6.28,13.93 8.82,16.44l1.23 0c3.77,-1.27 6.28,-2.51 7.55,-5.05 1.27,-1.27 1.27,-5.08 0,-10.12 -1.27,-3.81 -2.51,-6.35 -3.78,-7.62 -1.27,-1.24 -3.77,-2.51 -7.54,-2.51zm-10.07 27.84c-1.27,-2.54 -2.49,-5.05 -5.03,-10.13 -2.52,-5.08 -3.75,-7.58 -5.02,-10.12 -2.5,-1.27 -5.04,-2.54 -7.55,-1.27 -2.49,0 -5.03,1.27 -6.28,3.81 -1.27,2.5 -1.27,5.04 -1.27,8.85 1.27,2.54 2.52,6.32 6.28,8.86 1.27,1.27 3.78,2.54 6.32,2.54 2.5,0 5,0 10.06,-1.27l2.49 -1.27zm51.58 78.49l-15.1 2.54 -1.27 -12.67 -28.93 3.78c-5.01,1.27 -8.77,1.27 -10.04,2.54 0,0 -1.27,0 -1.27,1.27 -1.25,1.27 -1.25,2.54 -1.25,3.81 0,1.27 1.25,3.77 3.79,6.31l-15.11 3.81c-2.49,-3.81 -3.76,-8.85 -5.03,-13.93 0,-3.81 0,-6.32 1.27,-8.86 0,-3.81 1.27,-5.08 3.76,-7.58 1.27,-1.27 3.78,-2.54 6.28,-3.81 2.54,0 6.29,-1.27 12.59,-1.27l31.44 -5.05 -1.27 -8.89 15.11 -1.27 0 7.62 15.08 -1.27 12.56 16.44 -23.88 3.81 1.27 12.67zm12.57 34.18l17.6 0 0 18.98 -17.6 0 0 -18.98zm-80.48 2.51l70.42 -1.24 1.27 17.71 -71.69 2.54 0 -19.01zm37.72 49.39c6.28,1.27 12.59,2.54 17.61,6.31 6.28,3.81 10.04,7.62 12.58,13.94 2.51,6.31 3.78,12.66 3.78,18.98 -1.27,11.39 -5.05,20.25 -12.6,26.6 -7.55,6.31 -16.33,8.85 -26.42,7.58 -11.28,0 -20.1,-3.77 -26.39,-11.39 -6.28,-7.59 -8.82,-16.44 -8.82,-27.84 0,-6.35 2.54,-12.66 6.32,-17.74 2.5,-6.32 7.52,-10.13 13.82,-12.63 5.01,-2.54 12.57,-3.81 20.12,-3.81zm-1.27 20.25c-7.51,-1.27 -12.57,0 -17.6,3.81 -3.79,2.5 -5.01,6.31 -6.28,11.39 0,5.05 1.27,8.86 5.03,12.63 3.79,3.81 8.8,6.35 16.34,6.35 6.28,0 12.6,-1.27 16.37,-3.81 3.77,-2.54 6.29,-7.58 6.29,-11.39 0,-5.05 -1.27,-10.13 -5.06,-13.94 -3.77,-2.5 -8.78,-5.04 -15.09,-5.04zm-59.09 141.78l5.04 -18.98 35.2 8.85c7.55,1.27 12.57,2.54 13.84,1.27 2.5,0 5.01,0 6.28,-2.54 1.27,-1.27 2.5,-2.54 3.77,-5.04 0,-3.81 0,-6.35 -1.27,-10.16 -1.23,-2.51 -2.5,-5.05 -5.01,-6.32 -2.54,-1.27 -7.54,-3.81 -16.36,-5.08l-31.44 -7.58 5.04 -17.71 69.16 15.17 -3.74 17.74 -10.1 -2.54c6.31,7.59 7.56,16.48 6.31,25.33 -1.27,5.05 -2.54,7.59 -5.04,11.4 -2.5,2.5 -5.04,5.04 -7.55,6.31 -2.5,1.27 -5.04,1.27 -8.82,1.27 -2.5,0 -6.27,0 -12.55,-1.27l-42.76 -10.12z"/>
   <path class="fil0 str0" d="M800.65 209.4c323.92,0 586.06,265.19 586.06,591.23 0,326.07 -262.14,589.95 -586.06,589.95 -323.93,0 -587.31,-263.88 -587.31,-589.95 0,-326.04 263.38,-591.23 587.31,-591.23z"/>
   <path class="fil1" d="M800.65 163.9c174.8,0 331.99,70.87 446.43,186.09 114.44,115.18 186.12,274.67 186.12,450.64 0,175.96 -71.68,334.18 -186.12,449.4 -62.86,64.56 -139.59,115.18 -225.11,146.82l-36.47 0c96.83,-30.37 183.63,-84.8 254.03,-154.44 111.94,-113.91 181.07,-269.63 181.07,-441.78 0,-173.43 -69.13,-329.11 -181.07,-441.79 -113.16,-113.91 -267.85,-183.55 -438.88,-183.55 -172.3,0 -326.96,69.64 -438.9,183.55 -113.21,112.68 -182.35,268.36 -182.35,441.79 0,172.15 69.14,327.87 182.35,441.78 69.18,69.64 155.94,124.07 254.04,154.44l-36.47 0c-85.51,-31.64 -163.48,-82.26 -226.38,-146.82 -114.45,-115.22 -184.85,-273.44 -184.85,-449.4 0,-175.97 70.4,-335.46 184.85,-450.64 114.44,-115.22 272.9,-186.09 447.71,-186.09z"/>
   <polygon class="fil1" points="731.48,1408.25 595.66,1408.25 589.37,1432.31 640.91,1432.31 609.49,1546.22 645.97,1546.22 676.13,1432.31 726.43,1432.31 "/>
   <path class="fil1" d="M939.29 1494.33l32.46 8.86c-7.49,15.2 -17.47,25.33 -31.22,32.91 -13.72,7.58 -28.69,10.12 -47.41,10.12 -23.71,0 -42.44,-5.04 -54.89,-17.7 -13.77,-12.67 -18.75,-29.14 -15,-50.63 3.74,-22.82 13.73,-40.53 31.19,-53.2 16.22,-12.63 37.45,-18.98 61.16,-18.98 21.21,0 38.7,5.08 49.93,15.21 7.47,6.31 12.48,13.9 14.98,25.29l-36.19 6.35c-1.27,-7.62 -5.01,-12.66 -11.25,-16.47 -4.97,-3.78 -12.5,-6.32 -22.48,-6.32 -12.45,0 -23.71,3.81 -33.69,11.4 -8.71,6.31 -14.95,17.71 -17.45,34.18 -2.52,17.71 0,30.38 7.47,36.69 6.24,7.62 16.22,11.4 28.72,11.4 9.98,0 17.47,-2.54 24.93,-7.59 7.53,-3.81 13.77,-11.39 18.74,-21.52z"/>
   <polygon class="fil1" points="765.43,1546.23 730.22,1546.23 765.43,1408.26 800.63,1408.26 "/>
   <polygon class="fil1" points="354.22,1065.23 1260.92,1065.23 1260.92,1053.83 354.22,1053.83 "/>
   <path class="fil4" d="M609.5 962.66l38.97 1.27c-2.5,11.4 -6.27,22.79 -12.55,30.38 -6.32,6.31 -12.59,12.66 -20.14,16.47 -8.8,3.78 -18.85,6.32 -32.7,6.32 -15.07,0 -27.66,-2.54 -37.73,-7.59 -10.05,-5.08 -17.6,-12.66 -25.15,-24.06 -7.54,-12.66 -11.32,-27.83 -11.32,-45.58 0,-24.06 6.28,-43.04 18.87,-56.97 12.57,-12.66 31.44,-18.98 54.08,-18.98 17.6,0 31.43,3.81 42.77,11.4 15.09,10.12 28.93,37.99 26.39,50.62l-42.76 2.54c-1.25,-5.05 -2.52,-17.71 -5.01,-20.25 -2.54,-2.54 -5.06,-5.05 -8.83,-7.59 -3.76,-1.27 -7.55,-2.54 -11.31,-2.54 -10.06,0 -17.61,3.81 -23.89,12.67 -3.77,6.31 -5.04,15.17 -5.04,29.1 0,16.48 2.54,30.38 6.31,36.73 5.01,6.31 12.56,8.85 20.1,8.85 8.82,0 15.1,-2.54 20.12,-6.35 3.76,-5.04 5.03,-8.85 8.82,-16.44zm60.36 -96.2l118.21 0 0 31.64 -74.18 0 0 22.79 67.91 0 0 30.38 -67.91 0 0 29.1 75.45 0 0 34.19 -119.48 0 0 -148.1zm144.64 148.1l0 -148.1 72.91 0c13.83,0 28.93,1.27 36.47,3.78 7.55,2.54 12.61,6.35 17.62,12.66 3.77,6.35 6.27,15.2 6.27,24.06 0,8.85 -1.23,15.2 -5,21.52 -2.54,6.35 -7.55,10.12 -13.83,13.93 -3.79,2.54 -7.56,5.05 -15.11,6.32 3.78,1.27 11.32,10.12 13.84,12.66 2.49,5.08 5.01,7.59 5.01,10.13l21.41 43.04 -49.08 0 -23.87 -54.44 -22.65 0 0 54.44 -43.99 0zm43.99 -84.81l27.69 0c2.5,0 6.28,0 11.29,-1.27 3.77,-1.27 6.31,-2.54 7.54,-5.05 2.54,-2.54 2.54,-8.89 2.54,-12.66 0,-5.08 -1.27,-8.86 -3.77,-11.4 -3.77,-2.54 -8.82,-3.81 -16.37,-3.81l-28.92 0 0 34.19zm98.1 -63.29l134.55 0 0 36.72 -45.26 0 0 111.38 -44.02 0 0 -111.38 -45.27 0 0 -36.72z"/>
   <polygon class="fil1" points="36.03,831.02 36.03,843.65 48.59,842.38 47.32,831.02 "/>
   <polygon class="fil1" points="37.28,853.79 38.55,865.18 51.11,863.91 49.87,852.52 "/>
  </g>
 </g>
</svg>
